<?xml version="1.0" encoding="utf-8"?>
<!-- Generator: Adobe Illustrator 16.0.0, SVG Export Plug-In . SVG Version: 6.00 Build 0)  -->
<!DOCTYPE svg PUBLIC "-//W3C//DTD SVG 1.1//EN" "http://www.w3.org/Graphics/SVG/1.1/DTD/svg11.dtd">
<svg version="1.1" id="Capa_1" xmlns="http://www.w3.org/2000/svg" xmlns:xlink="http://www.w3.org/1999/xlink" x="0px" y="0px"
	 width="595.279px" height="209.764px" viewBox="0 0 595.279 209.764" enable-background="new 0 0 595.279 209.764"
	 xml:space="preserve">
<g>
	<g>
		<path fill="#FFFFFF" d="M215.86,139.43c-5.861,3.098-13.157,4.646-21.896,4.646c-11.272,0-20.302-3.634-27.086-10.896
			c-6.778-7.26-10.171-16.785-10.171-28.578c0-12.677,3.813-22.923,11.442-30.733c7.631-7.816,17.302-11.721,29.021-11.721
			c7.521,0,13.749,1.088,18.688,3.263v9.896c-5.677-3.172-11.944-4.755-18.799-4.755c-9.104,0-16.479,3.036-22.137,9.118
			c-5.661,6.083-8.487,14.21-8.487,24.381c0,9.656,2.646,17.347,7.933,23.078c5.291,5.731,12.227,8.598,20.813,8.598
			c7.961,0,14.852-1.768,20.678-5.305L215.86,139.43L215.86,139.43z"/>
		<path fill="#FFFFFF" d="M283.566,71.874h-30.955v27.422h28.636v8.348h-28.636v35.104h-9.29V63.472h40.244L283.566,71.874
			L283.566,71.874z"/>
		<path fill="#FFFFFF" d="M351.052,142.748h-41.131V63.472h9.291v70.872h31.84V142.748z"/>
		<path fill="#FFFFFF" d="M411.132,63.472v52.354h10.172v8.293h-10.172v18.629h-8.953v-18.629h-37.262v-7.854
			c3.467-3.902,6.969-8.076,10.506-12.52c3.537-4.438,6.92-8.943,10.141-13.52c3.229-4.563,6.215-9.129,8.959-13.679
			c2.746-4.555,5.057-8.908,6.938-13.077L411.132,63.472L411.132,63.472z M375.146,115.826h27.031V77.02
			c-2.768,4.825-5.381,9.141-7.854,12.934c-2.469,3.798-4.818,7.245-7.049,10.341c-2.229,3.092-4.359,5.893-6.383,8.403
			C378.865,111.201,376.95,113.576,375.146,115.826z"/>
		<path fill="#FFFFFF" d="M492.884,102.779c0,6.636-0.604,12.513-1.799,17.638c-1.197,5.121-2.928,9.444-5.197,12.963
			c-2.266,3.518-5.049,6.193-8.348,8.016c-3.297,1.824-7.051,2.736-11.25,2.736c-3.98,0-7.527-0.877-10.641-2.625
			c-3.117-1.754-5.742-4.305-7.877-7.656c-2.141-3.354-3.758-7.475-4.865-12.354c-1.105-4.886-1.657-10.478-1.657-16.779
			c0-6.93,0.579-13.048,1.737-18.354c1.162-5.307,2.865-9.756,5.115-13.348c2.25-3.598,5.041-6.304,8.373-8.127
			c3.336-1.824,7.16-2.736,11.475-2.736C484.57,62.149,492.884,75.693,492.884,102.779z M483.594,103.666
			c0-22.558-5.361-33.835-16.084-33.835c-11.318,0-16.979,11.482-16.979,34.44c0,21.415,5.547,32.118,16.643,32.118
			C478.12,136.389,483.594,125.48,483.594,103.666z"/>
		<path fill="#FFFFFF" d="M565.344,117.594c0,3.869-0.627,7.426-1.879,10.668c-1.254,3.246-2.986,6.047-5.197,8.402
			c-2.213,2.358-4.85,4.192-7.906,5.502c-3.061,1.307-6.377,1.965-9.949,1.965c-3.979,0-7.547-0.832-10.695-2.49
			c-3.152-1.66-5.822-4.045-8.02-7.154c-2.188-3.116-3.855-6.922-5-11.42c-1.143-4.493-1.715-9.563-1.715-15.2
			c0-6.891,0.762-13.147,2.295-18.771c1.529-5.616,3.703-10.427,6.521-14.425s6.223-7.085,10.199-9.26
			c3.979-2.175,8.423-3.263,13.322-3.263c5.457,0,9.842,0.752,13.158,2.266v8.567c-4.09-2.1-8.402-3.15-12.938-3.15
			c-3.536,0-6.726,0.791-9.563,2.38c-2.836,1.583-5.266,3.823-7.295,6.714c-2.025,2.896-3.584,6.389-4.67,10.477
			c-1.088,4.09-1.635,8.645-1.635,13.653h0.221c3.651-6.594,9.676-9.896,18.078-9.896c3.467,0,6.59,0.592,9.369,1.769
			c2.786,1.183,5.161,2.852,7.135,5.006c1.971,2.154,3.492,4.726,4.561,7.711C564.807,110.631,565.344,113.949,565.344,117.594z
			 M556.055,118.758c0-2.766-0.354-5.256-1.049-7.467c-0.701-2.209-1.707-4.088-3.018-5.638c-1.307-1.548-2.92-2.734-4.834-3.566
			c-1.92-0.826-4.09-1.242-6.523-1.242c-2.248,0-4.328,0.421-6.248,1.271c-1.912,0.848-3.572,2-4.977,3.453
			c-1.396,1.457-2.494,3.15-3.287,5.084c-0.791,1.937-1.188,3.994-1.188,6.164c0,2.73,0.387,5.279,1.158,7.66
			c0.773,2.375,1.861,4.449,3.262,6.22c1.402,1.768,3.07,3.161,5.006,4.174c1.936,1.012,4.078,1.518,6.438,1.518
			c2.284,0,4.368-0.432,6.248-1.297c1.879-0.867,3.48-2.074,4.811-3.623c1.328-1.549,2.354-3.396,3.096-5.557
			C555.688,123.758,556.055,121.373,556.055,118.758z"/>
	</g>
	<g>
		<g>
			<path fill="#FFFFFF" d="M302.329,172.324l-2.727,6.52h-2.193l3.196-6.52H302.329z M306.773,172.324l-2.77,6.52h-2.15l3.213-6.52
				H306.773z"/>
			<path fill="#FFFFFF" d="M306.452,192.787l0.514-2.894c0.279,0.291,0.627,0.554,1.053,0.787c0.42,0.234,0.871,0.433,1.357,0.596
				c0.484,0.156,0.971,0.281,1.473,0.365c0.502,0.092,0.977,0.137,1.412,0.137c1.514,0,2.686-0.28,3.533-0.842
				c0.848-0.563,1.355-1.367,1.543-2.42c0.1-0.563,0.063-1.059-0.109-1.475c-0.176-0.42-0.451-0.808-0.828-1.152
				c-0.381-0.346-0.842-0.676-1.383-0.992c-0.545-0.313-1.131-0.649-1.758-1.002c-0.666-0.369-1.287-0.739-1.852-1.121
				c-0.564-0.381-1.041-0.803-1.432-1.258c-0.387-0.461-0.662-0.977-0.828-1.563c-0.164-0.576-0.18-1.259-0.045-2.035
				c0.17-0.951,0.527-1.789,1.068-2.494c0.545-0.701,1.195-1.289,1.959-1.744c0.766-0.461,1.604-0.801,2.516-1.021
				c0.91-0.228,1.818-0.336,2.725-0.336c2.064,0,3.533,0.245,4.387,0.748l-0.486,2.76c-1.088-0.857-2.6-1.287-4.539-1.287
				c-0.537,0-1.082,0.055-1.639,0.17c-0.559,0.109-1.063,0.295-1.529,0.547c-0.461,0.25-0.861,0.58-1.191,0.978
				c-0.33,0.399-0.557,0.887-0.654,1.463c-0.098,0.537-0.076,0.998,0.055,1.389s0.365,0.746,0.701,1.066
				c0.326,0.325,0.746,0.637,1.258,0.938c0.506,0.301,1.098,0.631,1.764,0.998c0.684,0.369,1.328,0.762,1.932,1.166
				c0.596,0.406,1.105,0.863,1.525,1.359c0.416,0.5,0.725,1.047,0.906,1.651c0.197,0.603,0.221,1.299,0.082,2.078
				c-0.182,1.027-0.537,1.904-1.068,2.621c-0.523,0.711-1.178,1.303-1.938,1.744c-0.771,0.451-1.623,0.774-2.555,0.971
				c-0.934,0.207-1.891,0.303-2.889,0.303c-0.33,0-0.729-0.024-1.211-0.079c-0.477-0.052-0.963-0.132-1.449-0.236
				c-0.484-0.096-0.945-0.226-1.377-0.381C307.029,193.143,306.689,192.973,306.452,192.787z"/>
			<path fill="#FFFFFF" d="M339.419,193.633h-2.723l-1.184-5.877h-8.891l-3.125,5.877h-2.734l11.738-20.959h2.547L339.419,193.633z
				 M335.098,185.551l-1.713-8.928c-0.051-0.297-0.08-0.769-0.07-1.408h-0.061c-0.199,0.596-0.4,1.063-0.586,1.408l-4.836,8.928
				H335.098z"/>
			<path fill="#FFFFFF" d="M359.398,193.633h-3.012l-7.84-16.705c-0.195-0.42-0.344-0.859-0.438-1.316h-0.09
				c0,0.445-0.129,1.406-0.391,2.882l-2.67,15.143h-2.455l3.695-20.959h3.188l7.59,16.443c0.32,0.682,0.521,1.151,0.607,1.401h0.055
				c0.01-0.602,0.141-1.633,0.395-3.086l2.605-14.762h2.455L359.398,193.633z"/>
			<path fill="#FFFFFF" d="M379.786,186.117c-0.439,2.489-1.309,4.42-2.602,5.803c-1.297,1.373-2.826,2.063-4.59,2.063
				c-0.816,0-1.475-0.114-1.959-0.352l0.432-2.426c0.455,0.381,1.111,0.571,1.949,0.571c2.209,0,3.646-1.875,4.309-5.633
				l2.375-13.475h2.455L379.786,186.117z"/>
			<path fill="#FFFFFF" d="M392.173,193.984c-2.973,0-5.182-0.977-6.623-2.938c-1.443-1.959-1.891-4.508-1.338-7.646
				c0.596-3.373,1.982-6.063,4.156-8.065c2.182-2.01,4.836-3.012,7.975-3.012c2.895,0,5.055,0.971,6.479,2.92
				c1.428,1.948,1.863,4.5,1.313,7.643c-0.607,3.426-1.99,6.131-4.154,8.115C397.814,192.992,395.214,193.984,392.173,193.984z
				 M395.775,174.543c-2.205,0-4.135,0.797-5.787,2.385c-1.652,1.59-2.707,3.668-3.162,6.254s-0.154,4.66,0.912,6.232
				c1.059,1.573,2.67,2.364,4.824,2.364c2.301,0,4.244-0.752,5.832-2.25c1.594-1.502,2.621-3.604,3.102-6.303
				c0.486-2.766,0.223-4.91-0.801-6.42C399.675,175.301,398.034,174.543,395.775,174.543z"/>
			<path fill="#FFFFFF" d="M405.525,192.787l0.51-2.894c0.281,0.291,0.635,0.554,1.055,0.787c0.422,0.234,0.873,0.433,1.355,0.596
				c0.486,0.156,0.975,0.281,1.477,0.365c0.5,0.092,0.977,0.137,1.41,0.137c1.516,0,2.691-0.28,3.533-0.842
				c0.848-0.563,1.357-1.367,1.543-2.42c0.102-0.563,0.063-1.059-0.109-1.475c-0.176-0.42-0.451-0.808-0.826-1.152
				c-0.381-0.346-0.836-0.676-1.383-0.992c-0.547-0.313-1.127-0.649-1.76-1.002c-0.668-0.369-1.287-0.739-1.854-1.121
				c-0.563-0.381-1.037-0.803-1.428-1.258c-0.387-0.461-0.66-0.977-0.826-1.563c-0.166-0.576-0.18-1.259-0.045-2.035
				c0.17-0.951,0.523-1.789,1.064-2.494c0.547-0.701,1.197-1.289,1.965-1.744c0.764-0.461,1.6-0.801,2.508-1.021
				c0.911-0.228,1.82-0.336,2.729-0.336c2.064,0,3.531,0.245,4.383,0.748l-0.482,2.76c-1.088-0.857-2.604-1.287-4.541-1.287
				c-0.535,0-1.082,0.055-1.641,0.17c-0.555,0.109-1.061,0.295-1.525,0.547c-0.461,0.25-0.857,0.58-1.191,0.978
				c-0.336,0.399-0.557,0.887-0.658,1.463c-0.094,0.537-0.072,0.998,0.059,1.389c0.135,0.391,0.364,0.746,0.701,1.066
				c0.324,0.325,0.744,0.637,1.258,0.938c0.506,0.301,1.092,0.631,1.764,0.998c0.683,0.369,1.328,0.762,1.924,1.166
				c0.604,0.406,1.111,0.863,1.533,1.359c0.416,0.5,0.721,1.047,0.912,1.651c0.188,0.603,0.215,1.299,0.074,2.078
				c-0.182,1.027-0.535,1.904-1.066,2.621c-0.526,0.711-1.178,1.303-1.938,1.744c-0.771,0.451-1.619,0.774-2.553,0.971
				c-0.938,0.207-1.893,0.303-2.891,0.303c-0.33,0-0.732-0.024-1.213-0.079c-0.479-0.052-0.961-0.132-1.447-0.236
				c-0.492-0.096-0.947-0.226-1.379-0.381C406.102,193.143,405.766,192.973,405.525,192.787z"/>
			<path fill="#FFFFFF" d="M433.366,193.633H422.26l3.695-20.959H436.6l-0.391,2.221h-8.188l-1.232,6.976h7.57l-0.385,2.205h-7.57
				l-1.299,7.34h8.654L433.366,193.633z M436.13,165.961l-4.682,4.799h-1.854l4.105-4.799H436.13z"/>
			<path fill="#FFFFFF" d="M453.995,193.984c-2.971,0-5.182-0.977-6.623-2.938c-1.441-1.959-1.891-4.508-1.338-7.646
				c0.598-3.373,1.984-6.063,4.158-8.065c2.18-2.01,4.834-3.012,7.971-3.012c2.896,0,5.059,0.971,6.484,2.92
				c1.424,1.948,1.859,4.5,1.303,7.643c-0.602,3.426-1.982,6.131-4.146,8.115C459.639,192.992,457.036,193.984,453.995,193.984z
				 M457.598,174.543c-2.203,0-4.133,0.797-5.785,2.385c-1.654,1.59-2.707,3.668-3.162,6.254c-0.457,2.586-0.156,4.66,0.912,6.232
				c1.057,1.573,2.67,2.364,4.824,2.364c2.301,0,4.244-0.752,5.832-2.25c1.594-1.502,2.625-3.604,3.098-6.303
				c0.49-2.766,0.225-4.91-0.797-6.42C461.503,175.301,459.857,174.543,457.598,174.543z"/>
			<path fill="#FFFFFF" d="M468.182,193.633l3.697-20.959h5.963c1.813,0,3.17,0.441,4.078,1.328c0.904,0.887,1.23,2.039,0.98,3.463
				c-0.207,1.188-0.717,2.225-1.514,3.102s-1.795,1.504-2.992,1.873l-0.01,0.058c1.383,0.166,2.426,0.696,3.109,1.604
				c0.688,0.902,0.908,2.068,0.652,3.515c-0.316,1.793-1.219,3.245-2.695,4.354c-1.482,1.111-3.207,1.668-5.166,1.668h-6.104
				L468.182,193.633L468.182,193.633z M472.359,183.867l-1.332,7.547h3.332c1.441,0,2.619-0.342,3.537-1.027
				c0.912-0.682,1.473-1.619,1.684-2.807c0.438-2.47-1.025-3.713-4.398-3.713H472.359z M473.943,174.895l-1.197,6.771h2.516
				c1.344,0,2.461-0.326,3.348-0.972c0.883-0.651,1.428-1.563,1.633-2.741c0.361-2.039-0.797-3.058-3.477-3.058H473.943z"/>
			<path fill="#FFFFFF" d="M500.366,193.633h-2.926l-2.471-5.877c-0.227-0.547-0.449-1.008-0.691-1.394
				c-0.229-0.387-0.482-0.7-0.762-0.94c-0.271-0.246-0.58-0.422-0.926-0.537c-0.348-0.109-0.746-0.166-1.207-0.166h-2.018
				l-1.57,8.914h-2.455l3.695-20.959h6.256c0.914,0,1.74,0.111,2.475,0.342c0.736,0.23,1.348,0.576,1.834,1.047
				c0.49,0.467,0.832,1.049,1.031,1.744c0.193,0.695,0.211,1.521,0.051,2.449c-0.131,0.729-0.361,1.397-0.682,2.01
				c-0.33,0.611-0.736,1.152-1.229,1.629c-0.486,0.48-1.049,0.888-1.68,1.224c-0.631,0.342-1.313,0.596-2.056,0.78l-0.011,0.062
				c0.32,0.156,0.592,0.33,0.816,0.531c0.221,0.2,0.432,0.436,0.609,0.711c0.188,0.271,0.367,0.582,0.531,0.928
				c0.166,0.346,0.355,0.746,0.559,1.207L500.366,193.633z M491.104,174.895l-1.344,7.603h3.332c0.609,0,1.199-0.09,1.754-0.281
				c0.557-0.18,1.053-0.445,1.494-0.791c0.439-0.346,0.811-0.771,1.115-1.271c0.303-0.508,0.508-1.067,0.615-1.688
				c0.201-1.121-0.01-1.998-0.625-2.625c-0.609-0.627-1.607-0.941-2.98-0.941h-3.361V174.895z"/>
			<path fill="#FFFFFF" d="M514.357,193.633h-11.109l3.699-20.959h10.643l-0.393,2.221h-8.186l-1.234,6.976h7.572l-0.388,2.205
				h-7.569l-1.297,7.34h8.65L514.357,193.633z"/>
			<path fill="#FFFFFF" d="M533.417,193.633h-2.928l-2.471-5.877c-0.225-0.547-0.449-1.008-0.691-1.394
				c-0.229-0.387-0.482-0.7-0.76-0.94c-0.271-0.246-0.582-0.422-0.928-0.537c-0.346-0.109-0.746-0.166-1.207-0.166h-2.016
				l-1.572,8.914h-2.455l3.697-20.959h6.254c0.916,0,1.742,0.111,2.475,0.342c0.736,0.23,1.35,0.576,1.834,1.047
				c0.49,0.467,0.832,1.049,1.031,1.744c0.195,0.695,0.211,1.521,0.051,2.449c-0.131,0.729-0.361,1.397-0.682,2.01
				c-0.33,0.611-0.736,1.152-1.229,1.629c-0.484,0.48-1.049,0.888-1.68,1.224c-0.631,0.342-1.313,0.596-2.055,0.78l-0.012,0.062
				c0.32,0.156,0.594,0.33,0.816,0.531c0.221,0.2,0.432,0.436,0.611,0.711c0.186,0.271,0.365,0.582,0.529,0.928
				c0.166,0.346,0.355,0.746,0.559,1.207L533.417,193.633z M524.152,174.895l-1.342,7.603h3.33c0.611,0,1.199-0.09,1.754-0.281
				c0.557-0.18,1.053-0.445,1.494-0.791c0.439-0.346,0.811-0.771,1.117-1.271c0.301-0.508,0.506-1.067,0.613-1.688
				c0.201-1.121-0.01-1.998-0.625-2.625c-0.609-0.627-1.607-0.941-2.98-0.941h-3.361V174.895L524.152,174.895z"/>
			<path fill="#FFFFFF" d="M544.689,193.984c-2.971,0-5.18-0.977-6.623-2.938c-1.442-1.959-1.889-4.508-1.338-7.646
				c0.596-3.373,1.984-6.063,4.158-8.065c2.18-2.01,4.836-3.012,7.973-3.012c2.896,0,5.057,0.971,6.479,2.92
				c1.428,1.948,1.861,4.5,1.313,7.643c-0.605,3.426-1.99,6.131-4.154,8.115C550.331,192.992,547.732,193.984,544.689,193.984z
				 M548.294,174.543c-2.205,0-4.137,0.797-5.787,2.385c-1.654,1.59-2.705,3.668-3.162,6.254c-0.455,2.586-0.154,4.66,0.912,6.232
				c1.057,1.573,2.67,2.364,4.822,2.364c2.303,0,4.244-0.752,5.834-2.25c1.594-1.502,2.619-3.604,3.104-6.303
				c0.484-2.766,0.219-4.91-0.803-6.42C552.191,175.301,550.553,174.543,548.294,174.543z"/>
			<path fill="#FFFFFF" d="M565.259,172.324l-3.197,6.52h-1.723l2.771-6.52H565.259z M569.702,172.324l-3.195,6.52h-1.727
				l2.729-6.52H569.702z"/>
		</g>
	</g>
	<rect x="166.021" y="152.994" fill="#FFFFFF" width="404.879" height="5.524"/>
	<g>
		<g>
			<path fill="#FFFFFF" d="M66.834,136.514c5.712,0.313,11.019-2.055,14.956-6.207c2.114-2.192,3.828-4.885,5.01-7.94l-7.31-0.4
				c-0.728,1.357-1.613,2.59-2.621,3.652c-2.591,2.711-6.032,4.295-9.67,4.094c-3.646-0.211-6.869-2.18-9.154-5.135
				c-1.652-2.195-2.82-4.922-3.292-7.929l25.793-0.057l0.035-6.828l-25.688,0.08c0.683-3.512,2.274-6.574,4.464-8.864
				c2.604-2.705,6.019-4.277,9.66-4.094c3.644,0.221,6.875,2.155,9.164,5.131c1.002,1.323,1.833,2.5,2.42,4.168l7.029-0.028
				c-0.832-3.081-2.225-5.897-4.039-8.258c-3.462-4.56-8.479-7.501-14.188-7.802c-5.731-0.33-11.013,2.061-14.971,6.173
				c-3.809,3.988-6.349,9.598-6.704,15.904c-0.347,6.297,1.56,12.154,4.91,16.52C56.102,133.242,61.107,136.184,66.834,136.514z"/>
			<path fill="#FFFFFF" d="M88.855,95.559c5.712,0.312,11.014-2.074,14.956-6.192c5.426-5.667,7.642-13.93,6.397-21.574
				l-33.089,0.18c0.761-3.131,2.266-5.862,4.27-7.946c2.564-2.729,6.008-4.278,9.659-4.084c3.613,0.206,6.813,2.125,9.09,5.057
				l7.941-0.04c-0.69-1.442-1.522-2.796-2.479-4.02c-3.462-4.533-8.458-7.484-14.175-7.82c-5.727-0.315-11.027,2.08-14.977,6.192
				c-3.809,3.983-6.349,9.601-6.675,15.918c-0.125,1.885-0.021,3.769,0.275,5.566l33.255-0.731
				c-0.728,3.407-2.296,6.368-4.425,8.613c-2.585,2.69-6.002,4.269-9.659,4.068c-3.644-0.217-6.859-2.141-9.154-5.126l-0.016-0.035
				l-7.926,0.024c0.73,1.493,1.567,2.876,2.541,4.145C78.123,92.286,83.133,95.238,88.855,95.559z"/>
			<path fill="#FFFFFF" d="M98.831,96.225c-3.817,3.988-6.354,9.602-6.704,15.878c-0.354,6.34,1.543,12.164,4.896,16.564
				c3.468,4.528,8.479,7.49,14.188,7.785c5.712,0.319,11.022-2.063,14.972-6.188c2.114-2.193,3.809-4.885,4.996-7.916l-7.541,0.017
				c-0.672,1.178-1.469,2.26-2.375,3.2c-2.585,2.687-6.019,4.283-9.676,4.099c-3.646-0.215-6.875-2.148-9.153-5.146
				c-2.386-3.131-3.738-7.385-3.468-12.004c0.241-4.66,2.063-8.732,4.78-11.589c2.591-2.716,6.019-4.284,9.666-4.059
				c3.637,0.17,6.869,2.108,9.153,5.091c0.997,1.326,1.818,2.85,2.42,4.504l7.115-0.01c-0.827-3.232-2.24-6.159-4.119-8.619
				c-3.473-4.529-8.462-7.485-14.199-7.796C108.055,89.701,102.764,92.102,98.831,96.225z"/>
			<polygon fill="#FFFFFF" points="90.002,125.932 86.585,129.58 86.565,161.477 93.379,161.477 93.234,129.5 			"/>
			<path fill="#FFFFFF" d="M135.146,118.932l-3.968,0.006h-7.541h-1.578h-0.392l-0.189,0.365l-0.782,1.363l-0.015-0.017
				c-0.131,0.263-0.271,0.472-0.401,0.673c-0.159,0.245-0.311,0.467-0.466,0.69c-0.175,0.221-0.355,0.437-0.496,0.615
				c-0.154,0.211-0.331,0.387-0.521,0.586c-0.517,0.527-1.063,0.998-1.617,1.408c-0.582,0.399-1.168,0.713-1.779,0.967
				c-0.565,0.252-1.162,0.438-1.777,0.547c-0.603,0.09-1.219,0.135-1.845,0.09c-0.626-0.022-1.232-0.131-1.818-0.305
				c-0.591-0.172-1.179-0.412-1.708-0.723c-0.591-0.32-1.133-0.728-1.64-1.173c-0.521-0.477-1.012-0.998-1.479-1.577
				c-0.466-0.64-0.906-1.328-1.268-2.064c-0.371-0.746-0.691-1.549-0.923-2.381c-0.255-0.812-0.421-1.688-0.521-2.574
				c-0.09-0.877-0.109-1.795-0.069-2.752c0.061-0.939,0.189-1.848,0.381-2.686c0.181-0.906,0.467-1.748,0.787-2.546
				c0.347-0.791,0.73-1.526,1.183-2.237c0.45-0.697,0.946-1.334,1.508-1.926c0.501-0.541,1.047-1.007,1.619-1.401
				c0.557-0.401,1.162-0.736,1.759-1.002c0.576-0.23,1.178-0.393,1.789-0.518c0.592-0.104,1.212-0.14,1.85-0.104
				c0.615,0.035,1.229,0.155,1.823,0.321c0.587,0.159,1.174,0.404,1.709,0.711v0.016c0.576,0.319,1.122,0.711,1.648,1.162
				c0.521,0.456,1.012,0.978,1.452,1.567c0.189,0.262,0.376,0.521,0.576,0.793c0.175,0.295,0.336,0.575,0.506,0.881
				c0.155,0.311,0.32,0.631,0.446,0.946c0.175,0.33,0.28,0.632,0.375,0.951l0.661,1.813l0.166,0.457h0.48h1.914l7.115-0.035h3.521
				h0.876l-0.226-0.852l-0.872-3.394c-0.215-0.887-0.501-1.79-0.815-2.641c-0.306-0.867-0.667-1.714-1.063-2.546
				c-0.392-0.826-0.837-1.628-1.303-2.399c-0.48-0.802-0.987-1.528-1.533-2.25c-1.026-1.343-2.181-2.59-3.438-3.662
				c-1.248-1.072-2.604-2.005-4.022-2.826c-1.434-0.771-2.945-1.393-4.495-1.849c-1.543-0.438-3.115-0.728-4.76-0.822
				c-0.917-0.035-1.84-0.035-2.746,0.035c-0.406,0.04-0.816,0.075-1.224,0.131c0.451-0.771,0.856-1.559,1.238-2.34
				c0.596-1.293,1.092-2.611,1.492-3.964l0,0c0.626-2.14,1.026-4.354,1.162-6.578c0.142-2.23,0.035-4.46-0.314-6.654l0,0
				c0,0-0.194-1.077-0.69-3.271c-0.467-2.149-1.739-4.46-1.739-4.46c-0.187-0.392-0.386-0.786-0.615-1.229
				c-0.229-0.391-0.437-0.807-0.688-1.183c-0.261-0.38-0.496-0.776-0.757-1.146h0.016c-0.267-0.365-0.536-0.741-0.808-1.083
				c-1.017-1.356-2.165-2.569-3.411-3.667c-1.231-1.071-2.575-2.01-4.033-2.801c-1.407-0.771-2.926-1.424-4.488-1.874
				c-1.533-0.44-3.133-0.712-4.756-0.822c-1.618-0.085-3.252,0.021-4.812,0.291c-1.612,0.285-3.167,0.746-4.688,1.354
				c-1.508,0.621-2.945,1.434-4.304,2.35c-1.363,0.942-2.646,2.035-3.813,3.277c-1.122,1.157-2.146,2.47-3.052,3.853
				c-0.901,1.373-1.692,2.861-2.345,4.421c-0.642,1.503-1.152,3.115-1.533,4.77c-0.376,1.639-0.605,3.287-0.707,5.021
				c-0.034,0.48-0.045,0.986-0.045,1.537c0,0.518,0.011,1.067,0.045,1.604c0.035,0.537,0.056,1.087,0.109,1.588l0,0
				c0.07,0.552,0.136,1.072,0.2,1.554l0,0l0.387,2.36l0.079,0.53l0.957,2.78l0.973,2.09c0.201,0.392,0.411,0.826,0.643,1.258
				c0.069,0.131,0.135,0.261,0.215,0.381c-1.639-0.095-3.241,0.016-4.8,0.274c-1.619,0.271-3.157,0.753-4.67,1.358
				c-1.528,0.626-2.981,1.428-4.319,2.354c-1.377,0.951-2.64,2.033-3.813,3.262c-1.106,1.178-2.148,2.439-3.052,3.868
				c-0.917,1.388-1.692,2.852-2.351,4.41c-0.616,1.498-1.146,3.115-1.533,4.754c-0.36,1.645-0.615,3.307-0.722,5.041
				c-0.091,1.729-0.035,3.407,0.149,5.051c0.21,1.709,0.546,3.356,1.013,4.926c0.476,1.598,1.082,3.16,1.828,4.648
				c0.763,1.481,1.645,2.871,2.609,4.159c1.037,1.326,2.187,2.568,3.438,3.646c1.241,1.076,2.601,2.029,4.032,2.836
				c1.418,0.781,2.921,1.406,4.495,1.863c1.543,0.436,3.126,0.727,4.75,0.797c1.647,0.115,3.231,0,4.819-0.275
				c1.608-0.271,3.162-0.739,4.686-1.354c1.458-0.597,2.842-1.354,4.153-2.244c0.878-0.605,1.725-1.264,2.521-1.99l-0.011,27.373
				v2.721l0.011,0.701h0.682h2.727l6.813,0.013h2.741h0.671v-0.707l-0.005-2.728l-0.142-28.129c0.563,0.58,1.151,1.111,1.759,1.594
				c1.072,0.861,2.194,1.607,3.367,2.25c1.438,0.804,2.937,1.441,4.488,1.867c1.549,0.447,3.132,0.729,4.771,0.818
				s3.242-0.017,4.814-0.277c1.599-0.285,3.188-0.74,4.686-1.367c1.509-0.608,2.946-1.412,4.295-2.344
				c1.357-0.947,2.646-2.061,3.827-3.252c0.605-0.643,1.179-1.313,1.715-2.021c0.565-0.707,1.076-1.438,1.558-2.198
				c0.467-0.771,0.922-1.55,1.328-2.361c0.396-0.814,0.763-1.652,1.104-2.514l1.434-3.709l0.365-0.927L135.146,118.932z
				 M133.082,123.076c-0.312,0.801-0.671,1.606-1.053,2.358c-0.386,0.769-0.807,1.523-1.258,2.244
				c-0.466,0.736-0.957,1.435-1.474,2.115c-0.516,0.641-1.063,1.271-1.628,1.889c-1.111,1.152-2.34,2.189-3.607,3.099
				c-1.288,0.87-2.641,1.61-4.072,2.202c-1.398,0.576-2.871,1.019-4.374,1.265c-1.469,0.26-2.978,0.354-4.516,0.26
				c-1.543-0.064-3.021-0.32-4.449-0.766c-1.482-0.402-2.891-0.998-4.219-1.722c-1.112-0.631-2.165-1.348-3.15-2.133
				c-1.003-0.803-1.954-1.725-2.802-2.69l-1.218-1.349l0.015,1.806l0.131,29.819l0.034,2.07h-2.063H86.55l-2.021-0.017v-2.055
				v-28.961v-1.646l-1.161,1.162c-1.083,1.102-2.25,2.071-3.481,2.932c-1.259,0.842-2.575,1.537-3.919,2.119
				c-1.423,0.58-2.892,1.006-4.39,1.268c-1.479,0.256-2.98,0.324-4.515,0.275c-1.548-0.097-3.03-0.361-4.448-0.777
				c-1.474-0.426-2.882-1.002-4.22-1.748c-1.357-0.717-2.61-1.629-3.804-2.641c-1.172-1.037-2.265-2.189-3.235-3.474
				c-0.927-1.196-1.77-2.539-2.479-3.938c-0.69-1.394-1.282-2.855-1.729-4.42c-0.461-1.523-0.781-3.07-0.978-4.68
				c-0.166-1.585-0.227-3.183-0.13-4.855c0.096-1.643,0.307-3.236,0.671-4.785c0.371-1.578,0.856-3.102,1.474-4.543
				c0.621-1.503,1.362-2.896,2.209-4.188c0.872-1.313,1.844-2.552,2.917-3.663c1.092-1.162,2.299-2.176,3.577-3.081
				c1.282-0.877,2.649-1.629,4.067-2.221c1.423-0.57,2.881-1.018,4.398-1.271c1.448-0.256,2.961-0.336,4.499-0.256
				c0.246,0,0.461,0.02,0.622,0.03c0.2,0,0.386,0.055,0.605,0.079l1.402,0.155l-0.73-1.197l-0.206-0.352l0,0
				c-0.221-0.355-0.44-0.731-0.646-1.117c-0.194-0.37-0.4-0.771-0.602-1.223l0,0l-1.383-2.886l3.207-0.016l7.926-0.03h1.027
				l0.25,0.331h-0.016l0.4,0.517c0.486,0.656,1.037,1.242,1.628,1.769c0.606,0.531,1.229,0.967,1.869,1.349
				c0.661,0.346,1.316,0.637,2.009,0.842c0.678,0.181,1.394,0.326,2.12,0.366c0.728,0.029,1.463-0.021,2.155-0.132
				c0.716-0.125,1.402-0.329,2.063-0.615c0.696-0.312,1.383-0.682,2.028-1.122c0.65-0.472,1.259-0.997,1.824-1.604
				c0.477-0.471,0.896-1.021,1.333-1.588c0.391-0.576,0.756-1.173,1.092-1.829l0,0c0.075-0.135,0.125-0.261,0.146-0.306l0,0
				c0.056-0.09,0.102-0.21,0.161-0.352l0.44-0.981l-1.072,0.035l-29.427,0.628l-1.783,0.04l-0.275-1.749
				c-0.069-0.496-0.149-1.012-0.199-1.483c-0.051-0.511-0.081-1.012-0.11-1.538c-0.021-0.501-0.034-1.021-0.034-1.532
				c0-0.485,0.005-0.963,0.034-1.493c0.085-1.628,0.321-3.228,0.672-4.771c0.365-1.554,0.861-3.105,1.468-4.555
				c0.622-1.479,1.368-2.876,2.21-4.193c0.877-1.323,1.85-2.546,2.906-3.658c1.106-1.151,2.31-2.18,3.611-3.062
				c1.269-0.911,2.635-1.644,4.063-2.234c1.402-0.581,2.866-0.997,4.374-1.281c1.474-0.23,2.98-0.336,4.516-0.241
				c1.538,0.069,3.03,0.346,4.459,0.747c1.452,0.436,2.876,1.017,4.219,1.754c1.333,0.729,2.604,1.613,3.783,2.649
				c1.172,1.037,2.266,2.181,3.235,3.457c0.246,0.342,0.496,0.678,0.747,1.032c0.25,0.37,0.466,0.728,0.711,1.067
				c0.241,0.399,0.44,0.775,0.643,1.162c0.215,0.341,0.4,0.735,0.597,1.133l1.407,2.931h-3.256l-7.941,0.016h-1.002L98.53,62.26
				c-0.501-0.661-1.052-1.228-1.647-1.773c-0.586-0.506-1.207-0.946-1.854-1.308c-0.642-0.351-1.303-0.626-1.999-0.827
				c-0.672-0.205-1.383-0.325-2.114-0.37c-0.717-0.034-1.442,0.011-2.135,0.12c-0.701,0.146-1.407,0.336-2.079,0.616
				c-0.69,0.33-1.384,0.682-2.015,1.152c-0.65,0.445-1.269,0.986-1.85,1.563c-0.421,0.466-0.837,0.962-1.224,1.503
				c-0.376,0.521-0.73,1.082-1.057,1.685l0,0l-0.075,0.134v0.011l-0.074,0.146l-0.517,1.003h1.123l29.187-0.166h1.754l0.271,1.709
				l0,0c0.355,2.108,0.451,4.237,0.32,6.362c-0.142,2.114-0.511,4.209-1.111,6.259c-0.396,1.303-0.856,2.564-1.442,3.777
				c-0.557,1.192-1.192,2.346-1.935,3.468l-0.902,1.356l1.608-0.33c0.842-0.155,1.709-0.266,2.55-0.336
				c0.842-0.07,1.708-0.07,2.585-0.035c1.543,0.105,3.025,0.355,4.449,0.768c1.492,0.416,2.896,1.021,4.219,1.744
				c1.354,0.735,2.621,1.612,3.798,2.635c1.169,1.037,2.275,2.194,3.237,3.478c0.521,0.683,0.992,1.378,1.458,2.114
				c0.445,0.736,0.847,1.498,1.231,2.275c0.396,0.795,0.723,1.617,1.031,2.448c0.28,0.803,0.547,1.641,0.771,2.5l0.641,2.554h-2.625
				h-7.125h-1.428l-0.501-1.351c-0.12-0.346-0.262-0.688-0.416-1.031c-0.17-0.358-0.331-0.717-0.496-1.057
				c-0.2-0.342-0.381-0.663-0.565-0.948c-0.206-0.306-0.421-0.592-0.637-0.887c-0.496-0.662-1.052-1.264-1.645-1.784
				c-0.596-0.525-1.229-0.977-1.879-1.343l0,0c-0.646-0.36-1.298-0.642-1.999-0.852c-0.677-0.165-1.397-0.307-2.125-0.347
				c-0.73-0.035-1.453,0-2.148,0.13c-0.717,0.12-1.413,0.342-2.063,0.606c-0.711,0.315-1.378,0.677-2.023,1.138
				c-0.657,0.477-1.259,0.992-1.839,1.583c-0.606,0.621-1.169,1.338-1.659,2.102c-0.496,0.77-0.933,1.624-1.292,2.479
				c-0.36,0.871-0.662,1.799-0.867,2.746c-0.22,0.941-0.352,1.928-0.405,2.937c-0.061,1.004-0.021,2,0.074,2.956
				c0.11,0.974,0.296,1.921,0.571,2.826c0.246,0.906,0.596,1.765,0.986,2.58c0.437,0.836,0.907,1.604,1.423,2.306
				c0.512,0.641,1.054,1.235,1.654,1.772c0.591,0.512,1.229,0.973,1.869,1.342c0.655,0.343,1.322,0.64,2.015,0.845
				c0.672,0.188,1.394,0.313,2.108,0.37c0.731,0.015,1.469,0,2.154-0.143c0.711-0.135,1.407-0.334,2.079-0.609
				c0.701-0.303,1.388-0.69,2.023-1.147c0.65-0.439,1.263-0.978,1.823-1.582c0.181-0.16,0.376-0.387,0.582-0.607
				c0.176-0.237,0.371-0.465,0.536-0.682c0.175-0.26,0.352-0.49,0.512-0.762c0.17-0.25,0.325-0.5,0.471-0.73h-0.01l0.575-1.033
				h1.192l7.541-0.026h2.98L133.082,123.076z M81.735,80.177l16.67-0.602c-0.239,0.439-0.485,0.882-0.781,1.258
				c-0.352,0.546-0.762,1.017-1.188,1.473c-0.521,0.526-1.058,0.997-1.633,1.394c-0.566,0.4-1.163,0.731-1.773,1.008
				c-0.563,0.24-1.146,0.404-1.778,0.506c-0.586,0.12-1.208,0.15-1.829,0.12c-0.642-0.05-1.236-0.15-1.823-0.315
				c-0.605-0.186-1.178-0.411-1.708-0.727c-0.586-0.315-1.133-0.707-1.647-1.152c-0.387-0.366-0.771-0.762-1.117-1.178l-0.341-0.405
				l-0.024-0.046v0.005l-0.798-1.071L81.735,80.177z M98.475,64.413l-16.289,0.114c0.175-0.271,0.335-0.541,0.53-0.815
				c0.347-0.456,0.717-0.917,1.128-1.317c0.516-0.552,1.063-1.013,1.612-1.438c0.57-0.387,1.173-0.716,1.778-0.978
				c0.565-0.229,1.153-0.431,1.779-0.521c0.596-0.101,1.218-0.146,1.834-0.105c0.621,0.025,1.231,0.131,1.799,0.313
				c0.597,0.17,1.183,0.404,1.703,0.706c0.582,0.331,1.138,0.722,1.645,1.156c0.506,0.446,1.012,0.979,1.452,1.55l0.832,1.052
				L98.475,64.413z"/>
			<path fill="#FFFFFF" d="M79.024,106.863c-0.125-0.336-0.267-0.643-0.411-0.934c-0.146-0.285-0.301-0.57-0.461-0.836
				c-0.171-0.285-0.371-0.582-0.603-0.887l0,0c-0.21-0.301-0.421-0.605-0.655-0.883c-0.496-0.66-1.042-1.264-1.645-1.772
				c-0.586-0.516-1.212-0.972-1.874-1.348c-0.636-0.355-1.313-0.651-2.004-0.837c-0.683-0.222-1.384-0.325-2.125-0.392
				c-0.736-0.01-1.448,0.016-2.148,0.146c-0.707,0.12-1.403,0.33-2.069,0.596c-0.711,0.311-1.383,0.696-2.028,1.152
				c-0.642,0.467-1.248,0.973-1.813,1.563c-0.496,0.518-0.941,1.072-1.354,1.658h-0.01c-0.406,0.587-0.802,1.203-1.112,1.878l0,0
				c-0.104,0.156-0.175,0.316-0.215,0.447l0,0c-0.075,0.153-0.146,0.305-0.222,0.465l-0.405,0.957h1.042l19.465-0.064h0.973
				L79.024,106.863z M59.985,106.471c0.285-0.551,0.611-1.092,0.957-1.592l0,0c0.38-0.542,0.781-1.033,1.218-1.499
				c0.516-0.512,1.063-0.997,1.628-1.398c0.562-0.399,1.156-0.735,1.759-0.997c0.571-0.234,1.173-0.404,1.784-0.524
				c0.596-0.096,1.223-0.142,1.854-0.096c0.621,0.039,1.247,0.131,1.804,0.306c0.602,0.149,1.178,0.421,1.725,0.712
				c0.576,0.324,1.106,0.716,1.639,1.177c0.517,0.446,1.002,0.987,1.468,1.6c0.216,0.274,0.446,0.557,0.632,0.848
				c0.195,0.26,0.381,0.512,0.535,0.797c0.115,0.189,0.246,0.4,0.352,0.615L59.985,106.471z"/>
			<path fill="#FFFFFF" d="M78.153,118.701l-19.546,0.024h-0.991l0.365,0.928l0.096,0.234v0.012l0.079,0.254h0.016
				c0.25,0.587,0.541,1.152,0.836,1.693c0.302,0.531,0.638,1.033,1.008,1.527c0.49,0.633,1.052,1.248,1.647,1.764
				c0.591,0.537,1.218,0.998,1.884,1.35c0.646,0.371,1.304,0.642,1.994,0.847c0.682,0.197,1.394,0.346,2.124,0.36
				c0.73,0.035,1.438,0,2.141-0.131c0.727-0.119,1.412-0.323,2.073-0.604c0.707-0.295,1.394-0.683,2.034-1.127
				c0.646-0.451,1.269-0.986,1.823-1.564c0.229-0.26,0.439-0.516,0.661-0.746c0.222-0.266,0.411-0.516,0.586-0.77
				c0.177-0.262,0.355-0.527,0.552-0.822c0.16-0.281,0.341-0.58,0.485-0.881l0.742-1.348l0.53-0.998h-1.141L78.153,118.701
				L78.153,118.701z M76.83,120.416c-0.136,0.295-0.307,0.561-0.467,0.797c-0.164,0.266-0.33,0.506-0.495,0.75l0,0
				c-0.155,0.229-0.342,0.467-0.521,0.668c-0.187,0.244-0.387,0.465-0.597,0.67c-0.506,0.553-1.058,1.02-1.618,1.414
				c-0.563,0.396-1.143,0.721-1.778,0.996c-0.562,0.221-1.158,0.426-1.773,0.502c-0.592,0.109-1.212,0.16-1.834,0.109
				c-0.637-0.029-1.247-0.125-1.813-0.296c-0.597-0.172-1.184-0.422-1.729-0.727c-0.571-0.316-1.123-0.727-1.653-1.174
				c-0.517-0.451-1.002-0.996-1.442-1.572c-0.331-0.451-0.646-0.908-0.912-1.379c-0.21-0.35-0.38-0.705-0.556-1.076l17.391-0.045
				L76.83,120.416z"/>
		</g>
	</g>
	<path fill="#FFFFFF" d="M95.078,189.742c-37.288,0-66.784-13.779-68.618-14.662l-2.079-0.996V14.014l4.409,1.032
		c0.597,0.14,60.541,13.788,123.479,0.354c0,0,2.682-0.205,3.599,0.091c11.322,2.335,65.887,12.211,123.15-0.456l4.375-0.968v4.569
		c0,8.338,0.05,14.24,0.125,22.492l0.035,4.233l-7.216,0.069l-0.034-4.238c-0.056-6.709-0.101-8.183-0.115-14.345
		c-57.601,11.659-111.467,1.685-122.075-0.521c-0.204,0-0.45,0.015-0.62,0.029C99.007,37.908,46.793,29.711,31.596,26.821v138.813
		c11.56,4.875,69.158,26.586,120.688-0.432c0,0,1.482-1.027,3.086-0.101c7.456,2.98,66.773,28.283,120.853,0.67
		c0.074-3.125,0.141-0.43,0.2-1.307c0.061-1.043,0.12-1.896,0.161-6.404l7.21,0.07c-0.04,4.801-0.102,5.703-0.17,6.82
		c-0.069,1.002-0.142,2.174-0.229,6.856l-0.041,2.183l-1.89,1.012c-54.554,29.166-115.146,6.389-127.405,1.217
		C134.104,186.328,113.626,189.742,95.078,189.742z"/>
</g>
</svg>
