<?xml version="1.0" encoding="utf-8"?>
<!-- Generator: Adobe Illustrator 16.0.0, SVG Export Plug-In . SVG Version: 6.00 Build 0)  -->
<!DOCTYPE svg PUBLIC "-//W3C//DTD SVG 1.1//EN" "http://www.w3.org/Graphics/SVG/1.1/DTD/svg11.dtd">
<svg version="1.1" id="Capa_1" xmlns="http://www.w3.org/2000/svg" xmlns:xlink="http://www.w3.org/1999/xlink" x="0px" y="0px"
	 width="595.279px" height="209.764px" viewBox="0 52.765 595.279 209.764" enable-background="new 0 52.765 595.279 209.764"
	 xml:space="preserve">
<g>
	<g>
		<path fill="#0071B6" d="M144.594,207.395c9.123,0.503,17.561-3.273,23.824-9.884c3.383-3.514,6.112-7.789,7.985-12.652
			l-11.63-0.654c-1.153,2.181-2.573,4.124-4.189,5.825c-4.119,4.32-9.596,6.828-15.375,6.52c-5.851-0.327-10.976-3.469-14.621-8.182
			c-2.618-3.488-4.471-7.829-5.235-12.631l41.103-0.087l0.045-10.884l-40.927,0.131c1.087-5.588,3.62-10.452,7.109-14.117
			c4.149-4.3,9.601-6.807,15.406-6.5c5.8,0.327,10.951,3.423,14.59,8.156c1.597,2.095,2.925,3.973,3.841,6.635l11.212-0.045
			c-1.329-4.908-3.554-9.404-6.434-13.154c-5.518-7.265-13.503-11.958-22.601-12.436c-9.118-0.523-17.541,3.273-23.849,9.837
			c-6.087,6.349-10.12,15.295-10.689,25.329c-0.543,10.06,2.487,19.374,7.834,26.338
			C127.492,202.179,135.477,206.872,144.594,207.395z"/>
		<path fill="#0071B6" d="M179.676,142.141c9.123,0.503,17.566-3.318,23.85-9.863c8.64-9.032,12.174-22.208,10.185-34.362
			l-52.733,0.262c1.223-4.975,3.625-9.339,6.807-12.652c4.103-4.345,9.581-6.832,15.405-6.505c5.741,0.327,10.846,3.383,14.466,8.05
			l12.677-0.041c-1.112-2.316-2.446-4.476-3.972-6.415c-5.498-7.225-13.463-11.937-22.581-12.46
			c-9.119-0.524-17.566,3.298-23.85,9.863c-6.082,6.349-10.12,15.295-10.643,25.349c-0.197,3.011-0.021,6.001,0.433,8.881
			l52.995-1.158c-1.153,5.413-3.665,10.125-7.043,13.705c-4.123,4.274-9.581,6.807-15.405,6.479
			c-5.78-0.327-10.931-3.403-14.576-8.161l-0.02-0.044l-12.632,0.044c1.158,2.376,2.487,4.582,4.038,6.591
			C162.574,136.925,170.558,141.638,179.676,142.141z"/>
		<path fill="#0071B6" d="M195.58,143.188c-6.087,6.369-10.125,15.315-10.689,25.329c-0.568,10.079,2.467,19.353,7.809,26.376
			c5.523,7.221,13.508,11.933,22.605,12.416c9.119,0.498,17.562-3.298,23.864-9.862c3.363-3.516,6.067-7.789,7.945-12.633
			l-12.003,0.021c-1.087,1.898-2.356,3.6-3.796,5.105c-4.123,4.299-9.576,6.832-15.401,6.545
			c-5.825-0.347-10.951-3.424-14.595-8.202c-3.797-4.975-5.957-11.78-5.543-19.132c0.394-7.42,3.298-13.919,7.638-18.456
			c4.123-4.32,9.602-6.832,15.401-6.479c5.805,0.282,10.931,3.378,14.576,8.115c1.591,2.135,2.9,4.537,3.861,7.174l11.343-0.02
			c-1.329-5.15-3.574-9.797-6.565-13.724c-5.543-7.201-13.503-11.933-22.625-12.411C210.287,132.827,201.844,136.623,195.58,143.188
			z"/>
		<polygon fill="#0071B6" points="181.508,190.529 176.056,196.354 176.056,247.169 186.896,247.169 186.659,196.222 		"/>
		<path fill="#0071B6" d="M253.44,179.381l-6.324,0.021h-12.002h-2.507h-0.634l-0.302,0.567l-1.244,2.182l-0.025-0.041
			c-0.217,0.413-0.434,0.76-0.655,1.067c-0.261,0.392-0.498,0.765-0.74,1.112c-0.262,0.347-0.569,0.699-0.786,0.981
			c-0.261,0.327-0.523,0.61-0.83,0.937c-0.826,0.832-1.702,1.596-2.573,2.226c-0.916,0.654-1.852,1.158-2.834,1.55
			c-0.896,0.413-1.858,0.7-2.84,0.872c-0.957,0.155-1.938,0.221-2.92,0.155c-1.007-0.045-1.989-0.222-2.905-0.483
			c-0.937-0.282-1.898-0.654-2.724-1.153c-0.942-0.522-1.813-1.157-2.618-1.877c-0.831-0.741-1.616-1.572-2.357-2.508
			c-0.72-1.007-1.44-2.12-2.029-3.298c-0.569-1.179-1.072-2.462-1.465-3.797c-0.394-1.284-0.654-2.684-0.825-4.099
			c-0.131-1.399-0.177-2.859-0.111-4.385c0.085-1.485,0.307-2.925,0.589-4.28c0.307-1.439,0.741-2.768,1.263-4.058
			c0.549-1.264,1.178-2.441,1.898-3.553c0.7-1.113,1.505-2.114,2.401-3.057c0.786-0.871,1.657-1.611,2.573-2.266
			c0.896-0.635,1.857-1.158,2.813-1.571c0.897-0.373,1.858-0.634,2.84-0.831c0.957-0.176,1.938-0.216,2.945-0.176
			c1.002,0.065,1.964,0.262,2.9,0.523c0.962,0.261,1.878,0.654,2.729,1.138l0,0c0.917,0.523,1.788,1.153,2.618,1.873
			c0.825,0.721,1.611,1.571,2.332,2.487c0.307,0.418,0.589,0.851,0.916,1.268c0.288,0.479,0.549,0.917,0.811,1.395
			c0.237,0.503,0.498,1.026,0.695,1.505c0.288,0.544,0.458,1.027,0.615,1.525l1.068,2.905l0.241,0.72h0.761h3.057l11.342-0.065
			h5.609h1.395l-0.347-1.354l-1.395-5.412c-0.353-1.394-0.811-2.835-1.289-4.188c-0.523-1.395-1.093-2.749-1.701-4.058
			c-0.635-1.33-1.355-2.619-2.095-3.837c-0.766-1.269-1.571-2.421-2.442-3.58c-1.636-2.14-3.469-4.124-5.477-5.845
			c-1.984-1.702-4.144-3.188-6.394-4.496c-2.291-1.224-4.688-2.206-7.174-2.946c-2.447-0.7-4.955-1.158-7.572-1.309
			c-1.459-0.065-2.944-0.065-4.385,0.066c-0.655,0.065-1.289,0.106-1.944,0.216c0.72-1.243,1.375-2.487,1.964-3.75
			c0.962-2.054,1.747-4.168,2.382-6.308l0,0c1.001-3.423,1.635-6.938,1.852-10.492c0.242-3.535,0.066-7.114-0.503-10.583l0,0
			c0,0-0.302-1.721-1.088-5.211c-0.745-3.429-2.773-7.114-2.773-7.114c-0.302-0.634-0.629-1.243-0.982-1.963
			c-0.367-0.609-0.72-1.289-1.087-1.878c-0.418-0.609-0.786-1.244-1.204-1.833h0.026c-0.438-0.589-0.876-1.178-1.289-1.722
			c-1.637-2.16-3.47-4.103-5.453-5.845c-1.964-1.702-4.104-3.207-6.415-4.476c-2.25-1.219-4.672-2.246-7.159-2.986
			c-2.441-0.68-4.994-1.113-7.567-1.289c-2.598-0.131-5.195,0.045-7.682,0.458c-2.573,0.458-5.04,1.198-7.461,2.16
			c-2.421,0.982-4.692,2.271-6.847,3.751c-2.185,1.505-4.214,3.252-6.092,5.216c-1.762,1.853-3.423,3.927-4.863,6.132
			c-1.441,2.18-2.684,4.557-3.731,7.043c-1.021,2.382-1.833,4.975-2.441,7.592c-0.59,2.618-0.982,5.236-1.113,8.01
			c-0.065,0.76-0.085,1.57-0.085,2.441c0,0.831,0.02,1.702,0.085,2.573c0.045,0.851,0.085,1.727,0.177,2.513l0,0
			c0.085,0.891,0.216,1.721,0.302,2.487l0,0l0.614,3.73l0.131,0.871l1.525,4.431l1.547,3.312c0.307,0.635,0.654,1.335,1.026,2.009
			c0.111,0.197,0.221,0.413,0.327,0.609c-2.592-0.15-5.151,0.025-7.637,0.438c-2.573,0.438-5.035,1.198-7.437,2.16
			c-2.441,1.007-4.758,2.291-6.872,3.776c-2.205,1.505-4.234,3.227-6.087,5.19c-1.767,1.879-3.428,3.887-4.868,6.153
			c-1.44,2.206-2.684,4.562-3.73,7.029c-1.002,2.396-1.833,4.974-2.442,7.565c-0.589,2.644-0.981,5.282-1.133,8.031
			c-0.156,2.749-0.065,5.433,0.216,8.05c0.328,2.729,0.871,5.347,1.616,7.854c0.74,2.553,1.722,5.039,2.92,7.396
			c1.203,2.375,2.598,4.58,4.169,6.654c1.636,2.116,3.468,4.078,5.478,5.801c1.963,1.727,4.124,3.232,6.414,4.517
			c2.245,1.243,4.647,2.226,7.154,2.97c2.447,0.695,4.974,1.153,7.572,1.284c2.619,0.176,5.146,0,7.678-0.459
			c2.553-0.432,5.04-1.178,7.461-2.158c2.311-0.938,4.537-2.136,6.631-3.576c1.379-0.961,2.729-2.008,4.018-3.167l-0.044,43.616
			v4.339l0.025,1.113h1.087h4.365l10.841,0.021h4.365h1.072v-1.112v-4.36l-0.221-44.813c0.896,0.917,1.812,1.767,2.794,2.532
			c1.701,1.375,3.488,2.553,5.367,3.601c2.291,1.264,4.667,2.289,7.154,2.965c2.467,0.721,4.975,1.158,7.593,1.309
			c2.598,0.151,5.15-0.044,7.683-0.458c2.552-0.438,5.06-1.178,7.461-2.16c2.396-0.98,4.667-2.271,6.848-3.729
			c2.159-1.525,4.188-3.294,6.087-5.191c0.941-1.027,1.877-2.095,2.729-3.232c0.896-1.111,1.722-2.29,2.467-3.489
			c0.76-1.223,1.48-2.467,2.135-3.775c0.634-1.283,1.224-2.618,1.747-3.992l2.291-5.91l0.589-1.484L253.44,179.381z
			 M250.147,185.972c-0.479,1.309-1.068,2.572-1.683,3.771c-0.609,1.223-1.264,2.422-2.003,3.579
			c-0.72,1.18-1.505,2.291-2.336,3.359c-0.806,1.007-1.682,2.029-2.599,3.01c-1.767,1.858-3.73,3.495-5.759,4.955
			c-2.029,1.374-4.188,2.572-6.454,3.514c-2.25,0.917-4.582,1.592-6.984,1.984c-2.356,0.438-4.757,0.569-7.2,0.438
			c-2.467-0.111-4.798-0.525-7.089-1.225c-2.356-0.634-4.607-1.59-6.721-2.748c-1.767-1.002-3.448-2.14-5.02-3.403
			c-1.61-1.29-3.122-2.729-4.471-4.275l-1.943-2.159l0.046,2.88l0.216,47.518l0.046,3.292h-3.298H176.03l-3.227-0.02v-3.272v-46.144
			v-2.617l-1.878,1.853c-1.722,1.746-3.575,3.292-5.538,4.667c-2.009,1.333-4.103,2.446-6.217,3.362
			c-2.271,0.937-4.607,1.61-7.004,2.028c-2.356,0.395-4.758,0.524-7.2,0.434c-2.467-0.151-4.843-0.563-7.089-1.218
			c-2.356-0.7-4.606-1.618-6.722-2.796c-2.16-1.132-4.168-2.598-6.066-4.209c-1.853-1.661-3.6-3.494-5.151-5.523
			c-1.48-1.918-2.813-4.057-3.947-6.303c-1.112-2.205-2.049-4.536-2.749-7.023c-0.741-2.421-1.244-4.909-1.571-7.461
			c-0.262-2.533-0.348-5.086-0.196-7.724c0.15-2.618,0.478-5.17,1.068-7.638c0.588-2.508,1.354-4.928,2.336-7.244
			c1.001-2.376,2.18-4.601,3.534-6.676c1.375-2.094,2.925-4.058,4.626-5.825c1.768-1.853,3.686-3.469,5.714-4.909
			c2.03-1.395,4.209-2.593,6.48-3.535c2.271-0.917,4.582-1.616,7.003-2.029c2.316-0.413,4.732-0.523,7.179-0.413
			c0.393,0,0.74,0.041,0.982,0.065c0.328,0,0.629,0.066,0.982,0.105l2.226,0.242l-1.178-1.898l-0.308-0.569l0,0
			c-0.368-0.543-0.72-1.152-1.047-1.767c-0.308-0.589-0.629-1.219-0.962-1.938l0,0l-2.2-4.606l5.126-0.021l12.632-0.045h1.636
			l0.393,0.523h-0.02l0.609,0.81c0.786,1.047,1.682,1.984,2.618,2.835c0.962,0.831,1.943,1.525,2.971,2.139
			c1.047,0.564,2.114,1.002,3.201,1.329c1.093,0.307,2.226,0.524,3.384,0.589c1.159,0.045,2.336-0.021,3.424-0.216
			c1.138-0.177,2.25-0.524,3.298-0.962c1.112-0.503,2.2-1.093,3.228-1.787c1.026-0.766,2.009-1.596,2.9-2.578
			c0.765-0.74,1.465-1.611,2.12-2.507c0.634-0.917,1.223-1.878,1.746-2.9l0,0c0.131-0.262,0.217-0.438,0.237-0.503l0,0
			c0.091-0.15,0.156-0.348,0.261-0.569l0.721-1.545l-1.721,0.04l-46.883,0.982l-2.84,0.065l-0.458-2.769
			c-0.106-0.806-0.236-1.616-0.307-2.356c-0.085-0.806-0.131-1.616-0.171-2.441c-0.046-0.811-0.066-1.637-0.066-2.467
			c0-0.765,0.02-1.525,0.066-2.376c0.131-2.598,0.503-5.151,1.067-7.617c0.589-2.462,1.375-4.929,2.336-7.24
			c0.982-2.356,2.181-4.582,3.515-6.676c1.395-2.119,2.94-4.037,4.642-5.824c1.772-1.858,3.666-3.47,5.74-4.869
			c2.029-1.46,4.209-2.639,6.479-3.575c2.226-0.941,4.582-1.595,6.982-2.029c2.337-0.393,4.732-0.549,7.18-0.393
			c2.462,0.106,4.818,0.543,7.109,1.178c2.316,0.695,4.581,1.636,6.721,2.814c2.115,1.153,4.144,2.553,6.022,4.209
			c1.877,1.656,3.62,3.489,5.15,5.518c0.413,0.523,0.806,1.072,1.198,1.617c0.394,0.609,0.741,1.178,1.133,1.721
			c0.372,0.635,0.699,1.224,1.027,1.858c0.348,0.543,0.634,1.153,0.937,1.788l2.25,4.667h-5.17l-12.677,0.045h-1.591l-0.961-1.244
			c-0.786-1.027-1.662-1.963-2.619-2.814c-0.936-0.806-1.922-1.505-2.97-2.095c-1.022-0.568-2.07-1.001-3.182-1.309
			c-1.067-0.327-2.205-0.523-3.363-0.589c-1.132-0.046-2.286,0-3.403,0.196c-1.133,0.217-2.246,0.523-3.313,0.982
			c-1.112,0.523-2.205,1.092-3.207,1.833c-1.026,0.7-2.029,1.571-2.925,2.488c-0.695,0.74-1.349,1.525-1.964,2.376
			c-0.608,0.831-1.158,1.727-1.682,2.709l0,0l-0.131,0.196v0.021l-0.106,0.242l-0.83,1.591h1.792l46.49-0.262h2.794l0.458,2.729l0,0
			c0.544,3.338,0.695,6.742,0.499,10.12c-0.237,3.384-0.826,6.722-1.787,9.974c-0.609,2.069-1.375,4.098-2.291,6.021
			c-0.871,1.918-1.898,3.751-3.076,5.538l-1.44,2.16l2.553-0.544c1.354-0.241,2.729-0.413,4.058-0.523
			c1.354-0.131,2.729-0.131,4.124-0.066c2.467,0.176,4.844,0.589,7.089,1.223c2.401,0.674,4.626,1.636,6.721,2.794
			c2.159,1.153,4.188,2.553,6.066,4.209c1.852,1.636,3.6,3.489,5.145,5.518c0.832,1.093,1.596,2.186,2.316,3.363
			c0.72,1.178,1.349,2.397,1.983,3.641c0.609,1.289,1.158,2.578,1.616,3.887c0.458,1.284,0.892,2.618,1.244,3.991l1.022,4.058
			l-4.189,0.021h-11.343h-2.271l-0.785-2.16c-0.217-0.567-0.413-1.111-0.675-1.636c-0.281-0.589-0.523-1.156-0.785-1.681
			c-0.327-0.543-0.609-1.067-0.917-1.525c-0.327-0.479-0.655-0.937-1.002-1.42c-0.785-1.047-1.682-2.004-2.644-2.814
			c-0.936-0.851-1.938-1.571-2.965-2.16l0,0c-1.027-0.563-2.094-1.022-3.187-1.35c-1.088-0.261-2.225-0.483-3.403-0.548
			c-1.152-0.066-2.311,0-3.423,0.196c-1.133,0.221-2.246,0.568-3.293,0.981c-1.112,0.503-2.184,1.072-3.207,1.813
			c-1.072,0.74-2.009,1.57-2.945,2.507c-0.961,1.007-1.858,2.14-2.644,3.363c-0.785,1.218-1.48,2.572-2.048,3.946
			c-0.569,1.376-1.047,2.861-1.375,4.366c-0.372,1.506-0.569,3.075-0.654,4.688c-0.085,1.596-0.045,3.167,0.11,4.691
			c0.171,1.571,0.479,3.077,0.916,4.516c0.413,1.441,0.957,2.815,1.57,4.104c0.695,1.329,1.441,2.572,2.291,3.686
			c0.806,1.027,1.657,1.964,2.619,2.814c0.937,0.806,1.938,1.55,2.985,2.14c1.028,0.544,2.095,1.022,3.207,1.349
			c1.072,0.288,2.207,0.505,3.363,0.59c1.153,0.025,2.332,0,3.424-0.216c1.133-0.216,2.246-0.544,3.318-0.982
			c1.112-0.479,2.2-1.093,3.207-1.832c1.047-0.699,2.029-1.55,2.919-2.507c0.287-0.288,0.59-0.635,0.916-0.982
			c0.288-0.372,0.59-0.745,0.876-1.093c0.262-0.392,0.544-0.785,0.806-1.197c0.262-0.393,0.523-0.811,0.74-1.158h-0.021l0.936-1.657
			h1.898l12.002-0.045h4.752L250.147,185.972z M168.353,117.637l26.553-0.957c-0.392,0.694-0.785,1.394-1.243,2.004
			c-0.569,0.85-1.223,1.616-1.898,2.336c-0.831,0.851-1.681,1.591-2.598,2.226c-0.916,0.634-1.852,1.158-2.834,1.616
			c-0.896,0.368-1.833,0.629-2.84,0.805c-0.936,0.196-1.918,0.242-2.899,0.196c-1.028-0.085-1.984-0.262-2.921-0.523
			c-0.961-0.281-1.857-0.654-2.729-1.158c-0.917-0.499-1.793-1.112-2.598-1.833c-0.634-0.589-1.244-1.219-1.787-1.853l-0.548-0.675
			l-0.041-0.066l0,0l-1.269-1.701L168.353,117.637z M195.011,92.504L169.053,92.7c0.281-0.432,0.544-0.871,0.851-1.308
			c0.569-0.72,1.132-1.46,1.788-2.095c0.831-0.871,1.701-1.611,2.598-2.266c0.896-0.654,1.852-1.178,2.813-1.571
			c0.892-0.373,1.833-0.68,2.835-0.831c0.936-0.151,1.943-0.217,2.924-0.196c1.002,0.065,1.964,0.241,2.855,0.523
			c0.961,0.262,1.878,0.634,2.729,1.112c0.916,0.523,1.813,1.158,2.619,1.833c0.806,0.741,1.616,1.591,2.316,2.488l1.31,1.681
			L195.011,92.504z"/>
		<path fill="#0071B6" d="M164.013,160.159c-0.196-0.544-0.417-1.021-0.655-1.505c-0.217-0.433-0.458-0.89-0.72-1.329
			c-0.281-0.458-0.589-0.917-0.961-1.395l0,0c-0.327-0.503-0.675-0.961-1.047-1.419c-0.785-1.048-1.656-2.009-2.618-2.815
			c-0.937-0.851-1.938-1.55-2.986-2.16c-1.006-0.544-2.094-1.027-3.187-1.309c-1.093-0.347-2.205-0.524-3.383-0.634
			c-1.178-0.02-2.311,0.025-3.449,0.222c-1.107,0.196-2.225,0.523-3.272,0.957c-1.133,0.504-2.225,1.112-3.248,1.833
			c-1.027,0.745-1.988,1.55-2.88,2.487c-0.81,0.831-1.505,1.702-2.159,2.643h-0.021c-0.655,0.936-1.269,1.918-1.772,3.01l0,0
			c-0.15,0.235-0.262,0.499-0.347,0.694l0,0c-0.105,0.262-0.216,0.483-0.347,0.745l-0.634,1.525h1.661l30.999-0.085h1.55
			L164.013,160.159z M133.69,159.53c0.453-0.896,0.976-1.726,1.525-2.551l0,0c0.609-0.831,1.243-1.636,1.938-2.382
			c0.81-0.806,1.702-1.591,2.578-2.225c0.917-0.629,1.853-1.179,2.814-1.572c0.917-0.393,1.878-0.654,2.835-0.85
			c0.981-0.151,1.963-0.237,2.97-0.151c0.977,0.065,1.964,0.217,2.88,0.479c0.937,0.262,1.873,0.68,2.724,1.138
			c0.942,0.523,1.768,1.152,2.619,1.873c0.831,0.72,1.595,1.571,2.336,2.533c0.347,0.458,0.72,0.916,1.022,1.354
			c0.307,0.433,0.594,0.851,0.856,1.284c0.171,0.307,0.368,0.634,0.543,0.98L133.69,159.53z"/>
		<path fill="#0071B6" d="M162.639,179.009l-31.135,0.045h-1.591l0.589,1.486l0.151,0.366v0.025l0.131,0.393l0,0
			c0.417,0.958,0.87,1.833,1.333,2.703c0.499,0.852,1.022,1.657,1.612,2.423c0.786,1.027,1.681,1.983,2.638,2.813
			c0.941,0.871,1.944,1.592,2.99,2.16c1.047,0.569,2.075,1.027,3.187,1.355c1.068,0.301,2.2,0.542,3.379,0.563
			c1.178,0.066,2.295,0,3.403-0.196c1.159-0.196,2.25-0.523,3.318-0.981c1.112-0.479,2.205-1.087,3.251-1.787
			c1.022-0.721,2.009-1.571,2.9-2.508c0.372-0.394,0.699-0.811,1.047-1.179c0.347-0.418,0.654-0.81,0.941-1.223
			c0.283-0.413,0.564-0.851,0.871-1.309c0.262-0.458,0.544-0.917,0.786-1.42l1.178-2.135l0.831-1.596H162.639z M160.524,181.757
			c-0.221,0.459-0.483,0.877-0.726,1.27c-0.282,0.433-0.543,0.806-0.805,1.178l0,0c-0.261,0.369-0.544,0.761-0.826,1.068
			c-0.287,0.392-0.614,0.739-0.961,1.091c-0.786,0.852-1.682,1.592-2.573,2.227c-0.876,0.629-1.833,1.153-2.839,1.591
			c-0.871,0.348-1.833,0.675-2.814,0.806c-0.937,0.177-1.938,0.242-2.925,0.177c-1.022-0.045-1.984-0.196-2.9-0.479
			c-0.937-0.288-1.873-0.68-2.729-1.158c-0.916-0.504-1.808-1.158-2.638-1.853c-0.825-0.72-1.611-1.596-2.311-2.533
			c-0.523-0.699-1.027-1.439-1.465-2.18c-0.322-0.568-0.583-1.138-0.871-1.727l27.687-0.066L160.524,181.757z"/>
	</g>
	<g>
		<path d="M266.836,116.917h5.609v1.963c0,1.833,0.216,3.076,0.695,3.776c0.458,0.675,1.269,0.982,2.382,0.982
			c1.197,0,2.094-0.262,2.724-0.871c0.614-0.615,0.916-1.486,0.916-2.664c0-0.871-0.196-1.681-0.629-2.291
			c-0.438-0.675-1.375-1.505-2.814-2.532l-2.859-2.029c-2.487-1.742-4.058-3.141-4.733-4.275c-0.679-1.112-1.007-2.507-1.007-4.234
			c0-2.528,0.746-4.491,2.271-5.91c1.486-1.46,3.535-2.181,6.198-2.181c2.77,0,4.909,0.786,6.415,2.291
			c1.46,1.525,2.2,3.706,2.2,6.611c0,0.261,0,0.458,0,0.629c0,0.156,0,0.287-0.02,0.418h-5.347v-0.811
			c0-1.636-0.236-2.814-0.785-3.49c-0.523-0.74-1.415-1.067-2.638-1.067c-0.897,0-1.591,0.282-2.14,0.806
			c-0.499,0.524-0.76,1.244-0.76,2.18c0,1.27,1.153,2.644,3.469,4.214l0.065,0.04l3.097,2.12c2.18,1.44,3.665,2.834,4.471,4.124
			c0.785,1.284,1.158,2.965,1.158,4.949c0,2.729-0.765,4.889-2.336,6.328c-1.545,1.486-3.797,2.246-6.716,2.246
			c-3.036,0-5.282-0.806-6.741-2.331c-1.485-1.596-2.226-3.952-2.226-7.18c0-0.328,0.021-0.896,0.085-1.701v-0.111H266.836z"/>
		<path d="M289.044,102.085v-4.672h5.195v4.672H289.044z M289.044,127.5v-22.626h5.195V127.5H289.044z"/>
		<path d="M298.756,127.5v-22.626h5.125v2.291c0.544-0.957,1.244-1.677,2.049-2.135c0.785-0.523,1.683-0.765,2.684-0.765
			c1.662,0,2.926,0.458,3.797,1.419c0.876,0.957,1.309,2.266,1.309,4.058v17.758h-5.06v-15.166c0-1.33-0.151-2.266-0.505-2.814
			c-0.326-0.544-0.891-0.806-1.656-0.806c-0.896,0-1.55,0.328-1.898,1.002c-0.393,0.68-0.589,1.792-0.589,3.363v14.419h-5.255V127.5
			z"/>
		<path d="M328.143,125.144c-0.418,0.982-1.001,1.748-1.813,2.206c-0.76,0.523-1.701,0.76-2.814,0.76
			c-2.159,0-3.71-0.826-4.601-2.618c-0.876-1.722-1.355-4.778-1.355-9.183c0-4.582,0.438-7.723,1.33-9.445
			c0.851-1.727,2.361-2.598,4.516-2.598c1.072,0,1.963,0.216,2.688,0.634c0.74,0.413,1.33,1.047,1.742,1.898v-9.383h5.28V127.5
			h-4.974V125.144L328.143,125.144z M322.882,115.85c0,3.489,0.155,5.694,0.504,6.631c0.327,0.876,0.981,1.309,1.898,1.309
			c1.047,0,1.767-0.393,2.14-1.198c0.393-0.831,0.589-2.442,0.589-4.929c0-4.018-0.196-6.505-0.589-7.507
			c-0.373-0.981-1.093-1.459-2.14-1.459c-0.917,0-1.526,0.413-1.879,1.283C323.038,110.811,322.882,112.773,322.882,115.85z"/>
		<path d="M337.634,102.085v-4.672h5.189v4.672H337.634z M337.634,127.5v-22.626h5.189V127.5H337.634z"/>
		<path d="M361.629,118.644c0,0.171,0.025,0.328,0.025,0.479c0,0.217,0,0.413,0,0.785c0,2.814-0.569,4.889-1.769,6.218
			c-1.197,1.308-3.056,1.983-5.543,1.983c-2.854,0-4.817-0.826-5.937-2.508c-1.178-1.702-1.742-4.798-1.742-9.379
			c0-4.562,0.564-7.724,1.742-9.405c1.118-1.681,3.082-2.552,5.937-2.552c2.467,0,4.32,0.634,5.498,1.878
			c1.223,1.244,1.788,3.142,1.788,5.76v0.785h-5.015v-0.483c0-1.395-0.15-2.376-0.503-2.985c-0.373-0.569-0.918-0.917-1.742-0.917
			c-0.785,0-1.38,0.302-1.747,0.892c-0.347,0.614-0.523,1.571-0.523,2.945v7.834c0,1.505,0.13,2.572,0.499,3.227
			c0.352,0.59,0.94,0.896,1.745,0.896c0.872,0,1.506-0.327,1.834-1.027c0.347-0.72,0.522-2.029,0.522-3.967v-0.483L361.629,118.644z
			"/>
		<path d="M376.29,127.5c-0.15-0.151-0.236-0.413-0.321-0.74c-0.093-0.353-0.177-0.81-0.263-1.44
			c-0.549,0.916-1.248,1.61-2.119,2.095c-0.892,0.458-1.898,0.695-3.057,0.695c-1.702,0-3.052-0.564-4.014-1.722
			c-0.961-1.158-1.439-2.749-1.439-4.843c0-1.853,0.418-3.358,1.264-4.431c0.856-1.133,2.487-2.225,4.974-3.338
			c0.263-0.131,0.636-0.282,1.073-0.479c2.07-0.871,3.076-1.897,3.076-3.056c0-0.72-0.196-1.284-0.589-1.676
			c-0.393-0.372-0.981-0.548-1.727-0.548c-0.957,0-1.677,0.261-2.135,0.765c-0.438,0.504-0.655,1.289-0.655,2.376v0.458h-5.104
			c0-2.528,0.635-4.406,1.898-5.564c1.223-1.152,3.227-1.742,5.996-1.742c2.728,0,4.651,0.543,5.784,1.591
			c1.113,1.067,1.657,2.945,1.657,5.609v12.763c0,0.63,0.045,1.218,0.177,1.722c0.13,0.524,0.307,1.028,0.589,1.506H376.29z
			 M375.551,115.674c-1.964,0.982-3.318,1.858-4.014,2.643c-0.7,0.786-1.048,1.702-1.048,2.789c0,1.007,0.197,1.728,0.544,2.206
			c0.393,0.458,0.962,0.721,1.792,0.721c0.918,0,1.571-0.394,2.05-1.199c0.438-0.811,0.675-1.989,0.675-3.56L375.551,115.674
			L375.551,115.674z"/>
		<path d="M390.518,119.122v1.526c0,1.224,0.111,2.009,0.328,2.336c0.261,0.307,0.628,0.479,1.263,0.479c0.131,0,0.262,0,0.327,0
			c0.086,0,0.196-0.041,0.242-0.041v4.078c-0.766,0.066-1.334,0.131-1.748,0.151c-0.457,0.045-0.805,0.066-1.046,0.066
			c-1.768,0-2.966-0.368-3.621-1.047c-0.679-0.695-1-2.115-1-4.32v-13.568h-2.034v-3.907h2.034v-6.172h5.255v6.172h2.16v3.907h-2.16
			V119.122L390.518,119.122z"/>
		<path d="M395.21,116.223c0-4.562,0.563-7.724,1.768-9.405c1.152-1.681,3.228-2.552,6.218-2.552c2.946,0,5.039,0.871,6.192,2.552
			c1.203,1.682,1.747,4.843,1.747,9.405c0,4.536-0.544,7.658-1.747,9.359c-1.153,1.702-3.247,2.528-6.192,2.528
			c-2.99,0-5.065-0.826-6.218-2.528C395.775,123.88,395.21,120.758,395.21,116.223z M400.577,115.981v0.524
			c0,3.489,0.15,5.648,0.523,6.434c0.348,0.766,1.047,1.158,2.029,1.158c1.047,0,1.742-0.327,2.135-1.093
			c0.327-0.741,0.548-2.684,0.548-5.76v-0.891v-1.309c0-2.945-0.221-4.803-0.589-5.588c-0.352-0.741-1.048-1.153-2.028-1.153
			c-1.028,0-1.683,0.393-2.055,1.068c-0.413,0.7-0.563,2.356-0.563,5.04V115.981L400.577,115.981z"/>
		<path d="M267.405,168.758v-30.106h15.446v5.015h-9.863v6.938h9.184v4.802h-9.184v8.286h10.125v5.064L267.405,168.758
			L267.405,168.758z"/>
		<path d="M286.995,168.758v-22.625h4.844v2.618c0.609-1.178,1.309-2.009,2.14-2.507c0.826-0.483,1.938-0.7,3.358-0.7
			c1.093,0,2.074,0.262,2.9,0.741c0.811,0.503,1.375,1.203,1.727,2.119c0.721-1.007,1.46-1.747,2.266-2.185
			c0.81-0.458,1.792-0.675,2.945-0.675c1.813,0,3.141,0.479,4.038,1.46c0.937,1.007,1.395,2.447,1.395,4.386v17.369h-5.146v-14.424
			c0-1.787-0.196-2.945-0.549-3.489c-0.367-0.523-1.021-0.766-2.028-0.766c-0.917,0-1.526,0.287-1.939,0.876
			c-0.371,0.589-0.549,1.677-0.549,3.273v14.53h-5.169v-14.706c0-1.551-0.171-2.553-0.564-3.142
			c-0.372-0.543-0.981-0.831-1.857-0.831c-0.937,0-1.611,0.287-2.004,0.896c-0.438,0.589-0.634,1.591-0.634,3.011v14.771h-5.173
			V168.758z"/>
		<path d="M317.036,176.391v-30.257h4.975v2.376c0.419-0.982,1.027-1.742,1.788-2.225c0.785-0.5,1.701-0.741,2.818-0.741
			c2.201,0,3.726,0.871,4.622,2.573c0.876,1.768,1.354,4.804,1.354,9.229c0,4.561-0.438,7.722-1.309,9.449
			c-0.871,1.722-2.401,2.592-4.562,2.592c-1.067,0-1.938-0.216-2.684-0.653c-0.739-0.394-1.289-1.023-1.742-1.873v9.53H317.036
			L317.036,176.391z M322.122,156.494c0,3.69,0.216,6,0.589,6.982c0.393,0.982,1.088,1.486,2.135,1.486
			c0.917,0,1.571-0.418,1.902-1.27c0.349-0.851,0.524-2.921,0.524-6.302c0-3.227-0.176-5.302-0.524-6.198
			c-0.331-0.871-0.985-1.309-1.902-1.309c-1.047,0-1.742,0.392-2.135,1.177C322.338,151.913,322.122,153.68,322.122,156.494z"/>
		<path d="M336.455,168.758v-30.106h5.216v30.106H336.455z"/>
		<path d="M356.201,161.035h4.929c0,0.086,0.021,0.262,0.021,0.413c0,0.217,0.024,0.347,0.024,0.458
			c0,2.553-0.634,4.471-1.856,5.648c-1.224,1.203-3.188,1.833-5.866,1.833c-1.399,0-2.598-0.151-3.514-0.543
			c-0.982-0.348-1.769-0.872-2.356-1.637c-0.745-0.871-1.243-1.943-1.571-3.293c-0.282-1.354-0.458-3.73-0.458-7.179
			c0-2.769,0.15-4.758,0.413-5.91c0.261-1.204,0.68-2.185,1.334-2.925c0.654-0.766,1.5-1.354,2.527-1.767
			c1.067-0.413,2.316-0.59,3.775-0.59c1.374,0,2.573,0.216,3.601,0.609c1.001,0.417,1.832,1.112,2.532,1.943
			c0.564,0.765,0.937,1.722,1.179,2.86c0.236,1.133,0.367,2.985,0.367,5.498v1.742h-10.296c0,0.155-0.046,0.307-0.046,0.548
			c0,0.196-0.019,0.479-0.019,0.917c0,2.134,0.216,3.639,0.629,4.49c0.393,0.877,1.048,1.309,2.009,1.309
			c0.941,0,1.597-0.347,2.009-1.047C355.959,163.693,356.201,162.56,356.201,161.035z M350.921,154.597h5.104v-0.957
			c0-1.551-0.177-2.618-0.568-3.233c-0.394-0.543-1.048-0.85-2.004-0.85c-0.896,0-1.571,0.328-1.964,0.896
			c-0.393,0.609-0.593,1.681-0.593,3.187C350.921,154.053,350.921,154.381,350.921,154.597z"/>
		<path d="M375.989,168.758c-0.112-0.155-0.223-0.392-0.283-0.72c-0.11-0.372-0.201-0.851-0.261-1.44
			c-0.569,0.892-1.27,1.571-2.14,2.049c-0.871,0.523-1.879,0.74-3.035,0.74c-1.723,0-3.072-0.59-4.014-1.768
			c-0.961-1.133-1.44-2.749-1.44-4.798c0-1.853,0.393-3.358,1.244-4.471c0.852-1.112,2.507-2.185,4.994-3.317
			c0.261-0.11,0.594-0.242,1.073-0.438c2.028-0.891,3.076-1.918,3.076-3.096c0-0.72-0.223-1.264-0.614-1.616
			c-0.368-0.393-0.956-0.609-1.722-0.609c-0.957,0-1.658,0.261-2.096,0.785c-0.479,0.458-0.694,1.289-0.694,2.376v0.438h-5.085
			c0-2.552,0.634-4.405,1.872-5.563c1.224-1.178,3.252-1.747,6.002-1.747c2.749,0,4.672,0.549,5.804,1.596
			c1.093,1.068,1.657,2.92,1.657,5.604v12.762c0,0.614,0.045,1.223,0.15,1.747c0.132,0.503,0.333,0.981,0.594,1.485h-5.083V168.758z
			 M375.268,156.913c-1.963,1.002-3.298,1.872-3.992,2.684c-0.745,0.76-1.047,1.7-1.047,2.769c0,1.001,0.171,1.746,0.563,2.205
			c0.352,0.498,0.941,0.72,1.747,0.72c0.916,0,1.596-0.393,2.049-1.178c0.463-0.811,0.679-1.963,0.679-3.579L375.268,156.913
			L375.268,156.913z"/>
		<path d="M394.661,166.403c-0.438,1.002-1.022,1.722-1.808,2.245c-0.765,0.503-1.701,0.739-2.793,0.739
			c-2.182,0-3.712-0.87-4.627-2.618c-0.918-1.721-1.35-4.798-1.35-9.202c0-4.562,0.433-7.683,1.309-9.451
			c0.87-1.702,2.376-2.573,4.537-2.573c1.066,0,1.962,0.216,2.702,0.609c0.746,0.393,1.31,1.007,1.722,1.923v-9.425h5.281v30.106
			h-4.975L394.661,166.403L394.661,166.403z M389.406,157.129c0,3.467,0.15,5.694,0.478,6.564c0.372,0.917,1.007,1.375,1.924,1.375
			c1.046,0,1.763-0.413,2.134-1.198c0.393-0.806,0.59-2.441,0.59-4.929c0-4.017-0.197-6.544-0.59-7.526
			c-0.371-0.961-1.088-1.485-2.134-1.485c-0.917,0-1.551,0.438-1.878,1.309C389.581,152.089,389.406,154.007,389.406,157.129z"/>
		<path d="M403.498,157.477c0-4.556,0.568-7.678,1.767-9.399c1.179-1.702,3.273-2.533,6.218-2.533c2.971,0,5.064,0.831,6.198,2.533
			c1.178,1.722,1.767,4.844,1.767,9.399c0,4.561-0.589,7.682-1.767,9.384c-1.134,1.677-3.228,2.526-6.198,2.526
			c-2.945,0-5.039-0.85-6.218-2.526C404.067,165.159,403.498,162.038,403.498,157.477z M408.865,157.214v0.549
			c0,3.533,0.177,5.668,0.523,6.433c0.353,0.766,1.027,1.178,2.029,1.178c1.046,0,1.746-0.393,2.12-1.091
			c0.347-0.761,0.543-2.659,0.543-5.78v-0.896v-1.284c0-2.945-0.196-4.823-0.543-5.563c-0.373-0.785-1.074-1.178-2.055-1.178
			c-1.002,0-1.701,0.347-2.07,1.047c-0.371,0.721-0.548,2.377-0.548,5.015V157.214z"/>
		<path d="M422.544,161.231h4.713v0.675c0,1.289,0.196,2.226,0.589,2.749c0.394,0.544,1.072,0.852,2.01,0.852
			c0.72,0,1.288-0.217,1.701-0.609c0.412-0.372,0.609-0.943,0.609-1.616c0-0.852-0.826-1.833-2.509-2.991
			c-0.438-0.261-0.739-0.498-1-0.629l-0.242-0.196c-3.816-2.598-5.76-5.236-5.76-7.723c0-2.029,0.635-3.56,1.853-4.607
			c1.27-1.067,3.076-1.591,5.433-1.591c2.316,0,4.018,0.569,5.17,1.722c1.158,1.178,1.747,2.946,1.747,5.327v0.499h-4.647v-0.499
			c0-1.092-0.196-1.898-0.609-2.401c-0.438-0.503-1.072-0.741-1.988-0.741c-0.654,0-1.179,0.171-1.572,0.524
			c-0.367,0.347-0.589,0.825-0.589,1.415c0,0.548,0.196,1.047,0.524,1.485c0.372,0.438,1.112,1.093,2.315,1.878
			c0.282,0.197,0.675,0.433,1.198,0.806c3.797,2.487,5.694,5.019,5.694,7.527c0,1.983-0.654,3.58-1.919,4.667
			c-1.268,1.093-3.121,1.636-5.478,1.636c-2.507,0-4.339-0.63-5.518-1.768c-1.179-1.198-1.768-3.01-1.768-5.472
			c0-0.112,0-0.242,0-0.438C422.544,161.469,422.544,161.383,422.544,161.231z"/>
		<path d="M277.067,207.657c-0.433,1.002-1.022,1.722-1.808,2.245c-0.766,0.483-1.702,0.746-2.814,0.746
			c-2.185,0-3.711-0.877-4.627-2.619c-0.896-1.727-1.354-4.758-1.354-9.208c0-4.582,0.438-7.703,1.334-9.425
			c0.871-1.722,2.376-2.573,4.517-2.573c1.068,0,1.963,0.197,2.724,0.609c0.7,0.438,1.309,1.028,1.727,1.898v-9.404h5.276v30.133
			h-4.974L277.067,207.657L277.067,207.657z M271.81,198.409c0,3.488,0.151,5.647,0.479,6.585c0.353,0.876,0.982,1.309,1.922,1.309
			c1.047,0,1.742-0.368,2.135-1.178c0.373-0.807,0.589-2.462,0.589-4.95c0-3.973-0.216-6.479-0.589-7.486
			c-0.393-1.001-1.087-1.505-2.135-1.505c-0.941,0-1.57,0.457-1.897,1.309C271.961,193.342,271.81,195.332,271.81,198.409z"/>
		<path d="M296.571,202.245h4.909c0,0.11,0.025,0.287,0.046,0.483c0,0.195,0,0.347,0,0.413c0,2.597-0.635,4.495-1.833,5.693
			c-1.244,1.223-3.207,1.813-5.844,1.813c-1.441,0-2.619-0.156-3.58-0.523c-0.937-0.353-1.747-0.896-2.336-1.636
			c-0.72-0.896-1.244-1.989-1.525-3.299c-0.327-1.351-0.458-3.751-0.458-7.2c0-2.769,0.131-4.712,0.393-5.91
			c0.262-1.178,0.7-2.14,1.309-2.88c0.655-0.831,1.505-1.439,2.553-1.813c1.047-0.394,2.311-0.563,3.751-0.563
			c1.399,0,2.618,0.197,3.625,0.654c1.002,0.393,1.833,1.022,2.507,1.898c0.544,0.76,0.962,1.676,1.198,2.814
			c0.242,1.152,0.372,3.011,0.372,5.498v1.787h-10.296c-0.025,0.15-0.025,0.348-0.065,0.523c0,0.196,0,0.479,0,0.896
			c0,2.159,0.196,3.686,0.609,4.556c0.392,0.831,1.067,1.27,1.983,1.27c0.962,0,1.617-0.372,2.055-1.047
			C296.335,204.973,296.571,203.84,296.571,202.245z M291.295,195.831h5.08v-0.917c0-1.571-0.171-2.618-0.544-3.227
			c-0.393-0.569-1.068-0.896-1.983-0.896c-0.961,0-1.596,0.327-2.009,0.917c-0.393,0.634-0.589,1.682-0.589,3.206
			C291.295,195.332,291.295,195.633,291.295,195.831z"/>
		<path d="M327.926,199.299h5.453c0,0.13,0.021,0.326,0.021,0.589c0.024,0.241,0.024,0.438,0.024,0.59
			c0,3.514-0.726,6.047-2.205,7.768c-1.461,1.683-3.711,2.533-6.722,2.533c-1.46,0-2.663-0.196-3.711-0.589
			c-1.021-0.353-1.897-0.917-2.658-1.702c-1.027-1.048-1.727-2.468-2.14-4.3c-0.438-1.833-0.654-5.02-0.654-9.556
			c0-3.143,0.111-5.563,0.393-7.396c0.262-1.832,0.61-3.206,1.159-4.103c0.784-1.374,1.787-2.396,3.01-3.01
			c1.198-0.631,2.725-0.918,4.602-0.918c3.036,0,5.261,0.766,6.656,2.381c1.374,1.571,2.069,4.125,2.069,7.659h-5.407v-0.7
			c0-1.656-0.262-2.88-0.806-3.685c-0.504-0.786-1.335-1.179-2.401-1.179c-1.354,0-2.251,0.563-2.749,1.657
			c-0.504,1.092-0.766,4.188-0.766,9.163c0,5.452,0.262,8.77,0.74,9.947c0.482,1.159,1.379,1.747,2.729,1.747
			c1.244,0,2.114-0.458,2.618-1.374c0.504-0.917,0.745-2.644,0.745-5.105V199.299L327.926,199.299z"/>
		<path d="M336.934,198.71c0-4.537,0.589-7.678,1.768-9.38c1.179-1.656,3.232-2.508,6.198-2.508c2.985,0,5.061,0.852,6.238,2.508
			c1.177,1.702,1.746,4.843,1.746,9.38c0,4.562-0.569,7.723-1.746,9.404c-1.178,1.701-3.253,2.533-6.238,2.533
			c-2.966,0-5.02-0.832-6.198-2.533C337.523,206.433,336.934,203.271,336.934,198.71z M342.301,198.494v0.524
			c0,3.514,0.177,5.648,0.522,6.433c0.349,0.811,1.049,1.18,2.05,1.18c1.027,0,1.747-0.369,2.12-1.088
			c0.347-0.72,0.523-2.664,0.523-5.74v-0.937v-1.269c0-2.966-0.177-4.817-0.55-5.604c-0.366-0.766-1.066-1.139-2.068-1.139
			c-0.982,0-1.682,0.308-2.049,1.027c-0.353,0.72-0.549,2.401-0.549,5.04V198.494z"/>
		<path d="M356.811,210.057v-22.67h4.844v2.598c0.608-1.178,1.328-2.009,2.159-2.486c0.806-0.479,1.919-0.676,3.358-0.676
			c1.092,0,2.029,0.218,2.88,0.721c0.811,0.523,1.395,1.243,1.768,2.114c0.654-1.026,1.44-1.768,2.226-2.18
			c0.83-0.458,1.813-0.655,2.97-0.655c1.788,0,3.143,0.459,4.033,1.461c0.896,0.98,1.354,2.441,1.354,4.365v17.41h-5.125v-14.444
			c0-1.853-0.156-2.966-0.549-3.489c-0.347-0.504-1.022-0.785-2.009-0.785c-0.916,0-1.571,0.302-1.938,0.892
			c-0.394,0.589-0.59,1.682-0.59,3.232v14.595h-5.17v-14.727c0-1.57-0.197-2.577-0.524-3.141c-0.347-0.55-0.981-0.851-1.878-0.851
			c-0.937,0-1.591,0.301-2.029,0.916c-0.393,0.563-0.63,1.591-0.63,2.985v14.817h-5.15V210.057z"/>
		<path d="M396.867,202.245h4.908c0,0.11,0,0.287,0.02,0.483c0.025,0.195,0.046,0.347,0.046,0.413c0,2.597-0.635,4.495-1.853,5.693
			c-1.27,1.223-3.188,1.813-5.87,1.813c-1.42,0-2.598-0.156-3.56-0.523c-0.957-0.353-1.723-0.896-2.331-1.636
			c-0.72-0.896-1.264-1.989-1.551-3.299c-0.307-1.351-0.438-3.751-0.438-7.2c0-2.769,0.111-4.712,0.373-5.91
			c0.262-1.178,0.699-2.14,1.329-2.88c0.654-0.831,1.511-1.439,2.559-1.813c1.067-0.394,2.311-0.563,3.75-0.563
			c1.395,0,2.619,0.197,3.601,0.654c1.001,0.393,1.852,1.022,2.507,1.898c0.59,0.76,0.982,1.676,1.224,2.814
			c0.241,1.152,0.372,3.011,0.372,5.498v1.787h-10.301c-0.021,0.15-0.021,0.348-0.065,0.523c0,0.196,0,0.479,0,0.896
			c0,2.159,0.196,3.686,0.614,4.556c0.393,0.831,1.067,1.27,2.023,1.27c0.922,0,1.576-0.372,1.989-1.047
			C396.651,204.973,396.867,203.84,396.867,202.245z M391.585,195.831h5.065v-0.917c0-1.571-0.156-2.618-0.524-3.227
			c-0.394-0.569-1.072-0.896-2.009-0.896c-0.962,0-1.596,0.327-1.989,0.917c-0.393,0.634-0.584,1.682-0.584,3.206
			C391.585,195.332,391.585,195.633,391.585,195.831z"/>
		<path d="M405.985,210.057v-22.67h5.02v3.69c0.72-1.506,1.459-2.618,2.291-3.253c0.83-0.654,1.812-0.981,2.99-1.002v6.369
			c-0.196-0.02-0.394-0.065-0.59-0.11c-0.176,0-0.438,0-0.72,0c-1.138,0-2.029,0.353-2.684,1.007
			c-0.654,0.675-1.006,1.545-1.006,2.684v13.287h-5.302V210.057z"/>
		<path d="M433.736,201.177c0.024,0.15,0.024,0.307,0.045,0.503c0,0.151,0,0.434,0,0.74c0,2.859-0.589,4.89-1.786,6.238
			c-1.204,1.334-3.058,1.989-5.545,1.989c-2.859,0-4.822-0.832-5.956-2.488c-1.111-1.701-1.701-4.822-1.701-9.448
			c0-4.537,0.59-7.679,1.701-9.381c1.134-1.656,3.097-2.508,5.956-2.508c2.487,0,4.341,0.609,5.519,1.809
			c1.179,1.269,1.768,3.166,1.768,5.805v0.785h-4.994v-0.523c0-1.355-0.197-2.356-0.524-2.946c-0.347-0.609-0.937-0.896-1.721-0.896
			c-0.811,0-1.4,0.287-1.768,0.876c-0.328,0.589-0.523,1.59-0.523,2.945v7.764c0,1.596,0.15,2.684,0.523,3.298
			c0.327,0.563,0.891,0.892,1.721,0.892c0.896,0,1.526-0.349,1.853-1.022c0.354-0.746,0.524-2.055,0.524-3.953v-0.498
			L433.736,201.177z"/>
		<path d="M437.643,184.619v-4.693h5.216v4.693H437.643z M437.643,210.057v-22.67h5.216v22.67H437.643z"/>
		<path d="M446.72,198.71c0-4.537,0.564-7.678,1.742-9.38c1.158-1.656,3.231-2.508,6.177-2.508c3.012,0,5.081,0.852,6.239,2.508
			c1.178,1.702,1.787,4.843,1.787,9.38c0,4.562-0.609,7.723-1.787,9.404c-1.158,1.701-3.228,2.533-6.239,2.533
			c-2.945,0-5.019-0.832-6.177-2.533C447.284,206.433,446.72,203.271,446.72,198.71z M452.062,198.494v0.524
			c0,3.514,0.177,5.648,0.523,6.433c0.372,0.811,1.027,1.18,2.029,1.18c1.047,0,1.747-0.369,2.096-1.088
			c0.392-0.72,0.567-2.664,0.567-5.74v-0.937v-1.269c0-2.966-0.176-4.817-0.567-5.604c-0.368-0.766-1.049-1.139-2.071-1.139
			c-0.981,0-1.66,0.308-2.009,1.027c-0.393,0.72-0.568,2.401-0.568,5.04V198.494L452.062,198.494z"/>
		<path d="M277.067,248.935c-0.433,0.957-1.022,1.702-1.808,2.246c-0.766,0.479-1.702,0.74-2.814,0.74
			c-2.185,0-3.711-0.872-4.627-2.618c-0.896-1.723-1.354-4.818-1.354-9.203c0-4.563,0.438-7.704,1.334-9.425
			c0.871-1.747,2.376-2.619,4.517-2.619c1.068,0,1.963,0.217,2.724,0.629c0.7,0.419,1.309,1.048,1.727,1.924v-9.424h5.276v30.128
			h-4.974L277.067,248.935L277.067,248.935z M271.81,239.641c0,3.51,0.151,5.694,0.479,6.61c0.353,0.892,0.982,1.33,1.922,1.33
			c1.047,0,1.742-0.412,2.135-1.224c0.373-0.784,0.589-2.421,0.589-4.909c0-3.991-0.216-6.479-0.589-7.501
			c-0.393-0.981-1.087-1.466-2.135-1.466c-0.941,0-1.57,0.438-1.897,1.289C271.961,234.602,271.81,236.585,271.81,239.641z"/>
		<path d="M296.571,243.543h4.909c0,0.092,0.025,0.242,0.046,0.438c0,0.196,0,0.347,0,0.458c0,2.572-0.635,4.45-1.833,5.674
			c-1.244,1.197-3.207,1.808-5.844,1.808c-1.441,0-2.619-0.172-3.58-0.523c-0.937-0.368-1.747-0.917-2.336-1.677
			c-0.72-0.852-1.244-1.964-1.525-3.273c-0.327-1.354-0.458-3.756-0.458-7.179c0-2.77,0.131-4.759,0.393-5.911
			c0.262-1.203,0.7-2.159,1.309-2.924c0.655-0.786,1.505-1.375,2.553-1.787c1.047-0.395,2.311-0.591,3.751-0.591
			c1.399,0,2.618,0.217,3.625,0.629c1.002,0.438,1.833,1.073,2.507,1.965c0.544,0.744,0.962,1.701,1.198,2.839
			c0.242,1.111,0.372,2.945,0.372,5.518v1.722h-10.296c-0.025,0.178-0.025,0.353-0.065,0.504c0,0.216,0,0.523,0,0.936
			c0,2.16,0.196,3.691,0.609,4.497c0.392,0.896,1.067,1.309,1.983,1.309c0.962,0,1.617-0.327,2.055-1.027
			C296.335,246.227,296.571,245.094,296.571,243.543z M291.295,237.11h5.08v-0.938c0-1.57-0.171-2.643-0.544-3.231
			c-0.393-0.589-1.068-0.871-1.983-0.871c-0.961,0-1.596,0.308-2.009,0.917c-0.393,0.608-0.589,1.636-0.589,3.186
			C291.295,236.585,291.295,236.914,291.295,237.11z"/>
		<path d="M315.401,240.729h5.609v1.924c0,1.873,0.216,3.116,0.675,3.796c0.481,0.675,1.269,1.002,2.4,1.002
			c1.198,0,2.096-0.281,2.724-0.896c0.615-0.589,0.942-1.479,0.942-2.657c0-0.896-0.217-1.683-0.654-2.337
			c-0.459-0.634-1.375-1.46-2.835-2.486l-2.84-2.029c-2.487-1.702-4.078-3.162-4.731-4.234c-0.68-1.178-1.007-2.573-1.007-4.255
			c0-2.526,0.765-4.49,2.25-5.931c1.48-1.44,3.554-2.185,6.198-2.185c2.789,0,4.903,0.785,6.414,2.29
			c1.499,1.551,2.226,3.731,2.226,6.591c0,0.282,0,0.504,0,0.654c-0.025,0.177-0.025,0.308-0.025,0.414h-5.322v-0.786
			c0-1.637-0.262-2.814-0.805-3.534c-0.55-0.675-1.421-1.022-2.619-1.022c-0.941,0-1.642,0.262-2.14,0.785
			c-0.504,0.543-0.785,1.244-0.785,2.225c0,1.219,1.152,2.619,3.469,4.165l0.065,0.065l3.078,2.073
			c2.204,1.44,3.705,2.835,4.469,4.17c0.786,1.264,1.179,2.919,1.179,4.908c0,2.77-0.785,4.884-2.336,6.369
			c-1.571,1.485-3.816,2.226-6.735,2.226c-3.012,0-5.242-0.786-6.722-2.356c-1.506-1.551-2.226-3.947-2.226-7.154
			c0-0.353,0.02-0.896,0.086-1.662v-0.131H315.401z"/>
		<path d="M348.348,251.313c-0.131-0.197-0.242-0.413-0.307-0.741c-0.112-0.372-0.178-0.875-0.262-1.465
			c-0.569,0.916-1.264,1.616-2.14,2.095c-0.871,0.482-1.874,0.721-3.052,0.721c-1.702,0-3.035-0.564-4.019-1.742
			c-0.956-1.158-1.419-2.774-1.419-4.843c0-1.879,0.418-3.318,1.27-4.431c0.805-1.112,2.485-2.226,4.974-3.318
			c0.262-0.105,0.609-0.301,1.087-0.479c2.035-0.896,3.036-1.898,3.036-3.076c0-0.699-0.177-1.288-0.589-1.656
			c-0.393-0.373-0.962-0.569-1.723-0.569c-0.961,0-1.661,0.262-2.094,0.765c-0.464,0.499-0.68,1.31-0.68,2.398v0.438h-5.105
			c0-2.553,0.635-4.386,1.878-5.543c1.244-1.18,3.273-1.768,6.001-1.768c2.75,0,4.668,0.522,5.78,1.615
			c1.113,1.048,1.682,2.9,1.682,5.584v12.763c0,0.635,0.041,1.203,0.171,1.702c0.131,0.523,0.308,1.007,0.569,1.551H348.348z
			 M347.603,239.446c-1.963,1.001-3.293,1.897-3.993,2.658c-0.699,0.81-1.066,1.727-1.066,2.793c0,1.002,0.196,1.747,0.589,2.227
			c0.372,0.457,0.956,0.72,1.742,0.72c0.896,0,1.596-0.413,2.054-1.224c0.433-0.76,0.675-1.983,0.675-3.573V239.446L347.603,239.446
			z"/>
		<path d="M357.073,251.313v-22.666h5.125v2.289c0.523-0.916,1.223-1.661,1.988-2.141c0.807-0.478,1.702-0.739,2.725-0.739
			c1.656,0,2.905,0.499,3.775,1.396c0.892,0.98,1.31,2.336,1.31,4.058v17.802h-5.021v-15.204c0-1.334-0.196-2.226-0.523-2.774
			c-0.348-0.564-0.917-0.826-1.701-0.826c-0.896,0-1.506,0.347-1.873,0.982c-0.394,0.675-0.569,1.808-0.569,3.402v14.42h-5.235
			V251.313z"/>
		<path d="M386.762,251.313v-30.129h8.448l4.144,19.524l4.124-19.524h8.443v30.129h-5.347l0.11-26.725l-5.609,26.725h-3.443
			l-5.634-26.725l0.156,26.725H386.762z"/>
		<path d="M427.478,251.313c-0.11-0.197-0.221-0.413-0.287-0.741c-0.086-0.372-0.172-0.875-0.262-1.465
			c-0.563,0.916-1.264,1.616-2.134,2.095c-0.876,0.482-1.898,0.721-3.036,0.721c-1.722,0-3.052-0.564-4.014-1.742
			c-0.981-1.158-1.44-2.774-1.44-4.843c0-1.879,0.395-3.318,1.245-4.431s2.532-2.226,5.02-3.318
			c0.236-0.105,0.609-0.301,1.047-0.479c2.049-0.896,3.051-1.898,3.051-3.076c0-0.699-0.171-1.288-0.563-1.656
			c-0.418-0.373-1.007-0.569-1.747-0.569c-0.962,0-1.657,0.262-2.095,0.765c-0.479,0.499-0.7,1.31-0.7,2.398v0.438h-5.06
			c0-2.553,0.635-4.386,1.852-5.543c1.27-1.18,3.273-1.768,6.002-1.768c2.749,0,4.692,0.522,5.805,1.615
			c1.112,1.048,1.656,2.9,1.656,5.584v12.763c0,0.635,0.046,1.203,0.151,1.702c0.155,0.523,0.328,1.007,0.614,1.551H427.478z
			 M426.758,239.446c-1.963,1.001-3.298,1.897-3.973,2.658c-0.721,0.81-1.067,1.727-1.067,2.793c0,1.002,0.171,1.747,0.544,2.227
			c0.372,0.457,0.981,0.72,1.747,0.72c0.916,0,1.61-0.413,2.095-1.224c0.433-0.76,0.654-1.983,0.654-3.573V239.446L426.758,239.446z
			"/>
		<path d="M436.268,251.313v-22.666h4.994v3.705c0.721-1.546,1.486-2.619,2.317-3.293c0.785-0.635,1.767-0.961,2.965-0.982v6.369
			c-0.196-0.065-0.392-0.065-0.59-0.065c-0.196-0.021-0.457-0.021-0.72-0.021c-1.133,0-2.009,0.349-2.683,1.028
			c-0.636,0.629-0.981,1.546-0.981,2.658v13.267H436.268L436.268,251.313z"/>
		<path d="M456.014,242.934v1.551c0,1.178,0.105,1.963,0.328,2.265c0.236,0.328,0.674,0.504,1.264,0.504c0.15,0,0.262,0,0.347,0
			c0.091,0,0.156-0.045,0.222-0.045v4.103c-0.745,0.087-1.334,0.132-1.767,0.177c-0.419,0-0.747,0-1.028,0
			c-1.768,0-2.945-0.307-3.62-1.027c-0.654-0.699-0.981-2.14-0.981-4.32v-13.568h-2.054v-3.927h2.054v-6.152h5.235v6.152h2.16v3.927
			h-2.16L456.014,242.934L456.014,242.934z"/>
		<path d="M461.205,226.264l3.384-5.563h5.039l-5.981,5.563H461.205z M461.356,251.313v-22.666h5.196v22.666H461.356
			L461.356,251.313z"/>
		<path d="M471.109,251.313v-22.666h5.105v2.289c0.549-0.916,1.243-1.661,2.029-2.141c0.784-0.478,1.701-0.739,2.708-0.739
			c1.636,0,2.92,0.499,3.771,1.396c0.897,0.98,1.335,2.336,1.335,4.058v17.802h-5.064v-15.204c0-1.334-0.151-2.226-0.524-2.774
			c-0.327-0.564-0.892-0.826-1.657-0.826c-0.896,0-1.524,0.347-1.878,0.982c-0.393,0.675-0.589,1.808-0.589,3.402v14.42h-5.235
			V251.313z"/>
	</g>
</g>
</svg>
