<?xml version="1.0" encoding="utf-8"?>
<!-- Generator: Adobe Illustrator 16.0.0, SVG Export Plug-In . SVG Version: 6.00 Build 0)  -->
<!DOCTYPE svg PUBLIC "-//W3C//DTD SVG 1.1//EN" "http://www.w3.org/Graphics/SVG/1.1/DTD/svg11.dtd">
<svg version="1.1" id="Capa_1" xmlns="http://www.w3.org/2000/svg" xmlns:xlink="http://www.w3.org/1999/xlink" x="0px" y="0px"
	 width="595.279px" height="209.764px" viewBox="0 28.648 595.279 209.764" enable-background="new 0 28.648 595.279 209.764"
	 xml:space="preserve">
<g>
	<g>
		<path fill="#6098C6" d="M203.413,131.134c4.415,2.041-5.772,1.895-5.922,4.285c-0.232,4.516,6.022,2.78,7.438,5.752
			c-5.186,13.218-28.793,3.43-40.157,1.447c3.044,13.313,25.296,8.063,29.72,20.006c25.804-10.725,43.408-34.249,40.153-65.904
			c-3.602-34.999-35.638-58.201-77.388-55.78c10.327,27.401-27.594,26.171-20.81,50.119c6.109-0.742,8.337-5.328,7.423-12.895
			c6.045-10.364,24.439-8.917,25.261-24.348c16.02-0.119,23.206,8.245,28.283,18.625c8.597,0.771,13.409,5.195,13.409,14.276
			c-17.039-25.197-47.503-0.986-69.919,11.507c-7.008,3.921-15.5,9.046-22.293,12.925c-8.286,4.695-20.809,6.771-13.363,15.723
			c12.094-5.967,27.671-13.765,44.604-22.921c16.814-9.112,39.391-29.426,55.027-14.367c-6.168,9.931,1.228,18.415,4.501,27.232
			c-4.644,1.737-8.328,4.367-14.888,4.303c0.228,4.077,6.213,2.586,10.414,2.833c-3.008,4.734-12.29,3.465-13.381,10.046
			C193.719,131.287,201.257,133.82,203.413,131.134z"/>
		<path fill="#6098C6" d="M143.952,148.352c-5.752,1.616-8.5,6.172-14.878,7.167C133.164,165.527,150.312,159.483,143.952,148.352z"
			/>
		<path fill="#6098C6" d="M123.101,152.661c7.319-7.78,23.974-6.556,23.809-21.512c-12.341,2.479-18.746,10.628-29.743,14.39
			C118.176,148.84,122.07,149.329,123.101,152.661z"/>
		<path fill="#6098C6" d="M112.661,141.211c7.255-6.39,25.969-7.839,20.81-21.478c-8.007,5.142-16.786,9.566-25.256,14.311
			C109.092,137.048,111.365,138.655,112.661,141.211z"/>
		<path fill="#6098C6" d="M100.773,111.148c8.948-5.211,23.215-5.293,22.279-20.061c-8.643,2.706-14.577,7.926-22.279,11.492
			C100.773,105.442,100.773,108.26,100.773,111.148z"/>
		<path fill="#6098C6" d="M169.199,106.797c4.278-1.518,16.435-6.118,19.316-0.022c2.634-2.308,10.304-7.17,8.944-8.551
			C190.415,88.973,173.172,99.659,169.199,106.797z"/>
		<path fill="#6098C6" d="M102.247,93.998c9.076-8.455,28.429-7.028,28.232-24.409C119.755,76.442,102.581,77.12,102.247,93.998z"/>
		<path fill="#6098C6" d="M112.62,68.201c4.506,0.984,11.025-3.821,16.363-7.173c4.944-3.162,14.376-5.513,11.889-14.351
			C128.681,51.175,120.203,59.26,112.62,68.201z"/>
	</g>
	<path fill="#6098C6" d="M95.6,110.096c-1.031-20.024,8.013-35.754,15.815-46.157C98.7,78.722,88.775,99.792,92.157,123.897
		c4.849,34.343,34.4,62.202,71.088,64.726c13.87,0.981,24.955-1.081,34.779-5.045c0-5.816,0-11.623,0-17.394
		C149.449,190.116,97.992,156.277,95.6,110.096z"/>
	<path fill="#6098C6" d="M90.513,123.952c-1.324-26.048,10.423-46.529,20.526-60.013c-16.521,19.209-29.41,46.591-25.014,77.92
		c6.3,44.613,44.687,80.831,92.381,84.132c14.633,1.018,26.923-0.603,37.825-3.998v-21.882
		C155.384,224.461,93.495,181.565,90.513,123.952z"/>
	<g>
		<path fill="#262324" d="M251.016,101.517h9.016c6.894,0,15.938,0.924,15.938,10.377c0,6.369-5.291,8.615-8.812,9.279v0.093
			c6.227,0.977,7.045,4.94,8.035,9.626l2.223,10.277h-6.597l-2.351-10.579c-0.885-3.38-2.095-7.053-8.437-7.053h-2.457v17.632
			h-6.561v-39.653H251.016z M257.576,119.734h2.457c4.159,0,9.382-1.269,9.382-7.538c0-5.351-3.218-6.917-9.382-6.917h-2.457
			V119.734z"/>
		<path fill="#262324" d="M284.102,101.517h21.687v3.762h-15.135v13.377h14.318v3.771h-14.318v14.621h15.614v4.122h-22.165V101.517
			L284.102,101.517z"/>
		<path fill="#262324" d="M312.855,101.517h7.296l16.335,31.353h0.101v-31.353h5.429v39.653h-6.78l-16.81-32.285h-0.109v32.285
			h-5.46L312.855,101.517L312.855,101.517z"/>
		<path fill="#262324" d="M351.488,101.517h21.001v3.762h-14.454v13.377h13.665v3.771h-13.665v18.743h-6.547V101.517z"/>
		<path fill="#262324" d="M376.035,121.336c0-11.903,4.479-20.473,16.039-20.473c11.582,0,16.084,8.571,16.084,20.473
			c0,11.868-4.502,20.442-16.084,20.442C380.514,141.778,376.035,133.204,376.035,121.336z M392.074,138.363
			c8.044,0,9.14-10.025,9.14-17.027c0-7.022-1.096-17.013-9.14-17.013c-8.054,0-9.044,9.991-9.044,17.013
			C383.031,128.337,384.021,138.363,392.074,138.363z"/>
		<path fill="#262324" d="M445.398,101.517h21.722v3.762h-15.156v13.377h14.321v3.771h-14.321v14.621h15.595v4.122h-22.16V101.517
			L445.398,101.517z"/>
		<path fill="#262324" d="M500.434,139.252c-2.2,1.256-5.692,2.525-10.993,2.525c-12.674,0-17.243-10.033-17.243-21.19
			c0-9.617,3.606-19.725,16.171-19.725c9.199,0,13.728,4.892,13.728,11.368h-7.633c0-3.217-1.215-7.907-6.616-7.907
			c-7.515,0-8.729,9.704-8.729,15.211c0,8.921,2.237,18.116,11.373,18.116c5.026,0,8.203-2.539,9.942-3.791V139.252L500.434,139.252
			z"/>
		<path fill="#262324" d="M440.33,138.655c-2.182,1.302-5.661,2.557-10.971,2.557c-12.683,0-17.266-10.062-17.266-21.207
			c0-9.599,3.656-19.705,16.197-19.705c9.209,0,13.715,4.883,13.715,11.378h-7.601c0-3.219-1.22-7.931-6.62-7.931
			c-7.52,0-8.711,9.713-8.711,15.234c0,8.889,2.206,18.095,11.368,18.095c5.004,0,8.172-2.557,9.889-3.773L440.33,138.655
			L440.33,138.655z"/>
	</g>
	<path fill="#6098C6" d="M507.817,153.365H248.724c-1.269,0-2.292-1.014-2.292-2.278c0-1.255,1.023-2.287,2.292-2.287h259.093
		c1.26,0,2.306,1.032,2.306,2.287C510.121,152.351,509.076,153.365,507.817,153.365z"/>
	<g>
		<path d="M247.926,163.248c0.858-0.169,2.146-0.328,3.305-0.328c1.839,0,3.06,0.383,3.854,1.118c0.644,0.589,1.05,1.488,1.05,2.558
			c0,1.738-1.105,2.903-2.484,3.405v0.027c1.013,0.36,1.611,1.301,1.917,2.729c0.435,1.835,0.758,3.114,1.042,3.639h-1.78
			c-0.224-0.361-0.502-1.549-0.877-3.164c-0.397-1.862-1.137-2.548-2.721-2.625h-1.584v5.789h-1.721L247.926,163.248
			L247.926,163.248z M249.647,169.302h1.758c1.844,0,3.014-1.013,3.014-2.547c0-1.731-1.247-2.452-3.068-2.452
			c-0.835,0-1.396,0.055-1.703,0.142L249.647,169.302L249.647,169.302z"/>
		<path d="M265.452,170.152h-5.164v4.821h5.78v1.425h-7.534v-13.327h7.232v1.434h-5.479v4.2h5.163L265.452,170.152L265.452,170.152z
			"/>
		<path d="M268.273,163.248c1.059-0.169,2.333-0.328,3.676-0.328c2.479,0,4.218,0.617,5.41,1.685
			c1.192,1.114,1.899,2.638,1.899,4.794c0,2.173-0.707,3.963-1.94,5.195c-1.26,1.261-3.314,1.936-5.922,1.936
			c-1.223,0-2.237-0.072-3.123-0.164V163.248z M270.013,175.065c0.41,0.049,1.059,0.049,1.716,0.049
			c3.722,0,5.708-2.031,5.708-5.651c0-3.132-1.767-5.136-5.415-5.136c-0.909,0-1.566,0.063-2.008,0.178V175.065z"/>
		<path d="M285.627,176.398v-13.327h1.917l4.237,6.743c0.986,1.557,1.78,2.963,2.401,4.314h0.046
			c-0.15-1.804-0.191-3.405-0.191-5.488v-5.569h1.634v13.327h-1.752l-4.25-6.775c-0.931-1.466-1.785-3.026-2.457-4.456l-0.077,0.023
			c0.109,1.693,0.137,3.286,0.137,5.519v5.689H285.627L285.627,176.398z"/>
		<path d="M300.807,172.202l-1.393,4.195h-1.79l4.565-13.327h2.055l4.547,13.327h-1.835l-1.438-4.195H300.807z M305.193,170.836
			l-1.332-3.826c-0.287-0.886-0.484-1.689-0.671-2.415h-0.051c-0.204,0.726-0.382,1.589-0.676,2.393l-1.301,3.849H305.193z"/>
		<path d="M319.767,175.959c-0.625,0.343-1.898,0.639-3.528,0.639c-3.785,0-6.566-2.332-6.566-6.733
			c0-4.236,2.818-7.031,6.949-7.031c1.652,0,2.734,0.343,3.178,0.575l-0.442,1.416c-0.62-0.307-1.562-0.563-2.667-0.563
			c-3.136,0-5.209,2.022-5.209,5.529c0,3.292,1.89,5.37,5.104,5.37c1.081,0,2.151-0.247,2.84-0.566L319.767,175.959z"/>
		<path d="M323.643,163.071v13.327h-1.754v-13.327H323.643z"/>
		<path d="M338.041,169.576c0,4.598-2.789,7.021-6.186,7.021c-3.553,0-6.004-2.726-6.004-6.784c0-4.241,2.62-7,6.168-7
			C335.668,162.815,338.041,165.6,338.041,169.576z M327.642,169.791c0,2.867,1.576,5.433,4.296,5.433
			c2.739,0,4.273-2.538,4.273-5.569c0-2.667-1.37-5.434-4.261-5.434C329.08,164.221,327.642,166.883,327.642,169.791z"/>
		<path d="M340.246,176.398v-13.327h1.909l4.242,6.743c0.972,1.557,1.78,2.963,2.388,4.314h0.049
			c-0.118-1.804-0.178-3.405-0.178-5.488v-5.569h1.615v13.327h-1.729l-4.241-6.775c-0.954-1.466-1.821-3.026-2.47-4.456
			l-0.069,0.023c0.101,1.693,0.119,3.286,0.119,5.519v5.689H340.246L340.246,176.398z"/>
		<path d="M355.413,172.202l-1.378,4.195h-1.781l4.548-13.327h2.071l4.548,13.327h-1.83l-1.426-4.195H355.413z M359.82,170.836
			l-1.319-3.826c-0.293-0.886-0.497-1.689-0.708-2.415h-0.019c-0.205,0.726-0.407,1.589-0.698,2.393l-1.297,3.849H359.82z"/>
		<path d="M365.352,163.071h1.758v11.902h5.688v1.425h-7.446V163.071z"/>
		<path d="M378.875,163.248c1.063-0.169,2.323-0.328,3.68-0.328c2.474,0,4.236,0.617,5.405,1.685
			c1.215,1.114,1.899,2.638,1.899,4.794c0,2.173-0.685,3.963-1.927,5.195c-1.265,1.261-3.305,1.936-5.939,1.936
			c-1.228,0-2.242-0.072-3.118-0.164V163.248z M380.587,175.065c0.452,0.049,1.101,0.049,1.763,0.049
			c3.713,0,5.685-2.031,5.685-5.651c0.027-3.132-1.754-5.136-5.401-5.136c-0.895,0-1.562,0.063-2.046,0.178V175.065z"/>
		<path d="M398.949,170.152h-5.164v4.821h5.771v1.425h-7.51v-13.327h7.213v1.434h-5.473v4.2h5.163V170.152L398.949,170.152z"/>
		<path d="M405.957,163.071h7.173v1.434h-5.434v4.437h5.026v1.407h-5.026v6.049h-1.739V163.071L405.957,163.071z"/>
		<path d="M427.027,169.576c0,4.598-2.821,7.021-6.214,7.021c-3.547,0-6.008-2.726-6.008-6.784c0-4.241,2.63-7,6.167-7
			C424.639,162.815,427.027,165.6,427.027,169.576z M416.627,169.791c0,2.867,1.556,5.433,4.286,5.433
			c2.717,0,4.278-2.538,4.278-5.569c0-2.667-1.388-5.434-4.278-5.434C418.06,164.221,416.627,166.883,416.627,169.791z"/>
		<path d="M429.24,163.248c0.858-0.169,2.132-0.328,3.287-0.328c1.858,0,3.05,0.383,3.862,1.118
			c0.662,0.589,1.046,1.488,1.046,2.558c0,1.738-1.096,2.903-2.493,3.405v0.027c1.01,0.36,1.644,1.301,1.95,2.729
			c0.424,1.835,0.748,3.114,1.031,3.639h-1.799c-0.224-0.361-0.497-1.549-0.862-3.164c-0.383-1.862-1.132-2.548-2.698-2.625h-1.639
			v5.789h-1.685L429.24,163.248L429.24,163.248z M430.926,169.302h1.789c1.846,0,2.996-1.013,2.996-2.547
			c0-1.731-1.247-2.452-3.073-2.452c-0.84,0-1.405,0.055-1.711,0.142L430.926,169.302L430.926,169.302z"/>
		<path d="M451.082,170.549c-0.069-1.872-0.206-4.137-0.206-5.78h-0.018c-0.466,1.562-1.027,3.224-1.685,5.096l-2.369,6.455h-1.311
			l-2.164-6.364c-0.635-1.872-1.141-3.597-1.528-5.187h-0.028c-0.05,1.676-0.141,3.881-0.278,5.917l-0.355,5.713h-1.64l0.922-13.327
			h2.191l2.306,6.429c0.539,1.652,0.99,3.127,1.323,4.523h0.051c0.351-1.364,0.835-2.844,1.433-4.523l2.374-6.429h2.21l0.808,13.327
			h-1.68L451.082,170.549z"/>
		<path d="M457.701,172.202l-1.369,4.195h-1.791l4.558-13.327h2.063l4.561,13.327h-1.849l-1.42-4.195H457.701z M462.107,170.836
			l-1.342-3.826c-0.282-0.886-0.465-1.689-0.685-2.415h-0.031c-0.196,0.726-0.402,1.589-0.667,2.393l-1.328,3.849H462.107z"/>
		<path d="M476.676,175.959c-0.64,0.343-1.922,0.639-3.539,0.639c-3.756,0-6.57-2.332-6.57-6.733c0-4.236,2.822-7.031,6.963-7.031
			c1.636,0,2.703,0.343,3.179,0.575l-0.438,1.416c-0.645-0.307-1.566-0.563-2.67-0.563c-3.128,0-5.224,2.022-5.224,5.529
			c0,3.292,1.89,5.37,5.104,5.37c1.082,0,2.146-0.247,2.872-0.566L476.676,175.959z"/>
		<path d="M480.534,163.071v13.327h-1.735v-13.327H480.534z"/>
		<path d="M494.96,169.576c0,4.598-2.794,7.021-6.218,7.021c-3.521,0-6.005-2.726-6.005-6.784c0-4.241,2.639-7,6.195-7
			C492.604,162.815,494.96,165.6,494.96,169.576z M484.597,169.791c0,2.867,1.528,5.433,4.265,5.433
			c2.733,0,4.277-2.538,4.277-5.569c0-2.667-1.396-5.434-4.246-5.434C486.002,164.221,484.597,166.883,484.597,169.791z
			 M491.742,159.966l-2.525,2.314h-1.396l1.834-2.314H491.742z"/>
		<path d="M497.17,176.398v-13.327h1.89l4.277,6.743c0.959,1.557,1.74,2.963,2.379,4.314h0.036
			c-0.136-1.804-0.183-3.405-0.183-5.488v-5.569h1.631v13.327h-1.749l-4.236-6.775c-0.927-1.466-1.822-3.026-2.475-4.456
			l-0.063,0.023c0.104,1.693,0.114,3.286,0.114,5.519v5.689H497.17L497.17,176.398z"/>
		<path d="M257.22,199.712c-0.612,0.312-1.891,0.63-3.511,0.63c-3.757,0-6.592-2.36-6.592-6.774c0-4.187,2.835-6.999,6.985-6.999
			c1.625,0,2.693,0.343,3.172,0.585l-0.448,1.401c-0.644-0.311-1.566-0.543-2.675-0.543c-3.123,0-5.204,1.968-5.204,5.51
			c0,3.278,1.881,5.369,5.095,5.369c1.082,0,2.141-0.219,2.839-0.565L257.22,199.712z"/>
		<path d="M270.355,193.321c0,4.557-2.771,7.021-6.186,7.021c-3.529,0-5.995-2.748-5.995-6.807c0-4.223,2.625-6.999,6.173-6.999
			C268.018,186.537,270.355,189.34,270.355,193.321z M260,193.522c0,2.849,1.548,5.425,4.278,5.425c2.712,0,4.287-2.512,4.287-5.552
			c0-2.68-1.406-5.451-4.278-5.451C261.42,187.944,260,190.596,260,193.522z"/>
		<path d="M272.588,200.119v-13.337h1.908l4.246,6.739c0.968,1.589,1.78,2.968,2.392,4.319l0.037-0.015
			c-0.123-1.753-0.183-3.382-0.183-5.433v-5.611h1.634v13.336h-1.744l-4.219-6.798c-0.959-1.469-1.858-2.958-2.479-4.438
			l-0.078,0.037c0.101,1.676,0.109,3.287,0.109,5.501v5.697L272.588,200.119L272.588,200.119z"/>
		<path d="M288.115,188.244h-4.04v-1.462h9.879v1.462h-4.082v11.875h-1.758V188.244L288.115,188.244z"/>
		<path d="M297.15,186.782v13.337h-1.758v-13.337H297.15z"/>
		<path d="M300.14,200.119v-13.337h1.909l4.245,6.739c0.99,1.589,1.764,2.968,2.384,4.319l0.067-0.015
			c-0.154-1.753-0.195-3.382-0.195-5.433v-5.611h1.62v13.336h-1.748l-4.219-6.798c-0.937-1.469-1.83-2.958-2.47-4.438l-0.087,0.037
			c0.108,1.676,0.119,3.287,0.119,5.501v5.697L300.14,200.119L300.14,200.119z"/>
		<path d="M314.882,186.782v7.948c0,2.945,1.319,4.215,3.118,4.215c1.932,0,3.224-1.288,3.224-4.215v-7.948h1.748v7.785
			c0,4.104-2.142,5.774-5.031,5.774c-2.762,0-4.811-1.543-4.811-5.72v-7.84H314.882z"/>
		<path d="M327.409,195.933l-1.366,4.187h-1.789l4.579-13.337h2.035l4.553,13.337h-1.826l-1.425-4.187H327.409z M331.823,194.568
			l-1.319-3.84c-0.306-0.858-0.488-1.635-0.689-2.42h-0.036c-0.195,0.785-0.415,1.589-0.699,2.406l-1.305,3.853L331.823,194.568
			L331.823,194.568z"/>
		<path d="M341.548,186.975c1.055-0.15,2.324-0.301,3.68-0.301c2.479,0,4.255,0.593,5.42,1.675c1.19,1.092,1.899,2.607,1.899,4.78
			c0,2.2-0.709,3.972-1.933,5.195c-1.265,1.241-3.323,1.899-5.93,1.899c-1.237,0-2.246-0.06-3.137-0.113V186.975z M343.297,198.754
			c0.415,0.108,1.032,0.108,1.73,0.108c3.689,0,5.697-2.063,5.697-5.67c0-3.132-1.766-5.14-5.419-5.14
			c-0.903,0-1.574,0.063-2.008,0.164L343.297,198.754L343.297,198.754z"/>
		<path d="M361.609,193.887h-5.141v4.785h5.771v1.447h-7.511v-13.337h7.228v1.434h-5.488v4.219h5.141V193.887z"/>
		<path d="M368.616,186.782h1.744v11.89h5.716v1.447h-7.46V186.782L368.616,186.782z"/>
		<path d="M388.609,193.321c0,4.557-2.789,7.021-6.182,7.021c-3.551,0-6.008-2.748-6.008-6.807c0-4.223,2.625-6.999,6.178-6.999
			C386.271,186.537,388.609,189.34,388.609,193.321z M378.237,193.522c0,2.849,1.538,5.425,4.286,5.425
			c2.735,0,4.27-2.512,4.27-5.552c0-2.68-1.398-5.451-4.246-5.451C379.665,187.944,378.237,190.596,378.237,193.522z"/>
		<path d="M390.617,198.032c0.763,0.484,1.868,0.858,3.059,0.858c1.749,0,2.799-0.908,2.799-2.277c0-1.228-0.708-1.949-2.547-2.626
			c-2.132-0.794-3.497-1.944-3.497-3.824c0-2.046,1.73-3.594,4.305-3.594c1.347,0,2.374,0.287,2.94,0.645l-0.462,1.404
			c-0.429-0.269-1.319-0.606-2.528-0.606c-1.808,0-2.507,1.082-2.507,1.968c0,1.251,0.807,1.862,2.647,2.607
			c2.242,0.821,3.383,1.949,3.383,3.895c0,2.054-1.497,3.862-4.638,3.862c-1.283,0-2.698-0.394-3.424-0.862L390.617,198.032z"/>
		<path d="M411.677,193.887h-5.176v4.785h5.779v1.447h-7.52v-13.337h7.227v1.434H406.5v4.219h5.176L411.677,193.887L411.677,193.887
			z"/>
		<path d="M425.744,194.262c-0.119-1.867-0.219-4.127-0.219-5.775h-0.042c-0.47,1.575-1.023,3.228-1.68,5.081l-2.379,6.478h-1.278
			l-2.196-6.368c-0.616-1.872-1.142-3.598-1.533-5.191h-0.037c-0.046,1.676-0.109,3.908-0.247,5.936l-0.356,5.697h-1.646
			l0.93-13.336h2.184l2.306,6.434c0.557,1.647,0.981,3.122,1.323,4.524h0.042c0.374-1.371,0.835-2.799,1.425-4.524l2.393-6.434
			h2.187l0.858,13.336h-1.722L425.744,194.262z"/>
		<path d="M430.391,186.933c0.827-0.108,1.931-0.259,3.306-0.259c1.698,0,2.948,0.41,3.739,1.132
			c0.712,0.612,1.178,1.575,1.178,2.767c0,1.232-0.356,2.173-1.046,2.835c-0.922,1.014-2.388,1.483-4.058,1.483
			c-0.53,0-0.995-0.026-1.398-0.132v5.359h-1.721V186.933z M432.112,193.366c0.365,0.097,0.85,0.155,1.426,0.155
			c2.091,0,3.355-1.041,3.355-2.825c0-1.813-1.265-2.643-3.154-2.643c-0.759,0-1.352,0.063-1.626,0.136L432.112,193.366
			L432.112,193.366z"/>
		<path d="M440.906,186.782h1.707v11.89h5.715v1.447h-7.423L440.906,186.782L440.906,186.782z"/>
		<path d="M457.14,193.887h-5.177v4.785h5.798v1.447h-7.546v-13.337h7.227v1.434h-5.479v4.219h5.177V193.887z"/>
		<path d="M462.107,195.933l-1.392,4.187h-1.776l4.574-13.337h2.055l4.538,13.337h-1.826l-1.438-4.187H462.107z M466.518,194.568
			l-1.324-3.84c-0.315-0.858-0.502-1.635-0.698-2.42h-0.042c-0.205,0.785-0.41,1.589-0.676,2.406l-1.287,3.853L466.518,194.568
			L466.518,194.568z"/>
		<path d="M472.066,186.975c1.031-0.15,2.313-0.301,3.67-0.301c2.475,0,4.228,0.593,5.396,1.675c1.223,1.092,1.899,2.607,1.899,4.78
			c0,2.2-0.677,3.972-1.918,5.195c-1.269,1.241-3.347,1.899-5.93,1.899c-1.238,0-2.251-0.06-3.118-0.113V186.975L472.066,186.975z
			 M473.777,198.754c0.442,0.108,1.068,0.108,1.767,0.108c3.689,0,5.656-2.063,5.656-5.67c0.014-3.132-1.739-5.14-5.396-5.14
			c-0.918,0-1.543,0.063-2.026,0.164V198.754L473.777,198.754z"/>
		<path d="M496.626,193.321c0,4.557-2.78,7.021-6.172,7.021c-3.571,0-6.026-2.748-6.026-6.807c0-4.223,2.616-6.999,6.187-6.999
			C494.289,186.537,496.626,189.34,496.626,193.321z M486.254,193.522c0,2.849,1.538,5.425,4.287,5.425
			c2.748,0,4.259-2.512,4.259-5.552c0-2.68-1.378-5.451-4.25-5.451C487.659,187.944,486.254,190.596,486.254,193.522z"/>
		<path d="M498.635,198.032c0.78,0.484,1.886,0.858,3.068,0.858c1.739,0,2.784-0.908,2.784-2.277c0-1.228-0.698-1.949-2.516-2.626
			c-2.173-0.794-3.524-1.944-3.524-3.824c0-2.046,1.717-3.594,4.323-3.594c1.352,0,2.342,0.287,2.932,0.645l-0.479,1.404
			c-0.43-0.269-1.297-0.606-2.512-0.606c-1.817,0-2.511,1.082-2.511,1.968c0,1.251,0.78,1.862,2.643,2.607
			c2.269,0.821,3.383,1.949,3.383,3.895c0,2.054-1.496,3.862-4.628,3.862c-1.293,0-2.707-0.394-3.406-0.862L498.635,198.032z"/>
		<path d="M247.926,210.715c1.041-0.21,2.282-0.319,3.647-0.319c2.471,0,4.251,0.589,5.428,1.671
			c1.174,1.069,1.881,2.621,1.881,4.804c0,2.142-0.708,3.953-1.908,5.169c-1.278,1.251-3.324,1.926-5.927,1.926
			c-1.264,0-2.264-0.064-3.122-0.187V210.715L247.926,210.715z M249.647,222.494c0.425,0.063,1.045,0.102,1.749,0.102
			c3.689,0,5.666-2.092,5.666-5.676c0.032-3.182-1.758-5.163-5.396-5.163c-0.895,0-1.593,0.082-2.018,0.187V222.494L249.647,222.494
			z"/>
		<path d="M267.985,217.601h-5.172v4.802h5.793v1.42h-7.533v-13.326h7.227v1.447h-5.488v4.233h5.172V217.601z"/>
		<path d="M284.312,223.434c-0.621,0.312-1.908,0.635-3.534,0.635c-3.776,0-6.566-2.378-6.566-6.788
			c0-4.191,2.831-7.022,6.958-7.022c1.643,0,2.725,0.348,3.191,0.607l-0.466,1.41c-0.588-0.323-1.552-0.574-2.666-0.574
			c-3.114,0-5.2,2.013-5.2,5.542c0,3.26,1.871,5.351,5.104,5.351c1.083,0,2.174-0.225,2.845-0.558L284.312,223.434z"/>
		<path d="M297.469,217.033c0,4.571-2.793,7.036-6.227,7.036c-3.543,0-5.99-2.748-5.99-6.806c0-4.237,2.629-7.022,6.177-7.022
			C295.109,210.24,297.469,213.039,297.469,217.033z M287.074,217.244c0,2.84,1.552,5.414,4.287,5.414
			c2.744,0,4.273-2.512,4.273-5.538c0-2.67-1.406-5.45-4.246-5.45C288.508,211.67,287.074,214.318,287.074,217.244z"/>
		<path d="M310.929,217.975c-0.129-1.845-0.237-4.118-0.237-5.742h-0.028c-0.475,1.506-0.991,3.218-1.681,5.049l-2.364,6.496h-1.292
			l-2.187-6.36c-0.648-1.927-1.128-3.62-1.524-5.186h-0.05c-0.045,1.671-0.124,3.871-0.242,5.875l-0.375,5.715h-1.635l0.937-13.326
			h2.183l2.296,6.466c0.549,1.63,0.991,3.095,1.352,4.482h0.05c0.347-1.36,0.795-2.813,1.389-4.482l2.405-6.466h2.183l0.85,13.326
			h-1.726L310.929,217.975z"/>
		<path d="M322.448,217.601h-5.146v4.802h5.78v1.42h-7.551v-13.326h7.259v1.447h-5.488v4.233h5.146V217.601z"/>
		<path d="M325.295,210.674c0.854-0.168,2.114-0.278,3.305-0.278c1.85,0,3.046,0.343,3.872,1.083
			c0.641,0.588,1.032,1.502,1.032,2.551c0,1.744-1.118,2.932-2.475,3.405v0.051c0.99,0.352,1.612,1.31,1.917,2.707
			c0.443,1.845,0.764,3.149,1.031,3.629h-1.762c-0.237-0.374-0.521-1.483-0.895-3.153c-0.375-1.862-1.123-2.562-2.67-2.611h-1.636
			v5.766h-1.721V210.674L325.295,210.674z M327.017,216.741h1.767c1.83,0,2.99-0.985,2.99-2.516c0-1.73-1.238-2.47-3.077-2.47
			c-0.803,0-1.365,0.037-1.68,0.113V216.741z"/>
		<path d="M345.287,223.434c-0.603,0.312-1.881,0.635-3.524,0.635c-3.762,0-6.574-2.378-6.574-6.788c0-4.191,2.84-7.022,6.967-7.022
			c1.647,0,2.717,0.348,3.196,0.607l-0.456,1.41c-0.612-0.323-1.566-0.574-2.668-0.574c-3.127,0-5.213,2.013-5.213,5.542
			c0,3.26,1.89,5.351,5.112,5.351c1.073,0,2.155-0.225,2.831-0.558L345.287,223.434z"/>
		<path d="M349.167,210.496v13.326h-1.738v-13.326H349.167z"/>
		<path d="M363.604,217.033c0,4.571-2.821,7.036-6.204,7.036c-3.547,0-6.026-2.748-6.026-6.806c0-4.237,2.615-7.022,6.195-7.022
			C361.258,210.24,363.604,213.039,363.604,217.033z M353.203,217.244c0,2.84,1.525,5.414,4.288,5.414
			c2.726,0,4.272-2.512,4.272-5.538c0-2.67-1.384-5.45-4.272-5.45C354.638,211.67,353.203,214.318,353.203,217.244z"/>
	</g>
</g>
</svg>
