<?xml version="1.0" encoding="utf-8"?>
<!-- Generator: Adobe Illustrator 16.0.0, SVG Export Plug-In . SVG Version: 6.00 Build 0)  -->
<!DOCTYPE svg PUBLIC "-//W3C//DTD SVG 1.1//EN" "http://www.w3.org/Graphics/SVG/1.1/DTD/svg11.dtd">
<svg version="1.1" id="Capa_1" xmlns="http://www.w3.org/2000/svg" xmlns:xlink="http://www.w3.org/1999/xlink" x="0px" y="0px"
	 width="595.279px" height="209.764px" viewBox="0 8.059 595.279 209.764" enable-background="new 0 8.059 595.279 209.764"
	 xml:space="preserve">
<g>
	<g>
		<path fill="#828281" d="M206.991,94.542v7.937c-1.443,0.241-2.887,0.481-4.085,0.481c-3.128,0-5.536-0.72-7.22-2.164
			c-1.682-1.446-2.405-3.609-2.405-6.497s0.724-5.05,2.405-6.493c1.685-1.443,4.092-2.164,7.22-2.164
			c1.44,0,2.643,0.238,3.845,0.479v3.127c-1.202-0.24-2.405-0.481-3.366-0.481c-1.442,0-2.643,0.241-3.366,0.481
			c-0.961,0.482-1.445,0.965-1.928,1.923c-0.479,0.723-0.721,1.925-0.721,3.369c0,1.922,0.479,3.369,1.446,4.091
			c0.961,0.958,2.163,1.2,4.089,1.2c0.238,0,0.479,0,0.959,0v-5.291H206.991z"/>
		<path fill="#828281" d="M213.006,101.997c-1.202-0.721-2.163-1.682-2.645-2.884c-0.719-1.203-0.961-2.888-0.961-4.812
			c0-1.922,0.242-3.607,0.961-4.809c0.724-1.205,1.682-2.164,2.645-2.887c1.203-0.724,2.646-0.961,4.332-0.961
			c1.685,0,3.125,0.238,4.33,0.961c1.199,0.724,2.163,1.682,2.643,2.887c0.72,1.202,0.961,2.887,0.961,4.809
			c0,1.926-0.242,3.61-0.961,4.812c-0.72,1.202-1.685,2.164-2.643,2.884c-1.206,0.723-2.646,0.964-4.33,0.964
			C215.652,102.961,214.209,102.72,213.006,101.997 M220.462,98.634c0.724-0.964,0.964-2.407,0.964-4.333
			c0-1.922-0.24-3.366-0.964-4.328c-0.721-0.964-1.682-1.446-3.125-1.446c-1.444,0-2.408,0.481-3.128,1.446
			c-0.721,0.961-0.961,2.404-0.961,4.328c0,1.926,0.241,3.369,0.961,4.333c0.721,0.958,1.685,1.44,3.128,1.44
			C218.539,100.074,219.741,99.592,220.462,98.634"/>
		<path fill="#828281" d="M239.946,95.507c0.481,0.72,0.724,1.44,0.724,2.645c0,0.961-0.242,1.923-0.724,2.646
			c-0.482,0.721-1.443,1.2-2.645,1.682c-1.203,0.482-2.888,0.481-4.813,0.481c-0.721,0-1.443,0-2.402,0
			c-0.964,0-1.685-0.241-2.404-0.241V86.363c0.719-0.24,1.681-0.24,2.643-0.481c0.961,0,1.925-0.238,2.884-0.238
			c2.41,0,4.333,0.479,5.535,1.202c1.203,0.721,1.685,1.923,1.685,3.607c0,0.96-0.24,1.685-0.723,2.405
			c-0.482,0.72-1.203,1.203-1.923,1.443C238.743,94.301,239.463,94.782,239.946,95.507 M231.285,88.769v4.089h2.405
			c1.205,0,1.928-0.238,2.406-0.479c0.482-0.24,0.721-0.964,0.721-1.685c0-0.479,0-0.961-0.238-1.202
			c-0.24-0.241-0.482-0.481-0.961-0.724c-0.482-0.241-1.205-0.241-1.929-0.241C232.728,88.527,232.009,88.527,231.285,88.769
			 M235.859,100.074c0.479-0.24,0.959-0.481,1.199-0.723c0.242-0.238,0.482-0.718,0.482-1.441c0-0.723-0.24-1.447-0.723-1.685
			c-0.479-0.481-1.44-0.481-2.405-0.481h-2.646v4.571c0.482,0,1.203,0,2.167,0C234.413,100.316,235.135,100.316,235.859,100.074"/>
		<rect x="242.832" y="85.882" fill="#828281" width="3.609" height="16.838"/>
		<polygon fill="#828281" points="253.416,99.833 261.593,99.833 261.593,102.72 249.564,102.72 249.564,85.882 261.593,85.882 
			261.593,89.01 253.416,89.01 253.416,92.62 260.388,92.62 260.388,95.744 253.416,95.744 		"/>
		<path fill="#828281" d="M273.86,102.72l-4.33-6.014h-0.238c-0.485,0-1.205,0-1.687,0v6.256h-3.606V86.605
			c0.723-0.241,1.685-0.241,2.645-0.482c0.961,0,1.926-0.241,2.648-0.241c2.404,0,4.327,0.481,5.529,1.446
			c1.203,0.959,1.926,2.164,1.926,4.086c0,1.206-0.242,2.164-0.964,3.128c-0.479,0.722-1.44,1.443-2.402,1.922l4.806,6.738h-4.328
			V102.72L273.86,102.72z M267.604,93.819c0.724,0,1.202,0,1.926,0c1.206,0,2.167-0.241,2.648-0.72
			c0.479-0.479,0.962-1.202,0.962-2.164s-0.242-1.685-0.724-1.925c-0.479-0.482-1.441-0.724-2.648-0.724
			c-0.718,0-1.441,0-1.924,0.241v5.291L267.604,93.819L267.604,93.819z"/>
		<polygon fill="#828281" points="290.699,85.882 294.305,85.882 294.305,102.72 290.458,102.72 283.24,91.655 283.24,102.72 
			279.634,102.72 279.634,85.882 283.482,85.882 290.699,97.188 		"/>
		<path fill="#828281" d="M300.32,101.997c-1.203-0.721-2.164-1.682-2.646-2.884c-0.721-1.203-0.961-2.888-0.961-4.812
			c0-1.922,0.24-3.607,0.961-4.809c0.721-1.205,1.683-2.164,2.646-2.887c1.202-0.724,2.643-0.961,4.327-0.961
			c1.688,0,3.128,0.238,4.33,0.961s2.164,1.682,2.646,2.887c0.721,1.202,0.962,2.887,0.962,4.809c0,1.926-0.241,3.61-0.962,4.812
			c-0.72,1.202-1.685,2.164-2.646,2.884c-1.202,0.723-2.643,0.964-4.33,0.964C302.962,102.961,301.522,102.72,300.32,101.997
			 M307.776,98.634c0.724-0.964,0.961-2.407,0.961-4.333c0-1.922-0.237-3.366-0.961-4.328c-0.72-0.964-1.682-1.446-3.128-1.446
			c-1.443,0-2.404,0.481-3.125,1.446c-0.722,0.961-0.964,2.404-0.964,4.328c0,1.926,0.242,3.369,0.964,4.333
			c0.721,0.958,1.682,1.44,3.125,1.44C306.094,100.074,307.056,99.592,307.776,98.634"/>
		<path fill="#828281" d="M320.763,102.72V86.363c0.723-0.24,1.685-0.24,2.646-0.481c0.964,0,1.926-0.238,2.649-0.238
			c3.122,0,5.526,0.72,6.976,2.164c1.443,1.443,2.404,3.607,2.404,6.493c0,1.926-0.479,3.611-1.206,4.812
			c-0.717,1.202-1.923,2.164-3.365,2.884c-1.442,0.481-3.365,0.964-5.533,0.964C323.89,102.961,322.202,102.961,320.763,102.72
			 M329.424,99.352c0.72-0.479,1.442-0.958,1.681-1.682c0.479-0.723,0.479-1.926,0.479-3.127c0-1.443-0.236-2.404-0.479-3.128
			c-0.481-0.72-0.961-1.44-1.681-1.682c-0.724-0.481-1.686-0.481-2.885-0.481c-0.481,0-1.206,0-1.924,0.241v10.823
			c0.479,0,1.198,0,1.924,0C327.501,100.074,328.699,99.833,329.424,99.352"/>
		<polygon fill="#828281" points="341.69,99.833 349.871,99.833 349.871,102.72 337.843,102.72 337.843,85.882 349.871,85.882 
			349.871,89.01 341.69,89.01 341.69,92.62 348.665,92.62 348.665,95.744 341.69,95.744 		"/>
		<polygon fill="#828281" points="358.045,102.72 358.045,85.882 361.656,85.882 361.656,99.833 369.349,99.833 369.349,102.72 		
			"/>
		<path fill="#828281" d="M382.34,102.72l-1.44-4.568h-6.259l-1.443,4.568h-3.604l5.526-16.838h5.536l5.532,16.838H382.34z
			 M375.603,95.265h4.335l-2.168-7.219L375.603,95.265z"/>
		<path fill="#828281" d="M393.407,86.363c1.681-0.24,3.365-0.481,5.047-0.481c2.646,0,4.333,0.481,5.776,1.446
			c1.199,0.958,1.923,2.404,1.923,4.568c0,1.922-0.724,3.61-1.923,4.568c-1.205,0.964-3.13,1.447-5.532,1.447
			c-0.245,0-0.965,0-1.688,0v4.809h-3.604V86.363L393.407,86.363z M401.582,94.301c0.482-0.481,0.962-1.443,0.962-2.405
			c0-1.202-0.244-1.923-0.962-2.646c-0.481-0.481-1.443-0.723-2.648-0.723c-0.718,0-1.199,0-1.679,0.241v6.256
			c0.479,0,1.199,0,1.679,0C400.139,95.265,401.101,95.024,401.582,94.301"/>
		<path fill="#828281" d="M418.421,102.72l-4.327-6.256h-0.244c-0.481,0-1.2,0-1.683,0v6.256h-3.609V86.363
			c0.718-0.24,1.679-0.24,2.643-0.481c0.967,0,1.929-0.238,2.649-0.238c2.402,0,4.327,0.479,5.533,1.443
			c1.205,0.958,1.923,2.164,1.923,4.087c0,1.205-0.235,2.164-0.962,3.127c-0.479,0.724-1.443,1.443-2.404,1.926l4.81,6.734h-4.328
			V102.72z M412.167,93.819c0.719,0,1.201,0,1.927,0c1.197,0,2.159-0.241,2.641-0.72c0.481-0.479,0.962-1.202,0.962-2.164
			s-0.236-1.685-0.719-1.925c-0.481-0.482-1.443-0.724-2.647-0.724c-0.719,0-1.443,0-1.923,0.241v5.291L412.167,93.819
			L412.167,93.819z"/>
		<path fill="#828281" d="M426.596,101.997c-1.199-0.721-2.16-1.682-2.643-2.884c-0.724-1.203-0.961-2.888-0.961-4.812
			c0-1.922,0.237-3.607,0.961-4.809c0.718-1.205,1.679-2.164,2.643-2.887c1.206-0.724,2.646-0.961,4.333-0.961
			c1.682,0,3.122,0.238,4.327,0.961c1.2,0.724,2.162,1.682,2.648,2.887c0.721,1.202,0.965,2.887,0.965,4.809
			c0,1.926-0.244,3.61-0.965,4.812c-0.722,1.202-1.684,2.164-2.648,2.884c-1.205,0.723-2.646,0.964-4.327,0.964
			C429.241,102.961,427.802,102.72,426.596,101.997 M433.817,98.634c0.717-0.964,0.962-2.407,0.962-4.333
			c0-1.922-0.245-3.366-0.962-4.328c-0.727-0.964-1.688-1.446-3.131-1.446s-2.404,0.481-3.127,1.446
			c-0.717,0.961-0.962,2.404-0.962,4.328c0,1.926,0.245,3.369,0.962,4.333c0.723,0.958,1.684,1.44,3.127,1.44
			S433.09,99.592,433.817,98.634"/>
		<polygon fill="#828281" points="451.852,85.882 455.461,85.882 450.172,102.72 444.637,102.72 439.106,85.882 443.197,85.882 
			447.525,100.074 		"/>
		<rect x="457.149" y="85.882" fill="#828281" width="3.604" height="16.838"/>
		<polygon fill="#828281" points="474.948,85.882 478.314,85.882 478.314,102.72 474.704,102.72 467.246,91.655 467.246,102.72 
			463.88,102.72 463.88,85.882 467.49,85.882 474.948,97.188 		"/>
		<path fill="#828281" d="M483.123,101.036c-1.443-1.443-2.17-3.607-2.17-6.493s0.727-5.051,2.414-6.497
			c1.439-1.44,3.845-2.164,6.731-2.164c1.2,0,2.404,0.241,3.609,0.481v3.128c-1.205-0.241-2.166-0.481-3.374-0.481
			c-1.197,0-2.158,0.24-3.122,0.481c-0.723,0.481-1.439,0.961-1.684,1.682c-0.482,0.723-0.482,1.925-0.482,3.127
			c0,1.443,0.244,2.404,0.482,3.369c0.479,0.724,0.961,1.443,1.684,1.682c0.719,0.482,1.683,0.482,2.887,0.482
			c0.962,0,2.167-0.241,3.366-0.482v3.128c-0.48,0.241-1.199,0.241-1.923,0.481c-0.72,0-1.207,0.241-1.925,0.241
			C486.733,102.961,484.565,102.241,483.123,101.036"/>
		<rect x="495.387" y="85.882" fill="#828281" width="3.611" height="16.838"/>
		<path fill="#828281" d="M513.67,102.72l-1.443-4.568h-6.253l-1.44,4.568h-3.609l5.532-16.838h5.533l5.534,16.838H513.67z
			 M506.691,95.265h4.336l-2.166-7.219L506.691,95.265z"/>
		<path fill="#828281" d="M524.735,102.72V86.363c0.72-0.24,1.683-0.24,2.648-0.481c0.962,0,1.926-0.238,2.644-0.238
			c3.127,0,5.532,0.72,6.976,2.164c1.442,1.443,2.404,3.607,2.404,6.493c0,1.926-0.482,3.611-1.2,4.812
			c-0.727,1.202-1.923,2.164-3.371,2.884c-1.443,0.481-3.369,0.964-5.527,0.964C527.621,102.961,526.177,102.961,524.735,102.72
			 M533.154,99.352c0.717-0.479,1.443-0.958,1.682-1.682c0.487-0.723,0.487-1.926,0.487-3.127c0-1.443-0.243-2.404-0.487-3.128
			c-0.481-0.72-0.965-1.44-1.682-1.682c-0.723-0.481-1.688-0.481-2.884-0.481c-0.481,0-1.206,0-1.926,0.241v10.823
			c0.481,0,1.199,0,1.926,0C531.466,100.074,532.431,99.833,533.154,99.352"/>
		<polygon fill="#828281" points="545.421,99.833 553.602,99.833 553.602,102.72 541.81,102.72 541.81,85.882 553.602,85.882 
			553.602,89.01 545.421,89.01 545.421,92.62 552.397,92.62 552.397,95.744 545.421,95.744 		"/>
		<path fill="#249EB0" d="M220.702,132.545c1.203,1.443,1.922,3.37,1.922,5.773c0,2.405-0.72,4.327-1.922,6.015
			c-1.2,1.681-3.125,2.887-5.773,3.606c-2.646,0.722-6.25,1.204-10.583,1.204c-1.682,0-3.366,0-5.289-0.242
			c-1.928-0.24-3.612-0.24-5.294-0.481v-35.599c1.682-0.479,3.606-0.717,5.771-0.961c2.166-0.238,4.092-0.238,6.014-0.238
			c5.535,0,9.381,0.962,12.029,2.646c2.405,1.682,3.848,4.327,3.848,7.697c0,1.923-0.481,3.608-1.442,5.049
			c-0.961,1.446-2.405,2.405-4.33,2.888C217.818,130.141,219.503,131.103,220.702,132.545 M201.7,117.875v9.139h5.291
			c2.407,0,4.092-0.482,5.292-1.202c0.964-0.72,1.442-1.926,1.442-3.606c0-1.206-0.238-1.923-0.721-2.646
			c-0.481-0.724-1.202-1.205-2.164-1.446c-0.964-0.237-2.405-0.479-4.092-0.479C205.069,117.395,203.385,117.633,201.7,117.875
			 M211.562,142.647c1.202-0.477,2.164-0.958,2.646-1.682c0.479-0.724,0.721-1.685,0.721-2.887c0-1.685-0.482-3.128-1.682-3.85
			c-1.206-0.72-2.888-1.201-5.536-1.201h-6.011v10.1c1.205,0.241,2.888,0.241,4.569,0.241
			C208.438,143.37,210.119,143.128,211.562,142.647"/>
		<path fill="#249EB0" d="M230.803,145.293c-2.402-2.646-3.846-6.491-3.846-11.782V111.86h8.177v22.371
			c0,2.887,0.724,5.05,1.923,6.253c1.206,1.445,3.128,1.926,5.533,1.926c2.645,0,4.329-0.719,5.532-1.926
			c1.203-1.44,1.923-3.366,1.923-6.253V111.86h7.937v21.651c0,5.292-1.2,9.377-3.846,11.782c-2.404,2.648-6.497,3.851-11.784,3.851
			C237.058,149.144,233.208,147.942,230.803,145.293"/>
		<polygon fill="#249EB0" points="272.418,142.409 290.699,142.409 290.699,148.662 264.479,148.662 264.479,111.86 290.458,111.86 
			290.458,118.354 272.418,118.354 272.418,126.773 287.812,126.773 287.812,133.269 272.418,133.269 		"/>
		<polygon fill="#249EB0" points="320.042,111.86 327.739,111.86 327.739,148.662 319.562,148.662 303.446,124.127 303.446,148.662 
			295.746,148.662 295.746,111.86 303.924,111.86 320.042,136.638 		"/>
		<path fill="#249EB0" d="M341.208,147.22c-2.649-1.445-4.572-3.608-6.015-6.255c-1.44-2.888-2.161-6.257-2.161-10.584
			c0-4.089,0.72-7.695,2.161-10.586c1.442-2.884,3.365-4.809,6.015-6.253c2.648-1.44,5.77-2.163,9.381-2.163
			c3.609,0,6.731,0.723,9.379,2.163c2.65,1.443,4.575,3.609,6.017,6.253c1.442,2.891,2.167,6.256,2.167,10.586
			c0,4.327-0.725,7.696-2.167,10.584c-1.441,2.887-3.366,4.809-6.017,6.255c-2.647,1.441-5.77,2.164-9.136,2.164
			C346.978,149.144,343.857,148.662,341.208,147.22 M357.321,139.763c1.443-1.926,2.413-5.054,2.413-9.381
			c0-4.33-0.727-7.458-2.413-9.621c-1.44-1.927-3.846-2.887-6.731-2.887c-2.885,0-5.29,0.96-6.732,2.887
			c-1.44,1.926-2.404,5.05-2.404,9.38c0,4.327,0.718,7.696,2.404,9.622c1.442,1.926,3.849,2.884,6.732,2.884
			C353.476,142.647,355.641,141.689,357.321,139.763"/>
		<path fill="#249EB0" d="M377.05,148.902c-1.687-0.24-3.371-0.724-5.052-1.202v-6.494c1.442,0.483,3.365,0.965,5.052,1.203
			c1.924,0.238,3.606,0.479,5.29,0.479c2.404,0,4.092-0.479,5.053-1.199c0.962-0.724,1.682-1.688,1.682-3.13
			c0-0.722-0.238-1.442-0.481-1.922c-0.238-0.481-0.961-0.965-1.679-1.445c-0.726-0.482-1.925-0.724-3.131-1.203l-2.884-0.72
			c-3.366-0.724-5.779-2.166-7.458-3.851c-1.688-1.682-2.404-4.087-2.404-6.731c0-3.61,1.2-6.256,3.849-8.182
			c2.648-1.922,6.493-2.883,11.547-2.883c1.679,0,3.122,0,4.566,0.238c1.442,0.245,2.885,0.481,4.092,0.724v6.493
			c-1.207-0.482-2.405-0.723-3.85-0.965c-1.443-0.237-2.887-0.237-4.326-0.237c-2.648,0-4.818,0.479-6.015,1.202
			c-1.206,0.721-1.687,1.685-1.687,3.128c0,0.72,0.243,1.439,0.48,1.923c0.244,0.481,0.723,0.964,1.44,1.204
			c0.726,0.479,1.688,0.721,2.893,0.963l2.887,0.719c3.602,0.965,6.249,2.164,7.937,3.85c1.679,1.683,2.641,4.088,2.641,6.732
			c0,2.405-0.479,4.334-1.679,6.017c-1.206,1.68-2.892,3.126-5.054,3.85c-2.165,0.958-4.806,1.438-7.937,1.438
			C380.656,149.144,378.974,149.144,377.05,148.902"/>
		<path fill="#249EB0" d="M439.348,148.662l-3.127-9.859H422.51l-3.127,9.859h-7.938l12.029-36.802h11.781l12.028,36.802H439.348z
			 M424.671,132.545h9.625l-4.806-15.633L424.671,132.545z"/>
		<rect x="451.134" y="111.86" fill="#249EB0" width="8.176" height="36.802"/>
		<path fill="#249EB0" d="M487.694,148.662l-9.379-13.47h-0.482c-1.206,0-2.405,0-3.846-0.241v13.711h-7.94v-36.078
			c1.682-0.479,3.604-0.724,5.527-0.962c1.926-0.241,4.092-0.241,6.015-0.241c5.292,0,9.381,0.96,12.029,2.886
			c2.648,1.923,4.091,4.81,4.091,8.901c0,2.643-0.725,4.81-1.922,6.732c-1.208,1.688-3.131,3.128-5.535,4.09l10.58,14.911h-9.137
			L487.694,148.662L487.694,148.662z M473.742,128.939c1.44,0.238,2.648,0.238,4.089,0.238c2.643,0,4.574-0.479,6.015-1.439
			c1.199-0.964,1.926-2.405,1.926-4.569c0-1.928-0.727-3.61-1.926-4.574c-1.206-0.961-3.128-1.44-5.775-1.44
			c-1.444,0-2.888,0.242-4.328,0.479V128.939z"/>
		<polygon fill="#249EB0" points="508.378,142.409 526.415,142.409 526.415,148.662 500.202,148.662 500.202,111.86 526.177,111.86 
			526.177,118.354 508.378,118.354 508.378,126.773 523.773,126.773 523.773,133.269 508.378,133.269 		"/>
		<path fill="#249EB0" d="M535.323,148.902c-1.688-0.24-3.375-0.724-5.053-1.202v-6.494c1.443,0.483,3.365,0.965,5.053,1.203
			c1.922,0.238,3.601,0.479,5.288,0.479c2.405,0,4.093-0.479,5.053-1.199c0.962-0.724,1.68-1.688,1.68-3.13
			c0-0.722-0.238-1.442-0.481-1.922c-0.236-0.481-0.962-0.965-1.68-1.445c-0.722-0.482-1.931-0.724-3.127-1.203l-2.888-0.72
			c-3.365-0.724-5.775-2.166-7.454-3.851c-1.688-1.682-2.404-4.087-2.404-6.731c0-3.61,1.196-6.256,3.847-8.182
			c2.647-1.922,6.495-2.883,11.549-2.883c1.679,0,3.122,0,4.563,0.238c1.443,0.245,2.888,0.481,4.092,0.724v6.493
			c-1.205-0.482-2.405-0.723-3.849-0.965c-1.44-0.237-2.885-0.237-4.328-0.237c-2.648,0-4.814,0.479-6.015,1.202
			c-1.205,0.721-1.688,1.685-1.688,3.128c0,0.72,0.245,1.439,0.482,1.923c0.244,0.481,0.726,0.964,1.443,1.204
			c0.723,0.479,1.685,0.721,2.884,0.963l2.892,0.719c3.605,0.965,6.254,2.164,7.938,3.85c1.682,1.683,2.643,4.088,2.643,6.732
			c0,2.405-0.481,4.334-1.679,6.017c-1.208,1.68-2.892,3.126-5.054,3.85c-2.168,0.958-4.81,1.438-7.939,1.438
			C538.923,149.144,537.245,149.144,535.323,148.902"/>
	</g>
	<g>
		<g>
			<rect x="73.977" y="51.97" fill="#249EB0" width="1.688" height="6.491"/>
			<rect x="78.069" y="51.97" fill="#249EB0" width="1.682" height="6.491"/>
			<path fill="#249EB0" d="M78.549,49.083h-7.217c-0.481,0-0.961,0.479-0.961,0.961v1.202h-3.609c-1.202,0-2.164,0.962-2.164,2.164
				l-0.241,3.851l-0.721,0.72c-0.481,0.479-0.724,1.443-0.724,1.684v4.328c0,0.481,0.482,0.964,0.965,0.964h0.72
				c0.479,1.203,1.443,2.164,2.89,2.164c1.682,0,2.884-1.443,2.884-2.887c0-1.682-1.442-2.887-2.884-2.887
				c-1.206,0-2.169,0.724-2.651,1.685v-1.203h0.241c0.482,0,0.964-0.481,0.964-0.961c0-0.482-0.481-0.96-0.964-0.96h-0.241v-0.242
				l0.724-0.724h4.812v5.051c0,0.481,0.479,0.964,0.961,0.964h0.965c0.958-0.723,1.68-1.202,2.643-1.681l0,0h-2.643v-1.688h6.973
				c1.926-0.721,4.089-1.441,6.496-1.681H72.295v-8.902h9.137C80.233,50.044,79.51,49.563,78.549,49.083z M67.246,62.552
				c0.717,0,1.202,0.481,1.202,1.203c0,0.72-0.485,1.202-1.202,1.202c-0.724,0-1.206-0.481-1.206-1.202
				C66.041,63.034,66.523,62.552,67.246,62.552z M70.371,56.779h-4.33l0.24-3.369l0,0c0-0.241,0.242-0.482,0.479-0.482h3.609
				L70.371,56.779L70.371,56.779z"/>
			<path fill="#249EB0" d="M83.117,51.97h-0.961v6.491h1.682V52.45C83.358,52.208,83.358,52.208,83.117,51.97z"/>
			<path fill="#249EB0" d="M86.006,54.133v4.328h1.682v-2.883C87.209,54.856,86.489,54.615,86.006,54.133z"/>
			<path fill="#249EB0" d="M43.191,78.909v-7.218l4.33,4.331l1.682-0.723V54.856l4.333-2.407c-0.482,0.961-0.965,1.926-1.206,3.128
				c-1.199,5.53,1.684,10.342,1.925,10.583l0,0c0,1.202,0.479,2.407,1.443,3.366l0.72,0.723c0.238,0.241,0.727,0.241,0.961,0
				l0.485-0.481l0.961,1.202c0.241,0.241,0.724,0.241,0.961,0c0.721-0.479,1.685-0.479,2.163,0c0.482,0.723,0.482,1.685-0.238,2.167
				c-0.724,0.482-1.685,0.482-2.163,0c-0.243-0.241-0.724-0.241-0.968,0c-0.238,0.241-0.479,0.723,0,0.961
				c1.206,1.203,3.131,1.203,4.33,0.241c1.206-0.96,1.443-3.127,0.242-4.33c-0.961-0.961-2.405-1.202-3.604-0.723l-0.243-0.479
				l0.479-0.479c0.241-0.24,0.479-0.723,0-0.964l-0.479-0.964c-0.726-0.958-1.687-1.44-2.889-1.682l0,0
				c-0.241-0.481-5.53-8.901,3.369-15.633l2.646-1.446l-0.482-1.923l-12.749,0.241v-2.887l-0.961-1.203h-6.012l-0.961,0.961v37.281
				l1.203-0.959L43.191,78.909z M58.344,67.604L58.344,67.604l-0.964,1.202l0,0c-0.723-0.721-0.961-1.443-1.202-2.407
				C56.897,66.398,57.621,66.88,58.344,67.604z M57.38,47.878c-0.24,0.24-0.482,0.481-0.723,0.723L54.255,49.8l-2.887-1.922H57.38z
				 M49.203,48.842l2.886,2.164l-2.886,1.443V48.842z M47.279,72.894l-3.606-3.61l3.606-3.366V72.894z M47.279,61.588l-3.369-2.405
				l3.369-2.646V61.588z M47.279,46.916v5.054l-3.606-2.887l3.606-3.369V46.916z M43.191,44.03h2.884l-2.884,2.887V44.03z
				 M43.191,51.487l3.365,2.887l-3.365,2.886V51.487z M43.191,61.107l3.365,2.648l-3.365,3.366V61.107z"/>
			<path fill="#249EB0" d="M55.939,105.366c2.643,0,4.81-1.923,5.292-4.568l0,0c0.24-1.446-0.242-2.886-0.965-3.851
				c-0.959-1.202-2.164-1.921-3.369-1.921c-1.44-0.242-2.884,0.24-3.844,0.961c-1.202,0.96-1.923,2.166-1.923,3.366
				c-0.482,2.89,1.682,5.533,4.568,6.014C55.457,105.366,55.699,105.366,55.939,105.366z M54.255,101.276
				c-0.241-0.479-0.481-0.961-0.481-1.443c0.24-0.961,0.96-1.682,1.925-1.682h0.241c0.479,0,0.958,0.242,1.44,0.721
				c0.241,0.479,0.485,0.961,0.485,1.443s-0.244,0.961-0.72,1.44c-0.488,0.241-0.967,0.484-1.446,0.484l0,0
				C55.217,101.997,54.734,101.756,54.255,101.276z"/>
			<path fill="#249EB0" d="M175.484,102.961c-0.241,0.241-0.241,0.482-0.482,0.482c-0.481,0.482-1.44,1.44-1.923,1.923l-0.24,0.241
				c-0.482,0.481-1.206,0.721-1.929,0.962c-1.682,0.723-2.884,1.925-3.363,3.847c-0.241-0.96-0.481-1.922-0.241-2.646
				c0.241-1.682,1.2-3.127,1.922-4.568c0.242-0.482,0.483-0.724,0.724-1.205c0.239-0.241,0.239-0.721,0-0.961
				c-0.241-0.238-0.481-0.479-0.964-0.479c-2.163,0.241-4.086,1.199-5.773,2.164c0.242-1.202,1.206-1.923,1.929-3.128
				c0-0.241,0.24-0.241,0.24-0.479c0.238-0.24,0.238-0.961,0-1.202c-0.24-0.242-0.723-0.481-1.208-0.242
				c-1.202,0.724-2.643,1.443-3.847,1.923c-0.959,0.481-2.164,0.964-3.364,1.443c-0.966,0.241-1.685,0.72-2.41,1.205
				c0.242-0.485,0.482-0.724,0.727-1.205c0.479-0.721,1.203-1.202,1.926-1.923c0.238-0.241,0.717-0.479,0.958-0.961
				c1.442-1.446,2.404-2.646,3.368-4.333c0.241-0.241,0.241-0.482,0-0.72c0-0.241-0.241-0.479-0.481-0.479
				c-0.961-0.241-1.922-0.481-3.128-0.481c-0.479,0-0.959,0.24-1.199,0.481l0,0l0,0v-0.241c0.24-0.723,0.482-1.205,1.199-1.685
				c0,0,0,0,0.241-0.241c0.481-0.479,0.241-0.961,0.241-1.203c0-0.24-0.241-0.481-0.961-0.723h-0.239
				c-0.723,0.241-1.445,0.241-2.409,0c-1.441-0.241-3.125-0.482-4.81,0l0.241-0.241c0.964-0.958,2.164-1.44,3.849-1.923
				c0.961-0.24,1.923-0.72,2.648-1.202c0.24-0.241,0.481-0.241,0.961-0.482c0.721-0.238,0.721-0.721,0.721-1.202
				c0-0.241-0.241-0.721-0.721-1.202c-0.721,0.961-1.443,0.961-2.405,0.961c0.479-0.241,0.718-0.479,1.203-0.961
				c0.241-0.479,0.724-0.479,1.682-0.961l0,0c0.241,0,0.723-0.482,0.723-0.724c0-0.481,0-0.724-0.481-0.961
				c-0.24,0-0.24-0.241-0.482-0.241c-0.238-0.238-0.479-0.238-0.717-0.479c-1.208-0.964-1.926-1.685-2.41-2.887
				c-0.478-0.964-1.203-1.446-1.923-1.685c-0.481-0.241-1.202-0.479-1.681-0.719c1.199-0.241,2.401-0.241,3.604,0.24
				c1.687,0.479,3.127,1.441,4.574,2.164l0,0c0.238,0,0.479,0.482,0.958,0.241c0.482,0,0.724-0.481,0.724-0.723
				c0.241-2.404-0.482-4.089-1.923-5.773c1.199,0.241,2.405,0.964,3.846,1.925c0.482,0.238,0.964,0.238,1.203-0.24
				c0.244-0.241,0.485-0.721,0.244-1.203c-0.482-0.724-0.482-0.724-0.721-1.202c0-0.241-0.243-0.479-0.243-0.721
				c-0.241-0.481,0-0.723,0-1.445c0-0.241,0-0.482,0-0.721c0-0.961,0.481-1.926,0.72-2.646c-0.477-0.479-0.96-0.72-1.443-1.203
				c-0.721,1.203-1.199,2.646-1.199,3.849c0,0.238,0,0.479,0,0.721c0,0.481,0,0.964,0,1.687c-1.685-0.724-3.369-1.205-5.051-1.205
				c-0.485,0-0.724,0.241-0.961,0.724c-0.242,0.481,0,0.721,0.238,0.961c1.685,1.444,2.887,2.884,3.127,4.571
				c-1.202-0.723-2.404-1.206-3.85-1.688c-3.128-1.2-5.771-0.238-8.175,0.964c-0.245,0.241-0.479,0.481-0.479,0.964
				c0,0.479,0.235,0.718,0.479,0.958c0.241,0.242,0.72,0.242,0.961,0.242c1.442,0.241,2.887,0.481,4.085,0.964
				c0.482,0.241,0.724,0.482,0.964,0.724c0.482,1.2,1.446,2.405,2.888,3.363c-0.479,0.245-0.724,0.482-0.964,0.964
				c-0.241,0.483-0.721,0.723-1.44,0.723c-0.724-0.24-1.205,0.241-1.205,0.479c-0.242,0.241-0.242,0.721,0,1.443l0,0
				c0.723,1.203,1.685,1.682,3.13,1.682c-0.484,0.244-0.961,0.482-1.445,0.482c-1.443,0.481-3.366,0.964-4.569,2.405
				c-0.242,0.241-0.72,0.481-1.202,0.481l0,0c-0.961,0-1.202,0.481-1.447,0.724c-0.235,0.723,0.245,1.443,0.486,1.682
				c0.478,0.481,0.721,0.723,1.443,0.723c0.478,0,1.199,0,1.68,0c1.682-0.241,3.128-0.241,4.569,0c0.241,0,0.727,0,0.964,0.241
				c-0.238,0.241-0.238,0.481-0.238,0.961c-0.242,0.961-0.485,1.202-1.203,1.443c-0.726,0.241-0.964,0.722-0.964,0.964
				c0,0.238,0,0.72,0.479,1.2c0.961,0.723,1.687,0.241,2.164,0c0.726-0.241,1.208-0.72,1.687-1.2c0.238,0,0.238-0.242,0.479-0.242
				l0,0l0.24-0.241c0.481,0,0.724,0,0.964,0c-0.724,0.961-1.446,1.922-2.405,2.887c-0.241,0.241-0.481,0.482-0.967,0.96
				c-0.718,0.721-1.437,1.202-1.923,2.164c-0.961,1.205-1.443,2.648-1.443,4.33c0,0.241,0.241,0.481,0.241,0.724
				c0.241,0.238,0.482,0.238,0.721,0.238c0.482,0,0.726-0.238,0.968-0.479h0.235c0.964-0.724,1.928-1.443,3.127-1.685
				c1.206-0.479,2.405-0.961,3.369-1.443c0,0,0.241,0,0.241-0.241c0,0-0.241,1.205,0,2.405c0,0.24,0.241,0.481,0.479,0.724
				c0.241,0.24,0.721,0,0.961,0c1.446-0.965,2.89-1.923,4.333-2.405c-0.724,1.44-1.685,2.887-1.685,4.568
				c-0.238,2.164,1.203,6.256,2.167,7.217c0.238,0.238,0.717,0.238,0.958,0.238c0.241-0.238,0.481-0.479,0.481-0.719
				c0-0.962,0.241-1.923,0.241-2.885c0.242-1.446,0.961-2.407,2.164-2.887c0.964-0.241,1.687-0.723,2.407-1.443l0.241-0.241
				c0.479-0.238,0.721-0.723,1.203-1.202c0.241-0.241,0.481-0.481,0.481-0.481C175.966,104.404,175.725,103.685,175.484,102.961z"/>
			<rect x="91.778" y="32.244" fill="#249EB0" width="2.166" height="2.164"/>
			<rect x="99.476" y="32.244" fill="#249EB0" width="2.164" height="2.164"/>
			<path fill="#249EB0" d="M89.611,29.599l6.256-4.568v4.086c0,0.241,0.24,0.481,0.24,0.724l0,0l0,0
				c0.241,0.241,0.724,0.241,0.964,0L97.31,29.6l0,0l6.255-4.33l0,0v3.128v0.962c0,0.24,0.238,0.481,0.238,0.723l0,0l0,0
				c0.241,0.241,0.724,0.241,0.964,0l0.241-0.24l0,0l6.25-4.571v2.164h1.928v-3.849c0-0.24-0.242-0.479-0.242-0.724l0,0l0,0
				c-0.24-0.238-0.723-0.238-0.96,0l-0.485,0.244l0,0l-6.25,4.571v-3.369v-0.724c0-0.24-0.241-0.479-0.241-0.723l0,0l0,0
				c-0.241-0.238-0.723-0.238-0.965,0l-0.241,0.244l0,0l-6.253,4.571v-3.369v-0.724c0-0.241-0.24-0.479-0.24-0.723l0,0l0,0
				c-0.239-0.238-0.721-0.238-0.962,0l-7.937,5.776c-0.24,0.238-0.24,0.479-0.24,0.721V38.5c0.482,0.479,1.202,0.717,1.682,1.2
				V29.599H89.611z"/>
			<path fill="#249EB0" d="M82.156,44.03l0.961,0.479l0.967-1.682l-0.967-0.481c-0.961-0.479-1.923-0.958-2.884-1.443l-0.964-0.479
				l-0.959,1.922l0.959,0.481C80.233,43.069,81.195,43.55,82.156,44.03z"/>
			<path fill="#249EB0" d="M119.436,59.665l0.965-0.241l-0.482-1.926l-0.964,0.241c-0.958,0.241-1.923,0.241-2.885,0.481h-0.961
				l0.241,2.164h0.961C117.514,59.907,118.475,59.665,119.436,59.665z"/>
			<path fill="#249EB0" d="M96.347,54.133l1.203-1.685l-2.404-1.685c0,0-0.479-0.241-0.961-0.72l-0.723-0.481l-1.205,1.684
				l0.723,0.482c0.481,0.479,0.964,0.721,0.964,0.721L96.347,54.133z"/>
			<path fill="#249EB0" d="M87.448,47.637c0.24,0.241,0.724,0.481,1.446,0.964l0.717,0.721l1.206-1.685l-0.724-0.721
				c-0.481-0.479-0.96-0.72-1.439-0.961c-0.242-0.241-0.724-0.481-1.206-0.724l-0.721-0.723l-1.202,1.687l0.724,0.72
				C86.727,47.157,86.968,47.399,87.448,47.637z"/>
			<path fill="#249EB0" d="M111.984,60.147l0.238-2.166h-0.964c-0.961,0-1.922-0.241-2.888-0.481l-0.958-0.239l-0.723,1.923
				l0.964,0.242c1.199,0.241,2.163,0.481,3.127,0.481L111.984,60.147z"/>
			<path fill="#249EB0" d="M103.565,58.222l0.721-1.926l-0.721-0.481c-0.961-0.479-1.925-0.958-2.648-1.44l-0.961-0.481
				l-0.961,1.685l0.961,0.479c0.961,0.481,1.923,0.964,2.89,1.443L103.565,58.222z"/>
			<path fill="#249EB0" d="M162.973,87.328c1.446,8.178,9.383,12.987,10.106,13.229c0.241,0,0.961,0.479,2.164,1.199
				c-0.723-0.958-1.202-2.164-1.443-3.363c-1.685-0.964-7.217-5.057-8.416-11.306c-0.724-4.092,0.721-8.66,4.086-12.99
				c0-0.238,0-0.721,0-0.961c0-0.723,0-1.443-0.241-2.405c-0.481,0.238-0.723,0.479-0.723,0.479l0,0
				C163.937,76.745,162.012,82.036,162.973,87.328z"/>
			<path fill="#249EB0" d="M155.759,139.281c-0.239,0-0.239,0-0.479,0c-0.484-0.478-1.926-2.643-3.131-4.571
				c-1.439-2.164-3.125-4.568-4.327-6.49c0.965-0.724,1.443-2.167,1.203-3.852c0,0-0.479-4.086-2.164-4.327
				c-0.479,0-0.961,0.241-1.445,0.959l0,0c-0.478,0.965-0.962,2.41-1.923,3.128c-0.241-0.242-0.72-0.242-0.961-0.242
				c0.721-1.44,0.961-3.124-0.481-5.051l0,0c-0.241-0.48-0.721-0.48-0.961-0.48c-0.479,0-0.721,0.24-0.961,0.48
				c0,0.242-0.242,0.482-0.242,0.724c-0.241,0.724-0.724,1.683-2.405,2.404c-1.687,0.724-2.407,1.923-2.648,3.61
				c-0.721-0.241-1.202-0.724-1.923-0.724c-0.961-0.24-2.163,0-3.124,0.724c-0.724,0.479-0.965,0.958-0.965,1.682
				s0.482,1.685,1.444,2.404c-0.961,0.24-1.926,0.24-2.649,0.481c-0.479,0.723-0.96,1.682-1.682,2.165
				c2.164-0.242,4.571-0.483,7.213-1.203c0.482,0,0.724-0.479,0.724-0.962s-0.241-0.965-0.481-0.965
				c-0.958-0.479-1.924-1.439-2.405-1.922c0.24-0.242,0.964-0.724,1.685-0.481c0.961,0.24,2.405,0.964,2.646,1.687l0,0
				c0.479,0.959,1.202,0.717,1.446,0.479c0,0,0.961-0.479,0.477-1.443c-0.961-2.645,0.726-3.608,1.208-3.85
				c1.44-0.72,2.164-1.439,2.643-1.923c-0.241,1.445-1.443,2.404-1.685,2.646c-0.479,0.242-0.479,0.965-0.242,1.442
				c0.242,0.483,0.965,0.483,1.446,0.242c0,0,1.199-0.72,2.164-0.242c0.479,0.483,0.958,0.242,1.199,0.242
				c1.205-0.72,2.169-1.685,2.646-2.885c0.244,0.719,0.244,1.683,0,2.643c0.244,0.721,0,0.721-0.235,0.963
				c-0.241,0-0.726,0.24-0.967,0.964c0,0.481,0,0.723,0.241,0.961c1.446,1.685,3.369,4.572,5.054,7.219
				c2.405,3.606,3.124,4.809,3.844,5.29c0.241,0.241,0.482,0.241,0.967,0.241c0.239,0,0.239,0,0.478,0
				c0.244,0.724-0.238,1.923-0.478,2.888h-0.24c-0.244,0-0.484,0.237-0.484,0.479c-0.478,0.72-1.441,1.926-1.682,2.166
				c-0.724,0.482-1.443,0.241-2.888-0.481c-0.481-0.242-0.96-0.482-1.44-0.482c-2.169-0.481-4.815-0.958-7.94-0.24
				c-1.442,0.24-2.884,0.723-4.33,1.445c-1.685,0.958-2.646,4.81-2.887,6.491c0,0.481,0.24,1.207,0.723,1.207h0.241
				c0.479,0,0.958-0.243,0.958-0.965c0.482-2.405,1.446-4.569,1.928-5.052c1.203-0.722,2.646-1.201,3.849-1.438
				c2.643-0.482,5.047-0.241,6.976,0.237c0.24,0,0.72,0.241,0.961,0.479c1.203,0.722,3.366,1.685,5.053,0
				c0.478-0.479,1.44-1.682,1.923-2.163h0.241c0.241,0,0.481-0.241,0.723-0.483c0.239-0.476,1.924-3.603,0.718-5.769
				C157.204,139.522,156.483,139.281,155.759,139.281z"/>
			<path fill="#249EB0" d="M159.848,116.19c-3.125,0-6.255,1.443-8.177,3.607l0,0l0,0c-0.241,0.244-0.479,0.484-0.721,0.724
				l0.479,0.96c2.646,0.483,5.294,3.128,5.294,3.128l0.481,0.482l0.479-0.242c0.479-0.24,1.202,0,1.923,0.242l-2.884,5.291
				c-0.482,0-0.726,0-1.203,0c-0.241,0-0.484,0-0.726,0c-0.478,0-0.962,0-1.682,0c-0.724,0-1.206,0-1.923,0l1.923,2.646
				c0.961,0,2.646,0,3.609,0h0.241c0.958,0,1.923,0.24,2.884,0.24c2.405,0.242,4.572,0.962,6.735,1.44
				c0.482-0.719,0.964-1.44,1.443-2.164c-2.883-0.959-6.252-1.683-9.621-2.163l2.405-4.571c0.481,0.481,0.964,0.72,0.964,1.202
				l0.238,0.965l0.961-0.241c0.964-0.241,2.41,0.241,4.092,1.923l0,0l0,0c0.24,0.241,0.481,0.481,0.723,0.723l0.716,0.242
				c0.965-1.447,1.446-3.37,1.446-5.052C170.431,120.519,165.621,116.19,159.848,116.19z M168.267,128.219
				c-1.442-1.446-3.125-2.167-4.568-1.927c-1.208-1.926-4.092-3.368-6.014-3.124c-0.721-0.724-2.165-1.928-3.851-2.649
				c1.688-1.442,3.851-2.407,6.256-2.407c4.812,0,8.657,3.61,8.657,7.94C168.506,126.773,168.506,127.496,168.267,128.219z"/>
			<path fill="#249EB0" d="M134.111,143.128c0.721-0.481,1.44-0.24,1.923-0.24c0.481,0.24,0.964,0,1.202-0.479
				c0.243-0.238,0.243-0.72,0.243-1.203c-0.243-0.724-0.72-1.205-1.205-1.684c-0.724-0.479-1.443-0.72-2.405-0.72
				c-1.923-2.164-4.085-3.852-5.773-4.093c0,0-0.96-0.241-1.681-0.241c-1.685,0.241-3.369,0.724-4.569,1.926
				c-1.205,1.203-2.41,2.648-2.891,4.331l0,0c-0.238,0.48-0.238,1.445-0.479,1.922c-0.238,1.688,0.242,3.368,0.961,5.295l0.482,0.96
				c0.964,1.686,2.167,3.37,3.369,4.33c0.961,0.722,1.682,0.963,2.404,0.963c0.241,0,0.481,0,0.724-0.241
				c1.199-0.481,1.681-2.405,1.44-5.052l0,0c0-0.722-0.482-2.887-0.721-3.608c-0.241-0.722-0.241-1.201-0.481-1.924
				c0,0-0.238-2.645,0.96-2.887c1.206-0.241,2.17,0,2.411,0.723c0,0.241-0.24,0.483-0.24,0.965c-0.242,0.718,0,1.922,0.961,3.121
				c0.238,0.482,0.961,0.482,1.443,0.241c0.479-0.241,0.72-0.72,0.72-1.199C133.147,143.852,133.388,143.37,134.111,143.128z
				 M125.933,152.75c-0.24,0-0.723,0-1.443-0.72c-0.961-0.723-1.925-1.923-2.884-3.369c0.958-0.961,2.405-1.923,4.327-1.439
				c0.241,0.72,0.241,1.922,0.241,2.163l0,0C126.654,151.066,126.415,152.512,125.933,152.75z M122.326,144.813
				c0.238-0.241,0.479-0.241,0.721-0.241c0,0,0.481,0,0.723,0c0,0.241,0,0.72,0,1.443c-0.241,0-0.241,0-0.481,0.24
				C122.565,145.533,122.326,145.058,122.326,144.813z M131.707,143.37c0-0.723,0.24-1.199,0.24-1.199
				c0.242-0.241,0.242-0.481,0-0.724c-0.24-0.722-0.964-1.445-1.684-1.684c-0.961-0.482-1.926-0.482-2.89-0.241
				c-0.72,0.241-1.2,0.72-1.681,1.443c-0.724,1.205-0.724,2.887-0.242,4.809c-0.241,0-0.241,0-0.481,0c0-0.718,0-1.44,0-1.683
				c0-0.479-0.238-0.723-0.721-0.964c-0.961-0.241-1.923,0-1.923,0s-0.961,0.241-1.685,0.964c-0.479,0.721,0,1.683,0.241,2.164
				c0,0,0.241,0.241,0.241,0.481c0,0.241,0.241,0.241,0.241,0.481c-0.241,0.242-0.482,0.242-0.724,0.479
				c-0.479-1.203-0.723-2.643-0.723-4.088l0,0c0-0.242,0.243-0.966,0.243-1.441v-0.241l0,0c0.479-1.447,1.203-2.888,2.402-3.61
				c0.964-0.724,2.167-1.202,3.85-1.439c2.164-0.242,5.05,2.643,6.015,3.846c0.238,0.24,0.479,0.48,0.716,0.24
				c0.964,0,1.446,0.242,1.926,0.482l0,0c-0.479,0-1.203,0-1.926,0.481C132.668,141.929,131.948,142.647,131.707,143.37z"/>
			<path fill="#249EB0" d="M124.732,149.625c-0.242-0.241-0.482-0.241-0.721,0c-0.242,0-0.482,0.239-0.724,0.482
				c-0.241,0.241-0.241,0.479,0,0.717c0,0.241,0.24,0.481,0.481,0.724c0.242,0,0.242,0.24,0.479,0.24h0.241
				c0.241,0,0.479-0.24,0.721-0.48c0.24-0.242,0.24-0.482,0-0.721C125.21,150.108,124.969,149.863,124.732,149.625z"/>
			<rect x="102.364" y="41.866" fill="#249EB0" width="5.529" height="2.164"/>
			<rect x="102.364" y="45.232" fill="#249EB0" width="5.529" height="2.167"/>
			<path fill="#249EB0" d="M118.237,32.486h-2.167c-0.238,0-0.238,0.241-0.238,0.241v1.923h-1.925c-0.238,0-0.238,0.24-0.238,0.24
				v2.164c0,0.241,0.238,0.241,0.238,0.241h1.925v1.923c0,0.241,0.238,0.241,0.238,0.241h2.167c0.238,0,0.238-0.241,0.238-0.241
				v-1.923h1.927c0.24,0,0.24-0.241,0.24-0.241V34.89c0-0.24-0.24-0.24-0.24-0.24h-1.927v-1.923
				C118.475,32.727,118.475,32.486,118.237,32.486z"/>
			<path fill="#249EB0" d="M120.162,50.765v-4.328h1.203v-1.205h-1.687h-4.81h-1.681v1.205h1.199v5.533c0.482,0,0.723,0,1.206,0
				v-5.292h3.609v4.809C119.436,51.005,119.678,51.005,120.162,50.765z"/>
			<path fill="#249EB0" d="M109.336,29.117v9.142h-9.143c-0.479,0-0.958,0.479-0.958,0.958v7.46c0.479,0.479,1.199,0.721,1.682,1.2
				v-7.696h8.42v11.306c0.481,0.241,1.202,0.241,1.687,0.241V30.081h12.024v18.761l1.685-1.205v-7.455h8.415v3.609l0.482,0.238
				c0.241-0.479,0.724-0.721,1.443-0.721v-4.092c0-0.479-0.479-0.959-0.961-0.959h-9.143v-9.142c0-0.479-0.479-0.961-0.958-0.961
				h-13.956C109.818,28.396,109.336,28.637,109.336,29.117z"/>
			<path fill="#249EB0" d="M116.312,111.86l-0.242,6.494c0.242,0,0.721,0,0.962,0.24c0.241,0,0.723,0.242,0.964,0.482l3.127-5.774
				C121.123,113.062,119.436,111.139,116.312,111.86z"/>
			<path fill="#249EB0" d="M114.627,118.834l-1.922-6.252c0,0-2.888-0.242-4.333,2.643l4.574,4.814
				C113.427,119.318,113.907,119.077,114.627,118.834z"/>
			<path fill="#249EB0" d="M104.767,122.924l6.732,0.244c0-0.244,0-0.723,0.244-1.204c0-0.242,0.241-0.724,0.479-0.965l-6.252-2.888
				C105.97,118.112,104.044,119.797,104.767,122.924z"/>
			<path fill="#249EB0" d="M107.893,131.103l4.812-4.572c-0.483-0.479-0.962-1.199-1.206-1.682l-6.25,1.924
				C105.249,126.773,105.249,129.418,107.893,131.103z"/>
			<path fill="#249EB0" d="M111.024,133.269L111.024,133.269L111.024,133.269L111.024,133.269L111.024,133.269
				C111.024,133.509,111.024,133.509,111.024,133.269C111.258,133.509,111.258,133.509,111.024,133.269
				c0.235,0.242,0.235,0.242,0.235,0.242l0,0c0,0,0,0,0.241,0l0,0c0,0,0,0,0.244,0l0,0c0,0,0,0,0.241,0l0,0h0.238l0,0h0.241l0,0
				h0.242l0,0h0.241l0,0h0.241l0,0h0.241l0,0h0.242l0,0c0,0,0.238,0,0.479,0l0,0h0.238l0,0h0.24l0,0h0.241l0,0h0.241l0,0v-0.242
				l0.241-6.495l0,0c-0.241,0-0.723,0-0.965-0.243c-0.238,0-0.716-0.236-0.958-0.478l-2.645,5.051L111.024,133.269L111.024,133.269
				L111.024,133.269z"/>
			<path fill="#249EB0" d="M124.011,131.343l-4.575-4.813c-0.481,0.482-1.199,0.965-1.682,0.965l1.924,6.256
				C119.436,133.991,122.326,133.991,124.011,131.343z"/>
			<path fill="#249EB0" d="M127.374,123.41l-6.732-0.241c0,0.241,0,0.717-0.24,0.959c0,0.24-0.239,0.722-0.482,0.964l6.014,3.128
				C126.174,128.459,128.096,126.531,127.374,123.41z"/>
			<path fill="#249EB0" d="M126.895,119.797c0,0,0.241-2.885-2.645-4.331l-4.813,4.574c0.482,0.479,0.965,1.2,0.965,1.924
				L126.895,119.797z"/>
			<path fill="#249EB0" d="M119.436,123.168c0-1.928-1.439-3.371-3.366-3.371c-1.922,0-3.365,1.443-3.365,3.371
				c0,1.923,1.443,3.362,3.365,3.362C117.997,126.531,119.436,125.091,119.436,123.168z"/>
			<rect x="116.312" y="86.123" fill="#249EB0" width="2.163" height="2.164"/>
			<rect x="116.312" y="89.732" fill="#249EB0" width="2.163" height="2.164"/>
			<rect x="138.445" y="86.123" fill="#249EB0" width="2.164" height="2.164"/>
			<rect x="138.445" y="89.732" fill="#249EB0" width="2.164" height="2.164"/>
			<rect x="143.013" y="56.057" fill="#249EB0" width="2.163" height="2.166"/>
			<rect x="130.746" y="49.563" fill="#249EB0" width="2.163" height="2.167"/>
			<path fill="#249EB0" d="M62.672,114.505c6.738,1.443,13.956,5.292,17.562,9.622l2.405-0.718
				c-3.849-5.055-11.788-9.142-19.484-11.067c-6.735-1.684-15.154-1.202-21.887,1.926v2.646
				C48,113.062,56.178,112.82,62.672,114.505z"/>
			<path fill="#249EB0" d="M65.799,110.416L65.799,110.416c7.216,1.688,15.633,6.979,19.243,11.549l2.405-0.724l0,0
				c-3.609-4.81-11.782-10.341-19.24-12.505c0.478-0.241,1.202-0.724,1.202-0.724c0.241-0.241,0.724-0.481,0.961-0.964
				c7.217,2.167,16.118,8.418,19.241,13.234l0,0l2.166-0.724c0-0.24-0.241-0.48-0.241-0.722c-0.72-0.962-1.684-2.164-2.883-3.37
				c0.479-0.479,1.923-1.439,2.404-1.682c5.533-3.127,19.967-7.697,27.418-5.773c0.24,0.241,0.479,0.241,0.479,0.241
				c1.928,1.443,5.056,2.405,8.18,2.646c0.239,0,0.239,0,0.479,0c0.481,0,0.964,0,1.447,0c0,0.241,3.369-0.483,4.328-0.964
				c0.241,0,0.241,0,0.481-0.238c1.203-0.482,2.646-0.721,4.092-0.241c0.721,0.241,1.199,0.479,1.923,0.96c0,0,0.242,0,0.242,0.242
				c0.24,0.241,0.481,0.481,0.72,0.481c2.405,1.923,5.054,3.606,8.42,4.086c1.925,0.24,4.089,0,6.014-0.479
				c0.241,0,0.718-0.24,0.961-0.24c1.203-0.239,1.923-0.962,3.128-1.204c1.682-0.241,4.087-0.481,6.014,0.242
				c-0.482-0.961-0.964-1.685-0.964-2.645c-1.446,0,0,0-1.687,0c-2.405-0.241-4.087,0-6.735,0.96c0,0-0.478,0.244-0.961,0.244
				c-1.203,0.238-2.888,0.717-4.087,0.717h-0.241c-2.405-0.238-5.054-1.2-7.218-2.645c-0.241,0-0.241-0.242-0.479-0.242
				c-0.724-0.479-1.446-1.2-2.167-1.681c-0.479-0.241-0.961-0.481-1.442-0.723c-2.167-0.718-4.572-0.718-6.495,0.241
				c-1.443,0.723-3.366,0.964-5.294,0.964c-3.604-0.241-7.937-3.128-7.937-3.128c-2.646-2.164-5.771-4.089-9.381-5.532l0,0l0,0
				c3.13-1.682,6.976-3.128,10.827-3.849c0.723-0.241,1.44-0.241,2.164-0.241s1.682-0.242,2.405-0.242c0.961,0,4.812,0,4.812,0
				c0.96,0,2.164,0,3.125,0c6.978,0.481,13.473,2.649,18.519,6.497c0.241-0.964,0.965-1.926,1.443-2.407
				c-2.643-1.922-5.771-3.369-9.14-4.568V83.478c0-0.241,0-0.482-0.241-0.721c-0.24-0.241-0.481-0.241-0.721-0.241h-5.529v-0.479
				c0-0.481-0.241-0.723-0.482-0.964l-7.216-4.568v-1.206h5.529c0.242,0,0.482,0,0.724-0.241c0.244-0.242,0.244-0.481,0.244-0.721
				v-3.369c0-0.238,0-0.479-0.244-0.721c-0.241-0.241-0.481-0.241-0.724-0.241l0,0H129.3c-0.241,0-0.482,0-0.724,0.241
				c-0.241,0.241-0.24,0.482-0.24,0.721v5.536l-7.215,4.568c-0.241,0.241-0.481,0.481-0.481,0.964v0.479h-5.533
				c-0.241,0-0.481,0-0.724,0.241c-1.199,0.238-1.199,0.479-1.199,0.721v12.029c-0.241,0-0.241,0-0.241,0.238
				c-0.482,0.242-1.203,0.481-1.687,0.721c-0.235,0-0.235,0.241-0.477,0.241c-0.726-0.961-1.445-1.923-1.928-3.127
				c-0.483-0.72-0.721-1.682-0.961-2.404c-0.238-0.958-0.238-1.682-0.238-2.646c0-0.961,0.238-1.923,0.478-2.646l0.96-2.887
				c-1.202,0-2.163-0.238-3.366-0.238c0-0.482,0-0.961,0-1.443c0-0.241,0-0.724,0-0.961c0-0.244,0-0.244,0-0.485v-0.238V79.39
				c0-0.238,0.241-0.72,0.241-0.96c0-0.241,0-0.241,0.238-0.482v-0.241v-0.238c0.241-0.242,0.241-0.721,0.481-0.961
				c0,0,0-0.242,0.241-0.242c0,0,0,0,0-0.241s0.241-0.241,0.241-0.481c0.24-0.242,0.482-0.481,0.721-0.723l0.241-0.241
				c0,0,0,0,0.238,0c0,0,0,0,0.241,0c0.242-0.239,0.481-0.239,0.723-0.479l0.242-0.238h0.24h0.238
				c0.482-0.241,0.967-0.241,1.443-0.482h0.244l0,0h0.241c0.238,0,0.479,0,0.72,0c0.241,0,0.482,0,0.723,0c0.243,0,0.242,0,0.479,0
				h0.241l0,0c0.721,0,1.203,0.241,1.922,0.482c0.242,0,0.242,0,0.482,0.238h0.238c0,0,0,0-0.238,0l0,0
				c0.238,0,0.238,0.241,0.478,0.241c0.242,0.239,0.724,0.479,0.965,0.479c1.922,0.723,4.088,0,6.253-0.479
				c0.481,0,0.721-0.241,1.202-0.241v-2.167c-0.24,0-0.481,0-0.961,0.245c-0.721,0.238-1.685,0.238-2.405,0.479
				c-0.238,0-0.478,0-0.72,0.24h-0.241c0,0,0,0-0.241,0s-0.241,0-0.482,0c-0.238,0-0.723,0-0.964,0h-0.235l0,0l0,0h-0.246h-0.239
				l0,0c-0.241,0-0.241-0.24-0.479-0.24c-0.482-0.242-0.964-0.479-1.446-0.724c-1.199-0.479-2.404-0.72-3.845-0.72
				c-2.648,0-5.291,0.964-6.976,2.887c-1.203,1.202-2.167,2.648-2.646,4.33c0.241,1.44,0.241,2.886,0.241,4.329
				c-0.961,0-1.925,0-2.89,0c0-2.167,0.241-4.329,0.965-6.494c0.238-0.482,0.238-0.964,0.723-1.446
				c0.241-0.241,0.241-0.479,0.482-0.72l0.241-0.238c0,0,0,0,0.239-0.241l0,0c0.24-0.481,0.72-0.724,1.202-1.206l0.241-0.238
				c0,0,0,0,0.241-0.245c0,0-0.241,0,0,0c0.241-0.238,0.479-0.238,0.72-0.479c0.479-0.241,0.961-0.481,1.443-0.721
				c0,0,0.24,0,0.24-0.241h0.242c0.238,0,0.479-0.241,0.716-0.241c0.965-0.241,2.167-0.481,3.372-0.724
				c1.203-0.241,2.405-0.479,3.366-1.44c0.961-0.723,1.443-1.687,2.405-2.407c0.24-0.238,0.24-0.238,0.482-0.479
				c0.241-0.241,0.479-0.241,0.72-0.481c0.239-0.241,0.485-0.241,0.721-0.481c0,0,0,0,0.242,0l0,0l0,0
				c0.241,0,0.241-0.241,0.484-0.241c0.961-0.479,2.164-0.717,3.125-0.961h0.241c1.682-0.479,3.606-0.479,5.773-0.479
				c3.845,0.241,7.934,0.961,11.543,1.923c3.366,0.723,6.976,1.685,10.344,1.923c0.239,0,0.717,0,0.958,0
				c3.61,0,7.699-1.44,10.342-3.846c-0.479-0.481-0.959-0.964-1.682-1.445c-2.404,1.925-5.773,3.127-8.419,3.127v-6.973
				c0-0.241-0.242-0.481-0.242-0.723l-1.44-1.203v-3.848c0-0.481-0.483-0.723-0.723-0.723h-2.405c-0.479,0-0.721,0.481-0.721,0.723
				v0.962l-2.407-1.443c-0.241-0.241-0.724-0.241-0.961,0l-3.125,2.164v-2.164c0-0.241-0.242-0.482-0.242-0.721l-1.442-1.202v-3.851
				c0-0.479-0.479-0.724-0.721-0.724h-2.41c-0.479,0-0.721,0.482-0.721,0.724v0.964l-2.402-1.443c-0.24-0.244-0.723-0.244-0.964,0
				l-7.937,5.771c-0.241,0.241-0.241,0.241-0.241,0.482c-5.773,2.164-10.583,2.645-14.917,1.443
				c-5.527-1.443-10.101-4.813-14.428-8.178l-0.244-0.241c-3.847-3.128-7.451-6.012-11.785-7.937
				c-0.481,0.481-1.202,0.961-1.681,1.443l0,0c4.327,1.922,8.177,4.809,12.023,7.696c4.574,3.609,9.383,7.217,15.157,8.901
				c4.572,1.443,10.101,0.964,15.875-0.964v5.533l1.683-0.479v-6.493l6.978-5.051l3.125,2.164c0.242,0.241,0.479,0.241,0.962,0
				c0.241-0.241,0.481-0.481,0.481-0.723v-1.682h0.721v3.125c0,0.238,0.243,0.482,0.243,0.724l1.443,1.203v2.887l-3.131,2.405
				c-0.241,0.241-0.241,0.481-0.241,0.721v3.847c-3.845-0.72-7.937-0.961-11.782-0.241h-0.241c-1.443,0.482-2.646,0.724-4.092,1.205
				c-5.768,1.682-12.024,0.964-17.559-1.443c-5.771-2.645-10.584-6.976-15.63-10.582c-5.774-4.09-12.03-7.94-19.247-8.178
				c-5.051-0.241-9.862,0.238-14.913,0.238v1.926c4.568,0,9.142-0.241,13.952-0.241c2.646,0,5.292,0.241,7.937,1.443
				c4.092,1.685,7.937,4.089,11.306,6.735c4.09,2.89,7.94,6.252,12.268,8.898c-3.125-0.238-6.256-0.238-9.38,0.241
				c-4.333,0.482-8.419,1.687-12.029,3.61c-1.923,1.202-3.846,2.404-5.531,4.089l1.443,1.444c0.241-0.241,0.721-0.724,0.96-0.964
				c0.238-0.241,0.238-0.241,0.479-0.479l0.241-0.24l0,0h0.241c0.723-0.479,1.688-1.203,2.407-1.685
				c0.961-0.481,1.685-0.961,2.643-1.443c0,0,0.241,0,0.241-0.238h0.241c0.241,0,0.481-0.241,0.723-0.241
				c0.479-0.241,0.962-0.241,1.441-0.482c4.092-1.44,8.419-1.685,12.752-1.685c2.646,0,5.288,0.244,7.694,0.482c0,0,0,0,0.243,0
				c4.087,1.685,8.42,2.404,12.747,1.925c-0.241,0.238-0.481,0.479-0.724,0.958c-0.238,0.241-0.479,0.482-0.716,0.482l0,0
				c0,0,0,0-0.242,0c-0.24,0-0.24,0.241-0.482,0.241l0,0c0,0,0,0-0.241,0c-0.242,0-0.242,0-0.482,0.241
				c-0.238,0-0.479,0.241-0.964,0.241c-1.203,0.241-2.164,0.241-3.366,0.723c-1.203,0.241-2.164,0.72-3.125,1.44
				c-2.163,1.202-3.85,3.128-4.812,5.533c-0.961,2.645-1.202,5.292-1.443,7.937c-0.482,0-0.721,0-0.721,0
				c-0.721,0-1.685,0.241-2.405,0.241c0,0,0.721,2.646,0.721,2.887c0.24,0.724,0.24,1.682,0.24,2.404
				c0,1.685-0.481,3.369-1.202,4.81c-0.479,0.964-0.96,1.687-1.685,2.648c-0.482,0.479-0.724,0.961-1.206,1.203
				c-0.241,0-0.241,0-0.479,0c-0.241,0-0.483,0-0.721,0c-0.724,0-1.205,0-1.925,0c-0.479,0-0.721,0-1.203,0
				c-0.481,0-0.961,0-1.202,0.241v-4.333h2.405c0.241,0,1.442-0.238,1.925-0.479c0.238-0.238,0.721-0.72,0.721-0.72
				c0.96-0.964,1.446-2.164,1.446-3.609c0-0.481-0.486-0.721-0.726-0.721H89.84c-1.2,0-2.164,0.479-3.125,0.961v-1.682
				c0.721,0.241,1.685,0.241,2.167-0.241c0.716-0.481,1.199-0.964,1.439-1.685c0.96,0.238,1.922,0,2.646-0.721
				c0.721-0.723,0.964-1.685,0.721-2.645c0.967-0.241,1.687-0.964,1.925-2.167c0.242-0.961,0-1.926-0.716-2.884
				c0.716-0.723,0.958-1.687,0.716-2.887c-0.238-0.964-0.958-1.685-1.925-2.167c0.243-0.962,0-1.926-0.721-2.646
				c-0.724-0.72-1.685-0.961-2.646-0.72c-0.241-0.964-0.961-1.687-2.163-1.928c-0.961-0.238-1.924,0-2.888,0.723
				c-0.724-0.723-1.687-0.961-2.887-0.723c-0.964,0.241-1.685,0.964-2.164,1.928c-0.964-0.241-1.923,0-2.646,0.72
				c-0.723,0.721-0.96,1.685-0.724,2.646c-0.958,0.238-1.685,0.961-1.925,2.167c-0.238,0.958,0,1.922,0.726,2.887
				c-0.726,0.721-0.964,1.682-0.726,2.884c0.241,0.961,0.967,1.685,1.925,2.167c-0.238,0.961,0,1.923,0.724,2.645
				c0.724,0.721,1.682,0.959,2.646,0.721c0.241,0.721,0.721,1.443,1.44,1.685c0.724,0.241,1.685,0.481,2.41,0v1.923
				c-0.967-0.723-1.928-1.202-3.131-1.202H78.31c-0.482,0-0.724,0.479-0.724,0.721c0,1.446,0.481,2.648,1.44,3.61
				c0,0,0.724,0.96,1.926,1.202c0.72,0.238,2.643,0,3.365,0v4.571c-4.086,0.724-8.177,2.164-11.543,4.087c0-0.238,0-0.238,0-0.238
				l0,0c0,0,0-0.241,0-0.72c0.479-0.241,0.72-0.241,1.202-0.482c1.203-0.481,2.164-0.964,2.649-1.202
				c0.479-0.241,0.96-0.479,1.202-0.962l0,0c0.241-0.481,0.241-0.964,0.241-1.687l0,0c0,0,0-0.238,0-0.479l0,0v-0.251
				c0-0.238,0-0.479-0.241-0.961c0-0.24-0.241-0.723-0.241-0.964v-0.241l-0.241-0.479l0,0c-0.241-0.479-0.481-0.721-0.719-0.961
				l-0.242-0.241l0,0h-0.244l0,0c-0.477-0.241-0.961-0.241-1.441-0.241c-0.482,0-1.685,0.241-2.887,0.482
				c-0.482,0-0.964,0.24-1.203,0.24c0-0.24-0.241-0.24-0.241-0.481l-0.238-0.241l0,0l0,0c0,0-0.241-0.242-0.482-0.481
				c0.241-0.238,0.482-0.721,0.721-1.2c0.72-0.964,1.203-2.167,1.443-2.407c0.241-0.479,0.481-0.961,0.481-1.685l0,0
				c0-0.481-0.24-0.961-0.723-1.44l0,0c0,0-0.241-0.241-0.483-0.241l0,0l-0.24-0.241c-0.239-0.241-0.479-0.481-0.718-0.724
				l-1.446-0.961l0,0c-0.478-0.479-1.199-0.479-1.925-0.479c-0.479,0-0.961,0.24-1.202,0.721c-0.242,0.241-1.203,0.961-2.165,1.925
				c-0.24,0.238-0.723,0.721-0.961,0.959c-0.241,0-0.241-0.238-0.482-0.238c-0.238,0-0.238,0-0.479-0.241l-0.482-0.241h-0.24h-0.241
				c0-0.479,0-0.961,0-1.202c0-0.721,0-1.203-0.242-2.164v-0.723c0-0.482,0-0.961-0.478-1.203c-0.479-0.479-0.961-0.96-1.685-0.96
				c-0.238,0-0.482,0-0.724,0h-0.235c-0.248,0-0.727,0-0.967,0c-0.479,0-0.961,0-1.443,0h-0.48c-0.72,0-1.442,0.241-1.925,0.723
				c-0.242,0.238-0.479,0.718-0.479,1.203c0,0.238,0,0.479-0.242,0.72c-0.24,0.723-0.24,1.443-0.24,1.923
				c0,0.482-0.238,0.964-0.238,1.205l0,0H50.89h-0.482c-0.241,0-0.241,0-0.724,0.241h-0.238c-0.243-0.241-0.479-0.724-0.721-0.964
				c-0.727-0.961-1.687-1.923-1.928-2.164c-0.242-0.481-0.724-0.723-1.203-0.723c-0.72-0.238-1.442,0-1.922,0.241l-1.443,0.964
				l-1.44,0.961c-0.241,0.238-0.241,0.238-0.487,0.479v3.369c0.248,0.481,0.487,1.202,0.967,1.923
				c0.239,0.482,0.479,0.723,0.721,1.205l-0.241,0.241c-0.241,0.241-0.241,0.241-0.479,0.479l0,0h0.721c0,0,0,0-0.241,0.24l0,0l0,0
				c-0.241,0-0.241,0-0.479-0.24v2.883c0.239,0,0.479,0.242,0.721,0.242l1.203,0.481l0.481-1.203
				c0.238-0.238,0.238-0.479,0.479-0.479l0.241-0.24l0.24-0.241l0,0c0,0,0,0,0-0.241l0,0c0.242-0.242,0.482-0.481,0.724-0.721
				l0.958-0.961l-0.478-1.205v-0.241c0,0,0,0,0-0.24c-0.242-0.479-0.721-1.2-0.961-1.682c-0.482-0.961-0.965-1.685-0.965-2.164
				l0.965-0.723l0.961-0.482c0.238,0.482,0.961,1.205,1.685,1.926c0.479,0.72,0.958,1.202,1.205,1.443l0,0c0,0,0,0.241,0.241,0.241
				l0.718,0.961l0.964-0.479c0,0,0,0,0.241,0l0,0c0.479-0.241,0.72-0.241,0.961-0.481l0,0h0.238h0.483h0.24l0,0
				c0.241,0,0.481,0,0.724-0.241l1.44-0.241v-1.202c0-0.241,0-1.202,0.241-2.167c0-0.721,0.241-1.199,0.241-1.923
				c0-0.241,0-0.481,0-0.481h0.241c0.242,0,0.72,0,0.958,0c0.488,0,0.724,0,0.964,0l0,0c0,0,0,0,0.244,0v0.481
				c0,0.724,0.238,1.202,0.238,1.923c0,0.964,0,1.685,0,2.167v1.202l1.444,0.481c0.238,0,0.238,0,0.238,0h0.24h0.238l0.482,0.241
				c0,0,0.24,0,0.482,0.241c0,0,0.241,0.238,0.481,0.238c0.238,0,0.238,0.241,0.479,0.241c0,0,0,0,0.241,0l0.961,0.479l0.723-0.958
				l0.238-0.241c0.479-0.481,0.721-0.964,1.203-1.443c0.723-0.724,1.442-1.443,1.687-1.685l1.202,0.721
				c0.238,0,0.238,0.241,0.479,0.482l0.241,0.241c0,0,0,0,0.241,0.241c-0.241,0.479-0.724,1.203-1.202,2.164
				c-0.479,0.72-0.961,1.443-1.206,1.925l-0.721,0.961l0.721,0.962c0,0,0,0,0,0.24l0,0c0.485,0.481,0.726,0.96,0.726,1.203l0,0l0,0
				l0,0l0,0l0,0c0,0.238,0.238,0.479,0.721,0.961c0,0,0,0,0,0.241l0,0l0,0l0.479,0.964l1.205-0.241c0.479,0,1.199-0.242,2.164-0.481
				C73.25,94.3,74.216,94.3,74.698,94.3c0,0,0,0,0,0.242l0.238,0.964c0,0.479,0.242,0.719,0.242,0.958v0.241
				c-0.479,0.241-1.444,0.724-2.165,0.964c-0.72,0.242-1.684,0.482-2.165,0.723l-0.958,0.241v1.2c0,0,0,0,0,0.24l0,0
				c0,0.724,0,0.961,0,1.444l0,0c0,0,0,0.723-0.242,1.443l0,0c0,0,0,0,0,0.241v0.723c-0.723,0.479-1.442,1.2-2.163,1.682
				c0,0-1.929,1.205-4.333,2.164c-5.289-1.202-13.229-1.202-19.723,0.964h0.24c-0.24-0.241-0.24-0.481-0.721-0.964l0,0v-0.241
				l-0.481-0.961l-0.965,0.243v5.53C48.479,108.494,59.307,108.735,65.799,110.416z M141.567,84.441v9.86
				c-1.44-0.481-2.884-0.723-4.33-0.964v-8.896H141.567z M129.062,92.858c-0.965,0-1.688,0-2.646,0v-3.366
				c0-0.964,0.72-1.926,1.923-1.926c0.964,0,1.925,0.721,1.925,1.926v3.366C130.025,92.858,129.543,92.858,129.062,92.858z
				 M133.87,71.93v1.206h-4.328V71.93H133.87z M128.338,78.186l6.735,4.09v10.824c-0.721,0-1.203-0.241-1.926-0.241
				c-0.479,0-1.199,0-1.682,0v-3.366c0-1.685-1.44-3.128-3.126-3.128c-1.685,0-3.128,1.443-3.128,3.128v3.366h-0.241
				c-0.958,0-2.164,0.241-3.123,0.241V82.275L128.338,78.186z M119.678,84.68v9.14c-0.242,0-0.242,0-0.478,0
				c-1.446,0.241-2.89,0.723-4.092,0.964V84.441L119.678,84.68z M136.998,57.741l6.973-5.05l3.131,2.167
				c0.238,0.241,0.479,0.241,0.961,0c0.241-0.241,0.481-0.481,0.481-0.724v-1.685h0.721v3.607c0,0.241,0.24,0.481,0.24,0.722
				l1.444,1.203v6.493c-3.369-0.481-6.738-0.961-9.621-1.682c-1.443-0.241-2.884-0.724-4.33-0.964V57.741z M82.879,110.898
				c-0.724-0.483-1.685-1.202-2.405-1.685c0.479-0.479,0.958-0.721,1.682-1.202c5.054-3.369,14.434-6.494,21.169-7.215
				c0.24,0,0.478,0,0.72,0.238c0.965,0.241,2.164,0.482,3.128,0.962h0.24c-7.458,0.723-17.321,4.092-22.371,7.458
				c-0.481,0.479-0.958,0.721-1.445,1.203C83.358,110.416,83.117,110.658,82.879,110.898z M111.984,103.685
				c1.202,0.479,2.164,1.2,3.124,1.923c-7.454-0.241-19.723,2.887-25.737,6.497c-0.478,0.238-1.202,0.717-1.685,0.958
				c0,0-0.479,0.481-0.961,0.722c-0.721-0.481-1.442-1.201-2.166-1.68c0,0,0,0,0.243,0c0.479-0.481,1.202-0.724,1.685-1.205
				C92.257,107.53,104.767,103.443,111.984,103.685z M96.83,95.986c0.479-0.721,0.961-1.685,1.441-2.408
				c0.723-1.682,0.964-3.363,1.205-5.051c0-0.961,0-2.164-0.241-3.125c1.682-0.24,3.609-0.24,5.532-0.24c0.482,0,0.721,0,1.203,0
				c-0.241,0.961-0.482,2.167-0.482,3.125c0,1.446,0.241,2.648,0.482,4.092c0.238,0.721,0.479,1.682,0.961,2.405
				c0,0.242,0.241,0.242,0.241,0.481c0.482,0.961,0.961,1.682,1.682,2.405c-0.483,0.242-1.199,0.723-1.682,0.964c0,0,0,0-0.241,0
				s-0.724-0.241-0.961-0.241c-1.685-0.481-3.125-0.723-4.812-0.964c-0.964-0.242-2.164-0.242-3.128-0.242c-0.72,0-1.199,0-1.923,0
				C96.107,96.946,96.589,96.464,96.83,95.986z M90.093,89.25h1.922c-0.478,1.443-1.681,2.405-3.121,2.405h-1.685v-0.481
				C87.448,89.974,88.653,89.25,90.093,89.25z M88.893,84.68c-0.24,0.241-0.482,0.482-0.723,0.723l0,0c-0.241,0-0.724,0-0.961-0.24
				c-0.241-0.241-0.482-0.482-0.482-0.721v-1.685c0.482,0,0.721-0.241,1.203-0.241l0.964,1.443
				C89.132,83.959,89.132,84.2,88.893,84.68z M92.257,82.995L92.257,82.995c-0.242,0.241-0.721,0.241-0.961,0.241
				c-0.239,0-0.72-0.241-0.72-0.479l-0.964-1.443c0.242-0.241,0.481-0.482,0.723-0.724l1.443,0.964
				c0.238,0.241,0.479,0.482,0.479,0.721C92.497,82.275,92.497,82.757,92.257,82.995z M94.426,78.909L94.426,78.909
				c0,0.241-0.241,0.72-0.726,0.72c-0.238,0.238-0.72,0-0.961,0l-1.442-0.962c0.241-0.481,0.241-0.723,0.241-1.202h1.688
				c0.238,0,0.72,0.238,0.72,0.479C94.426,78.186,94.667,78.667,94.426,78.909z M92.98,73.618L92.98,73.618
				c0.244-0.241,0.72-0.241,0.964,0c0.241,0.24,0.482,0.479,0.724,0.719l0,0c0,0.239,0,0.721-0.242,0.961
				c-0.241,0.242-0.482,0.482-0.726,0.482h-1.685c0-0.482-0.238-0.723-0.238-1.205L92.98,73.618L92.98,73.618z M90.575,70.49
				c0.24-0.241,0.481-0.482,0.72-0.482c0.241,0,0.72,0,0.961,0.241l0,0c0.241,0.241,0.241,0.481,0.241,0.961
				c0,0.241-0.241,0.72-0.482,0.72l-1.439,0.964c-0.242-0.241-0.483-0.482-0.724-0.721L90.575,70.49z M86.968,69.046
				c0-0.241,0.241-0.721,0.479-0.721c0.241-0.241,0.724-0.241,0.964-0.241l0,0c0.242,0,0.482,0.241,0.721,0.721
				c0.24,0.241,0,0.72,0,0.961l-1.202,1.443c-0.482-0.241-0.721-0.241-1.203-0.241v-1.923H86.968z M82.879,68.806
				c0.238-0.238,0.478-0.479,0.718-0.721l0,0c0.241,0,0.723,0,0.964,0.241c0.243,0.241,0.481,0.479,0.481,0.721v1.685
				c-0.481,0-0.724,0.238-1.205,0.238l-0.958-1.443C82.879,69.284,82.879,69.046,82.879,68.806z M79.751,70.49L79.751,70.49
				c0.24-0.241,0.482-0.482,0.961-0.241c0.241,0,0.721,0.241,0.721,0.481l0.964,1.443c-0.24,0.238-0.481,0.479-0.723,0.721
				l-1.44-0.964c-0.724,0-0.724-0.239-0.964-0.72C79.269,70.969,79.51,70.73,79.751,70.49z M77.345,74.337L77.345,74.337
				c0-0.241,0.241-0.719,0.724-0.719c0.241-0.241,0.721,0,0.958,0l1.446,0.958c-0.241,0.481-0.241,0.723-0.241,1.205h-1.684
				c-0.238,0-0.721-0.241-0.721-0.481C77.345,75.058,77.345,74.576,77.345,74.337z M79.028,79.629c-0.238,0.238-0.717,0.238-0.958,0
				c-0.241-0.241-0.481-0.479-0.724-0.72l0,0c0-0.242,0-0.724,0.241-0.964c0.241-0.241,0.481-0.479,0.724-0.479h1.681
				c0,0.479,0.242,0.719,0.242,1.202L79.028,79.629L79.028,79.629z M81.432,82.757c-0.238,0.238-0.479,0.479-0.721,0.479
				c-0.238,0-0.721,0-0.961-0.241l0,0c-0.241-0.238-0.241-0.479-0.241-0.958c0-0.241,0.241-0.723,0.481-0.723l1.44-0.961
				c0.241,0.238,0.482,0.479,0.724,0.72L81.432,82.757z M81.915,76.745c0-2.169,1.682-3.85,3.85-3.85
				c2.164,0,3.845,1.682,3.845,3.85c0,2.164-1.681,3.845-3.845,3.845C83.837,80.59,81.915,78.909,81.915,76.745z M84.561,84.92
				c-0.242,0.241-0.478,0.241-0.964,0.241l0,0c-0.239,0-0.479-0.241-0.718-0.721c-0.242-0.241,0-0.724,0-0.964l0.958-1.44
				c0.481,0.238,0.724,0.238,1.205,0.238v1.685C85.042,84.441,84.804,84.92,84.561,84.92z M83.117,91.655
				c-1.443,0-2.884-0.961-3.126-2.405h1.924c1.442,0,2.646,0.965,3.127,2.405v0.241h-1.925V91.655z M75.664,103.685
				c3.363-1.687,7.214-2.887,11.304-3.369c0.961-0.241,1.925-0.241,2.884-0.241h0.24c0.964,0,2.646,0,3.607,0
				c0.485,0,0.968,0,0.968,0c0.479,0,0.958,0,1.439,0c-5.773,1.443-12.023,4.09-15.633,6.738c-0.482,0.479-1.205,0.958-1.446,1.2
				l-0.238,0.241c-1.925-0.961-3.85-1.926-5.773-2.646C73.495,104.643,74.46,104.164,75.664,103.685z"/>
			<path fill="#249EB0" d="M62.912,199.653l-0.961,1.446c-0.961-0.242-2.163-0.964-3.125-1.446l1.682-2.164l0.964-1.441
				c-0.24-0.24-1.206-0.964-1.206-0.964c-3.369-2.645-10.1-6.492-14.91-7.214l0,0c-0.723,0-3.128-0.242-3.609-0.242v2.646v0.962
				v1.685v-0.242c0.724,0,1.443,0.242,2.405,0.242c5.051,0.964,9.861,3.369,12.746,6.73c0,0.242,0.482,0.482,0.482,0.482
				c1.202,0.965,2.887,1.929,4.571,2.404c-0.479,1.928-0.961,2.887-1.923,3.851c-0.24-0.481-0.721-0.724-1.202-1.205
				c-1.206-0.959-2.888-1.199-4.092-0.959c0,0-2.405,0-3.604-0.482c-1.446-0.48-2.891-1.68-3.851-3.127
				c-0.723-0.723-1.205-1.682-1.923-2.404c-0.964-0.723-2.166-1.206-3.369-1.206v1.688c0.724,0,1.443,0.241,2.164,0.719
				c0.481,0.24,1.923,2.165,2.404,3.126c0,0,2.169,1.929,3.369,2.404c0.724,0.481,3.61,1.207,4.569,0.965l0,0l0,0h0.241l0,0
				c0.964,0,1.685,0,2.645,0.48c0.241,0,0.724,0.479,0.964,0.965l0,0l0.964,1.441c0,0,0.243,0,0.243-0.242l0,0l0,0l0.238-0.241
				c0.24-0.24,0.721-0.481,0.961-0.723c0,0,0,0-0.241-0.235c1.442-1.446,2.163-2.887,2.646-4.815v-0.476
				c0-0.245,0.24-1.206,0.24-1.206c-0.24,0-0.482,0-0.961,0l0.721-0.965l0.723-0.958l0.72-0.965l-3.848-0.722L62.912,199.653z
				 M44.152,191.715c-0.479-0.24-1.2-0.24-1.682-0.24l1.682-2.163c0.241,0,0.481,0,0.964,0c0.721,0,1.44,0.241,2.163,0.48
				l-1.685,2.164C44.875,191.957,44.634,191.715,44.152,191.715z M46.798,192.439l1.682-2.163c1.205,0.481,2.41,0.961,3.609,1.439
				l-1.681,2.17C49.203,193.163,48,192.68,46.798,192.439z M51.609,194.362l1.685-1.923c0.72,0.481,1.681,0.961,2.405,1.445
				l-1.685,1.923C53.293,195.326,52.571,194.844,51.609,194.362z M55.217,196.528l1.681-1.926c0.968,0.724,1.685,1.207,2.41,1.688
				l-1.687,2.164C56.657,197.971,55.939,197.249,55.217,196.528z"/>
			<path fill="#249EB0" d="M58.103,176.083c3.848,0.482,6.973,2.646,8.42,4.092l1.205-2.169c-1.687-1.44-4.092-3.604-8.42-4.085
				L58.103,176.083z"/>
			<path fill="#249EB0" d="M53.536,184.261c3.844,0.481,6.973,2.887,8.415,4.088l1.203-2.166c-1.683-1.44-4.087-3.604-8.42-4.327
				L53.536,184.261z"/>
			<path fill="#249EB0" d="M55.699,179.93c3.851,0.479,6.973,2.888,8.419,4.089l1.199-2.164c-1.682-1.446-4.086-3.611-8.42-4.091
				L55.699,179.93z"/>
			<path fill="#249EB0" d="M52.089,175.361c-0.958-0.959-2.886-1.923-5.291-2.888l0,0c0.241-0.239,0.961-1.2,0.481-1.44
				c-0.24-0.242-0.964,0-1.205,0.24c0-0.481-0.238-0.964-0.479-0.964c-0.238,0-0.72,0.964-0.72,1.206l0,0
				c-1.203-0.481-2.405-0.724-3.607-0.964v1.445v1.2c3.849,0.481,8.178,2.888,9.623,4.092L52.089,175.361z"/>
			<path fill="#249EB0" d="M41.267,178.246h0.239c3.127,0.965,5.772,2.646,6.973,3.61l1.205-2.163
				c-1.443-1.207-4.81-3.128-8.177-4.094C41.267,176.323,41.267,178.005,41.267,178.246z"/>
			<path fill="#249EB0" d="M54.975,170.55c-0.24,0-0.24-0.241-0.481-0.241c-0.479-0.241-0.958-0.482-1.441-0.72
				c0.241,0,0.482-0.243,0.721-0.243c0.24-0.237,0.96-1.201,0.481-1.443c-0.242-0.24-0.961,0-1.442,0.243
				c0-0.481-0.242-0.965-0.482-0.965c-0.242,0-0.721,0.965-0.721,1.205c0,0.242,0,0.242,0,0.482
				c-2.163-0.966-4.571-1.688-6.976-2.408c0.242-0.237,0.242-0.237,0.242-0.479c0-0.242,0.241-1.446,0-1.446
				c-0.482,0-0.965,0.48-1.203,0.964c-0.241-0.481-0.721-0.964-1.202-0.964c-0.482,0-0.242,1.206,0,1.446c0,0,0,0,0,0.241
				c-0.482,0-0.964-0.241-1.682-0.241v2.404c4.568,0.724,8.896,2.403,12.264,4.326L54.975,170.55z"/>
			<path fill="#249EB0" d="M57.865,209.037c-0.485-0.482-0.726-0.964-1.446-1.446c-1.202-0.959-2.883-1.2-4.088-0.959
				c0,0-2.405,0-3.604-0.481c-1.446-0.481-2.89-1.683-3.85-3.128c-0.724-0.723-1.203-1.681-1.924-2.404
				c-0.481-0.48-0.964-0.723-1.445-0.965v1.688c0.24,0,0.24,0.237,0.481,0.237c0.482,0.242,1.923,2.167,2.405,3.128
				c0,0,2.163,1.926,3.366,2.407c1.207,0.718,4.092,1.2,4.811,1.2l0,0l0,0h0.242l0,0c0.961,0,1.681,0,2.645,0.481
				c0.242,0,0.721,0.481,0.961,0.965l0,0l0.961,1.439c0,0,0.241,0,0.241-0.24c0.482-0.243,0.961-0.481,1.206-0.962l-0.244-0.239
				C58.582,209.519,58.344,209.277,57.865,209.037z"/>
			<path fill="#249EB0" d="M72.534,143.852c0-0.724-0.479-1.206-1.203-1.206c-0.721,0-1.199,0.481-1.199,1.206
				c0,0.72,0.479,1.206,1.199,1.206C72.055,144.813,72.534,144.334,72.534,143.852z"/>
			<circle fill="#249EB0" cx="68.207" cy="142.409" r="1.203"/>
			<polygon fill="#249EB0" points="84.768,143.381 87.876,137.68 89.353,138.482 86.242,144.188 			"/>
			
				<rect x="87.261" y="142.134" transform="matrix(0.4786 -0.878 0.878 0.4786 -78.3467 154.0079)" fill="#249EB0" width="6.492" height="1.682"/>
			
				<rect x="90.825" y="143.956" transform="matrix(0.4786 -0.8781 0.8781 0.4786 -78.0868 158.1046)" fill="#249EB0" width="6.496" height="1.683"/>
			<path fill="#249EB0" d="M110.781,158.527c-0.726-0.241-1.688-0.241-2.648-0.241c-1.685,0.241-3.125,0.717-4.568,1.199
				c-0.961,0.241-1.925,0.724-3.131,0.965c-0.958,0.242-1.923,0.48-2.884,0.48c-0.24,0-0.479,0-0.721,0h-0.24c0,0,0,0-0.242,0l0,0
				c-0.481,0-0.961-0.24-1.44-0.24c-0.964-0.241-1.685-0.481-2.651-0.965c-0.961-0.48-1.681-0.961-2.405-1.684
				c-0.721-0.479-1.682-1.202-2.643-1.684c-0.961-0.479-2.167-0.718-3.125-0.718c-1.205,0-2.169,0.238-3.372,0.477
				c-0.961,0.241-1.685,0.481-2.643,0.724c-0.481,0-0.724,0.24-1.205,0.24c-0.238,0-0.238,0-0.479,0h-0.244l0,0l0,0
				c-0.724,0-1.441,0-2.164,0c-0.241,0-0.724,0-0.961,0l0,0l0,0h-0.241c-0.241,0-0.479,0-0.479,0
				c-0.723-0.24-1.445-0.482-2.163-0.723h-0.241c0,0-0.241,0-0.241-0.241c-0.241,0-0.481-0.238-0.723-0.238
				c-0.479-0.238-0.965-0.479-1.2-0.721c-0.241-0.241-0.481-0.241-0.967-0.482l0,0l0,0c-0.238,0-0.238-0.24-0.479-0.24
				c-3.609-2.887-7.699-5.051-12.025-6.493c-3.607-1.685-7.217-2.166-10.824-2.408c-0.721,0-1.443,0-2.164,0v2.166
				c0.479,0,0.961,0,1.443,0c0.721,0,1.44,0,2.164,0.242c0.481,0,0.72,0,1.199,0.238h0.241c-0.241,0,0,0,0,0
				c0.241,0,0.482,0,0.724,0c1.928,0.241,3.609,0.722,5.292,1.205c0.964,0.242,1.925,0.724,2.887,0.964
				c0.24,0,0.482,0.238,0.723,0.238h0.239l0,0h0.24c0.479,0.239,0.961,0.479,1.446,0.721c1.202,0.481,2.163,1.206,3.366,1.926
				c1.202,0.72,2.163,1.443,3.125,2.407l0,0l0,0c-0.721,0.719-1.685,1.44-2.163,2.164c-0.961-0.481-1.685-0.965-2.643-1.445
				c0.238,0,0.478,0,0.716-0.242c0.241-0.239,0.965-1.199,0.482-1.44c-0.241-0.241-0.961,0-1.441,0.241
				c0-0.481-0.24-0.965-0.481-0.965c-0.244,0-0.724,0.965-0.724,1.206s0,0.481,0,0.481c-2.405-0.964-4.81-1.688-7.455-2.407
				l0.241-0.24c0.241-0.242,0.72-1.204,0.241-1.443c-0.241-0.242-0.964,0.24-1.206,0.48c-0.241-0.48-0.479-0.964-0.724-0.964
				c-0.477,0-0.477,0.964-0.477,1.446c0,0.238,0,0.238,0,0.479c-1.687-0.241-3.369-0.479-5.054-0.72c0,0,0.238-0.241,0.238-0.482
				s0.242-1.44,0-1.44c-0.479,0-0.958,0.478-1.199,0.959c0.721,0,0.241-0.721-0.24-0.481c-0.482,0-0.242,1.206,0,1.445v0.242h-0.242
				c-0.241,0-0.724,0-0.961,0v2.887h0.238c0.242,0,0.482,0,0.724,0c6.738,0.24,12.987,1.923,18.279,4.569
				c-0.721,0.964-1.2,1.68-1.682,2.645c-0.961-0.48-1.929-0.965-2.888-1.201l0.239-0.242c0.241-0.239,0.961-1.203,0.479-1.443
				c-0.238-0.241-0.958,0-1.441,0.242c0-0.482-0.24-0.965-0.481-0.965s-0.721,0.965-0.721,1.206v0.24
				c-1.443-0.481-3.125-0.964-4.813-1.446l0,0c0.245-0.237,0.724-1.199,0.245-1.439c-0.245-0.24-0.967,0.241-1.206,0.479
				c-0.241-0.479-0.481-0.962-0.721-0.962c-0.481,0-0.481,0.962-0.481,1.445l0,0c-1.202-0.241-2.164-0.241-3.366-0.483
				c0,0,0-0.239,0.238-0.239c0-0.242,0.242-1.444,0-1.444c-0.478,0-0.958,0.48-1.199,0.964c-0.24-0.482-0.723-0.964-1.206-0.964
				c-0.481,0-0.238,1.204,0,1.444v0.239c-0.238,0-0.717,0-0.958,0v2.648c0.241,0,0.72,0,0.958,0
				c9.625,0.24,18.523,4.326,23.571,10.1c-2.884-1.204-6.495-2.646-6.732-2.646l-0.964-0.241l0,0l-9.38,16.598
				c-1.685-1.205-3.848-2.646-7.211-3.369c0,0,0,0,0,0.241v1.207c0,0.238,0,0.479,0,0.716c2.884,0.724,5.048,1.688,6.731,3.61l0,0
				l0,0l0,0l0,0l1.206,0.481c0,0,5.048,1.923,6.491,2.888c1.441,0.724,5.533,3.61,5.774,3.61l0.961,0.717l10.104-19.003
				l-0.724-0.719c0,0,0,0-0.721-0.721l-0.24-0.481c-1.202-2.646-3.125-5.05-5.535-7.218c0.964-1.442,2.166-2.884,3.612-4.329v-3.128
				c-2.408,1.929-4.092,3.608-5.776,5.773c-0.721-0.482-1.199-0.959-1.923-1.2l0.241-0.244c0.241-0.479,0.961-1.923,1.203-2.402
				c0.479-0.722,1.202-1.445,1.926-2.169c0.718-0.72,1.439-1.439,2.405-2.163c2.404,1.205,4.809,1.928,7.454,1.928
				c1.441,0,2.888-0.24,4.333-0.723c0.958-0.241,1.924-0.481,2.885-0.723h0.238l0,0h0.24c0.242,0,0.482,0,0.724,0
				c0.482,0,0.961,0,1.441,0.241c1.928,0.481,3.371,1.923,5.055,2.888c1.682,0.96,3.604,1.923,5.773,2.164
				c0.958,0.24,2.164,0.24,3.125,0.24c1.202,0,2.164-0.48,3.125-0.723c0.961-0.241,1.928-0.479,2.648-0.721
				c0.721-0.237,1.443-0.479,2.164-0.72c0.479,0,0.721-0.24,1.203-0.24l0,0l0,0c0,0,0,0,0.241,0h0.24c0.242,0,0.479,0,0.721,0h0.238
				l0,0l0,0c0.241,0,0.483,0,0.483,0.24l0,0l0,0c0,0,0.241,0,0.241,0.242c0.241,0,0.241,0.241,0.483,0.241l0.24,0.237
				c1.206,0,2.405,0,3.609-0.237c-0.723-0.481-1.442-0.965-1.928-1.207C111.984,159.245,111.5,158.765,110.781,158.527z
				 M59.55,156.117L59.55,156.117C59.55,156.358,59.55,156.358,59.55,156.117C59.55,156.358,59.55,156.358,59.55,156.117z
				 M67.487,173.919c1.199,0.72,2.405,1.68,2.884,2.163l-8.42,16.115c-1.442-0.964-4.33-2.888-5.532-3.606
				c-1.202-0.721-4.81-2.166-6.493-2.649l8.902-15.874c1.202,0.481,4.087,1.445,6.009,2.404
				C65.799,172.714,66.76,173.438,67.487,173.919z"/>
			<path fill="#249EB0" d="M126.654,156.117c-0.721,0.241-1.443,0.481-2.165,0.481c-0.478,0.242-0.961,0.242-1.442,0.242l0,0
				c0,0,0,0-0.241,0c-0.241,0-0.241,0-0.479,0c-0.242,0-0.479,0-0.721,0c0.24,0-0.241,0-0.241,0c-0.242,0-0.242,0-0.482,0
				c-0.481,0-0.721-0.242-1.205-0.242c-0.724-0.24-1.441-0.481-1.924-0.72c-0.241-0.238-0.723-0.238-0.964-0.479h-0.238l0,0l0,0
				c-0.24,0-0.24-0.241-0.482-0.241c-0.238-0.241-0.72-0.241-0.961-0.482l1.203-19.002c-0.479,0.242-1.203,0.242-1.685,0.242h-0.241
				l-0.479,8.656l-1.685-0.479l2.164-8.419c-0.716,0-1.44-0.24-1.923-0.48l-2.166,8.419l-2.164-0.242l3.609-7.937
				c-0.961-0.481-1.446-0.964-1.688-1.203l-9.38,20.204c-0.241,0.481-0.241,0.723-0.481,0.964l0,0c-0.238,0-0.479,0-0.718,0
				c-0.481,0-0.724,0-1.205,0c-0.242,0-0.242,0-0.479,0c-0.241,0-0.481,0-0.721,0c-0.964-0.241-1.685-0.48-2.646-0.724l0,0l0,0
				h-0.241c-0.241,0-0.485-0.24-0.723-0.24c-0.481-0.242-0.724-0.481-1.205-0.724c-0.721-0.479-1.441-0.961-2.165-1.439
				c-1.681-1.206-3.366-1.923-5.288-1.923c-1.926,0-3.609,0.717-5.294,0.959c-0.721,0.24-1.199,0.24-1.923,0.48
				c-0.241,0-0.241,0-0.482,0l0,0l0,0h-0.241c-0.238,0-0.723,0-0.958,0c-0.726,0-1.447,0-1.929,0l0,0l0,0h-0.24l0,0
				c2.405-2.887,3.851-6.256,4.092-9.618v-0.724c0-0.241,0-0.722,0-0.965l0,0v-0.719c-0.482,0-1.202,0-1.922,0
				c-0.967,0-2.411-0.482-3.609-0.961l27.417-14.917l-2.404,4.334c-0.239,0.478,0,0.958,0.241,1.199l0,0l0.241,0.241
				c0.961,0.481,1.443,1.684,0.721,2.646c-0.482,0.964-1.682,1.445-2.646,0.724c-0.958-0.481-1.44-1.686-0.721-2.646l-1.446-0.723
				c-0.476,0.965-0.476,2.164-0.238,3.127l-7.696,1.204l-0.481-0.24c-0.479-0.241-0.965,0-1.2,0.24l0,0l-4.573,9.379
				c-0.241,0.482,0,0.965,0.24,1.202l0,0l15.158,8.179c0.479,0.241,0.958,0,1.199-0.238l0,0l5.295-9.865
				c0.238-0.477,0-0.958-0.244-1.2l0,0l-1.202-0.722l-2.165-6.257c1.923,0,3.61-1.682,3.366-3.605c0-1.204-0.724-2.165-1.443-2.885
				l3.373-6.016l0,0l-0.968-3.368l-35.117,12.508l0,0l1.206-2.405c-0.479-0.238-0.721-0.238-0.721-0.238
				c-0.485-0.48-0.964-0.723-1.446-0.965c-1.442-0.964-3.127-1.923-4.809-2.645l1.44-2.405l1.206-2.164l1.439-2.407l-8.66-0.479
				l4.815,4.327l-1.685,2.888c-4.33-2.404-9.14-3.368-13.951-3.368l0,0c-0.961,0-1.927,0-2.885,0l-1.445,2.645l0,0v6.256
				c1.685,0,3.369,0,5.292,0c7.937,0.722,15.396,3.609,20.448,8.178c0.241,0.24,0.961,0.723,0.961,0.723
				c1.925,1.44,4.568,2.405,7.458,2.647c-0.486,4.566-1.688,6.251-4.334,8.897c-0.481,0-0.961,0-1.439-0.239
				c-0.964-0.484-1.929-0.964-2.646-1.445c-3.61-2.887-7.696-5.05-12.029-6.493c-3.366-1.203-6.977-1.684-10.583-1.926
				c-1.202,0-2.404,0-3.366,0v2.164c0.962,0,1.924,0,2.885,0c0.723,0,1.442,0,2.163,0.241c0.482,0,0.724,0,1.206,0.241h0.238
				c-0.238,0,0,0,0,0c0.241,0,0.481,0,0.721,0c1.928,0.241,3.609,0.723,5.294,1.205c0.96,0.239,1.925,0.724,2.883,0.959
				c0.241,0,0.482,0.24,0.723,0.24h0.241l0,0h0.244c0.479,0.243,0.961,0.483,1.442,0.724c1.2,0.482,2.165,1.207,3.364,1.923
				c1.206,0.724,2.164,1.447,3.128,2.407l0,0c0,0,0,0,0.241,0.239c2.646,1.688,5.533,3.127,8.661,3.369c1.205,0,2.645,0,3.848-0.242
				c0.721-0.24,1.443-0.24,1.925-0.48c0.958-0.239,1.923-0.479,2.643-0.721c1.687-0.238,3.372,0,4.571,0.961
				c0.724,0.482,1.443,0.964,2.164,1.446c0.724,0.481,1.443,0.959,2.405,1.44c1.687,0.724,3.369,1.443,5.294,1.443
				c1.685,0.244,3.125-0.238,4.568-0.479c0.244,0,0.726-0.24,0.968-0.24c0.717-0.242,1.681-0.482,2.401-0.724
				c0.242,0,0.242,0,0.482-0.24h0.238c0.482,0,0.723-0.242,1.205-0.242c0.241,0,0.241,0,0.479,0c0,0,0,0,0.24,0h0.238h0.242
				c0.241,0,0.724,0,0.964,0c0.241,0,0.479,0,0.72,0c0,0,0,0,0.24,0c0.244,0,0.244,0,0.486,0c0.476,0,0.961,0.242,1.682,0.48
				c0,0,0,0,0.241,0c0.241,0.242,0.723,0.242,0.961,0.482c0.24,0,0.24,0.241,0.479,0.241h0.238h0.241l0,0
				c0.724,0.24,1.202,0.482,1.923,0.72c1.206,0.485,2.645,0.963,4.092,1.203c1.202,0.241,2.405,0.241,3.366,0
				c0.482-0.24,1.202-0.24,1.685-0.478c0.241,0,0.721-0.239,0.961-0.239c0.241,0,0.241,0,0.479,0h0.241c0.241,0,0.241,0,0.481,0
				c0,0,0,0,0.242,0h0.241c0.241,0,0.724,0.239,0.964,0.239c0.961-0.239,1.682-0.479,2.646-0.724
				c-0.964-0.962-2.164-1.443-3.369-1.684C127.856,155.878,127.135,155.878,126.654,156.117z M95.386,133.991l2.164,5.531
				l-8.657-4.571L95.386,133.991z M99.476,142.409l-4.568,8.416l-13.713-7.455l4.571-8.419L99.476,142.409z M99.235,121.722
				l-10.342,5.532l-3.128-0.96L99.235,121.722z M83.117,127.737l3.131,0.961l-4.092,2.165L83.117,127.737z M80.954,128.219
				l-1.203,3.603l-4.571-1.439L80.954,128.219z M63.154,132.305h-0.242c-4.809-2.646-10.582-4.327-15.874-4.81
				c-1.683,0-3.128-0.241-4.568,0l2.164-3.851c0.482,0,0.961,0,1.203,0c7.217,0,13.951,2.166,19.24,5.534L63.154,132.305z
				 M69.409,136.638c-0.724-0.481-1.202-0.723-1.202-0.723c-0.961-0.724-1.926-1.445-3.131-2.164v-0.24l5.774-1.923L69.409,136.638z
				 M73.255,131.586l4.814,1.683l-6.496,3.61L73.255,131.586z M107.413,153.711c-0.964,0.242-1.685,0.481-2.404,0.724
				c-0.723,0.24-1.443,0.481-2.164,0.723l4.328-9.625l2.164,0.482L107.413,153.711z M112.946,153.954
				c-1.203-0.481-2.407-0.481-3.609-0.481l1.922-7.215l2.168,0.481L112.946,153.954z"/>
		</g>
		<g>
			<path fill="#249EB0" d="M147.34,104.643C147.34,104.643,147.34,104.404,147.34,104.643c-0.238-0.717-0.479-1.199-0.723-1.682
				c0.244-0.241,0.244-0.481,0.244-0.72c0-0.244-0.244-0.485-0.72-0.724c0,0-0.241,0-0.241-0.241c0-0.241,0-0.241-0.243-0.479
				c-0.479-0.481-0.961-0.964-1.202-1.446c-0.241-0.238-0.482-0.238-0.724,0c-0.239,0-0.239,0.241-0.239,0.482
				c0,0.24,0,0.481,0.239,0.481l0.241,0.241c0.241,0.24,0.482,0.478,0.967,0.961c0,0,0,0,0,0.238
				c-0.243,0.241-0.243,0.241-0.243,0.484c0,0.238,0,0.479,0.243,0.721c0.238,0.241,0.478,0.241,0.478,0.241
				c0.241,0.482,0.484,0.961,0.726,1.44l0.241,0.241c0.235,0,0.479,0,0.479,0h0.479V104.643L147.34,104.643z"/>
			<path fill="#249EB0" d="M143.251,109.696c0.241,0.238,0.721,0.479,0.961,0.719c0-0.241,0-0.241,0-0.481
				c0.241-0.958,0.726-1.922,1.443-2.886c0,0,0,0,0-0.235h0.243l4.328,0.235h0.241c0,0,0,0,0,0.244
				c0.481,0.961,0.961,1.923,1.202,2.884c0,0.482,0,1.205,0,1.684v0.481c0.721,0,1.202-0.238,1.923-0.238v-0.244
				c0-0.72,0-1.443,0-1.926c-0.238-1.2-0.721-2.643-1.444-3.607c-0.24-0.238-0.478-0.479-0.72-0.721
				c-0.479-0.24-0.72-0.24-1.203-0.24l-4.328-0.241c-0.243,0-0.724,0-1.205,0.241c-0.241,0.24-0.482,0.481-0.724,0.723
				c-0.721,0.962-1.44,2.164-1.682,3.366l0,0C143.013,109.696,143.013,109.696,143.251,109.696z"/>
		</g>
	</g>
</g>
</svg>
