<?xml version="1.0" encoding="utf-8"?>
<!-- Generator: Adobe Illustrator 16.0.0, SVG Export Plug-In . SVG Version: 6.00 Build 0)  -->
<!DOCTYPE svg PUBLIC "-//W3C//DTD SVG 1.1//EN" "http://www.w3.org/Graphics/SVG/1.1/DTD/svg11.dtd">
<svg version="1.1" id="Capa_1" xmlns="http://www.w3.org/2000/svg" xmlns:xlink="http://www.w3.org/1999/xlink" x="0px" y="0px"
	 width="595.275px" height="209.764px" viewBox="-119.402 28.648 595.275 209.764"
	 enable-background="new -119.402 28.648 595.275 209.764" xml:space="preserve">
<g>
	<g>
		<path fill="#828281" d="M53.422,175.99v19.268h-2.485V175.99H53.422z"/>
		<path fill="#828281" d="M57.969,185.166c0-1.43-0.031-2.602-0.116-3.746h2.232l0.142,2.289h0.058
			c0.686-1.316,2.285-2.602,4.573-2.602c1.916,0,4.889,1.143,4.889,5.889v8.262h-2.515v-7.977c0-2.229-0.83-4.086-3.201-4.086
			c-1.66,0-2.946,1.172-3.374,2.572c-0.116,0.314-0.171,0.742-0.171,1.172v8.318H57.97v-10.092H57.969z"/>
		<path fill="#828281" d="M73.493,192.684c0.744,0.486,2.058,1.002,3.317,1.002c1.83,0,2.685-0.916,2.685-2.059
			c0-1.199-0.714-1.857-2.57-2.545c-2.488-0.885-3.659-2.26-3.659-3.916c0-2.23,1.799-4.059,4.771-4.059
			c1.402,0,2.631,0.398,3.404,0.857l-0.63,1.83c-0.543-0.344-1.543-0.801-2.83-0.801c-1.488,0-2.315,0.859-2.315,1.887
			c0,1.143,0.828,1.656,2.63,2.344c2.4,0.916,3.631,2.117,3.631,4.174c0,2.43-1.889,4.145-5.175,4.145
			c-1.516,0-2.915-0.371-3.887-0.943L73.493,192.684z"/>
		<path fill="#828281" d="M88.188,177.448v3.973h3.603v1.916h-3.603v7.463c0,1.715,0.485,2.688,1.888,2.688
			c0.658,0,1.144-0.086,1.458-0.172l0.114,1.885c-0.486,0.201-1.258,0.344-2.23,0.344c-1.171,0-2.115-0.371-2.715-1.057
			c-0.716-0.744-0.972-1.971-0.972-3.602v-7.549h-2.145v-1.916h2.145v-3.314L88.188,177.448z"/>
		<path fill="#828281" d="M97.423,177.533c0.028,0.859-0.599,1.545-1.602,1.545c-0.885,0-1.515-0.686-1.515-1.545
			c0-0.885,0.658-1.572,1.574-1.572C96.824,175.963,97.423,176.649,97.423,177.533z M94.623,195.258v-13.836h2.515v13.836H94.623z"
			/>
		<path fill="#828281" d="M104.342,177.448v3.973h3.603v1.916h-3.603v7.463c0,1.715,0.485,2.688,1.887,2.688
			c0.657,0,1.144-0.086,1.458-0.172l0.114,1.885c-0.485,0.201-1.258,0.344-2.229,0.344c-1.172,0-2.116-0.371-2.716-1.057
			c-0.716-0.744-0.972-1.971-0.972-3.602v-7.549h-2.146v-1.916h2.146v-3.314L104.342,177.448z"/>
		<path fill="#828281" d="M122.351,191.485c0,1.428,0.028,2.688,0.114,3.771h-2.229L120.091,193h-0.055
			c-0.658,1.113-2.115,2.57-4.576,2.57c-2.171,0-4.771-1.199-4.771-6.061v-8.09h2.516v7.662c0,2.631,0.799,4.404,3.087,4.404
			c1.686,0,2.859-1.174,3.315-2.289c0.144-0.371,0.23-0.828,0.23-1.287v-8.49h2.516L122.351,191.485L122.351,191.485z"/>
		<path fill="#828281" d="M129.557,177.448v3.973h3.603v1.916h-3.603v7.463c0,1.715,0.486,2.688,1.889,2.688
			c0.658,0,1.143-0.086,1.457-0.172l0.114,1.885c-0.486,0.201-1.257,0.344-2.23,0.344c-1.171,0-2.114-0.371-2.714-1.057
			c-0.716-0.744-0.972-1.971-0.972-3.602v-7.549h-2.146v-1.916h2.146v-3.314L129.557,177.448z"/>
		<path fill="#828281" d="M148.341,188.225c0,5.117-3.545,7.346-6.89,7.346c-3.745,0-6.632-2.742-6.632-7.117
			c0-4.631,3.032-7.346,6.863-7.346C145.653,181.108,148.341,183.994,148.341,188.225z M137.364,188.367
			c0,3.031,1.743,5.318,4.2,5.318c2.401,0,4.204-2.26,4.204-5.375c0-2.342-1.172-5.316-4.145-5.316
			C138.649,182.994,137.364,185.739,137.364,188.367z"/>
		<path fill="#828281" d="M157.662,176.217c1.2-0.199,2.771-0.371,4.772-0.371c2.459,0,4.259,0.572,5.402,1.602
			c1.058,0.918,1.688,2.316,1.688,4.031c0,1.744-0.517,3.115-1.488,4.117c-1.313,1.398-3.459,2.115-5.888,2.115
			c-0.745,0-1.43-0.031-2.001-0.172v7.717h-2.485V176.217L157.662,176.217z M160.148,185.51c0.544,0.141,1.23,0.201,2.059,0.201
			c3.001,0,4.831-1.459,4.831-4.117c0-2.545-1.802-3.773-4.544-3.773c-1.088,0-1.916,0.086-2.346,0.201V185.51L160.148,185.51z"/>
		<path fill="#828281" d="M172.328,185.739c0-1.629-0.031-3.029-0.116-4.318h2.201l0.086,2.719h0.113
			c0.63-1.861,2.146-3.031,3.832-3.031c0.285,0,0.484,0.027,0.716,0.086v2.373c-0.258-0.059-0.517-0.086-0.858-0.086
			c-1.773,0-3.031,1.344-3.373,3.229c-0.058,0.346-0.114,0.744-0.114,1.172v7.377h-2.488L172.328,185.739L172.328,185.739z"/>
		<path fill="#828281" d="M193.913,188.225c0,5.117-3.546,7.346-6.892,7.346c-3.745,0-6.632-2.742-6.632-7.117
			c0-4.631,3.031-7.346,6.863-7.346C191.226,181.108,193.913,183.994,193.913,188.225z M182.936,188.367
			c0,3.031,1.743,5.318,4.201,5.318c2.401,0,4.203-2.26,4.203-5.375c0-2.342-1.172-5.316-4.145-5.316
			C184.222,182.994,182.936,185.739,182.936,188.367z"/>
		<path fill="#828281" d="M197.861,181.42l2.715,7.775c0.458,1.26,0.829,2.402,1.115,3.547h0.083
			c0.317-1.145,0.717-2.287,1.175-3.547l2.688-7.775h2.629l-5.433,13.836h-2.401l-5.258-13.836H197.861z"/>
		<path fill="#828281" d="M213.44,177.533c0.028,0.859-0.599,1.545-1.602,1.545c-0.885,0-1.516-0.686-1.516-1.545
			c0-0.885,0.658-1.572,1.574-1.572C212.841,175.963,213.44,176.649,213.44,177.533z M210.639,195.258v-13.836h2.516v13.836H210.639
			z"/>
		<path fill="#828281" d="M217.329,185.166c0-1.43-0.03-2.602-0.116-3.746h2.231l0.143,2.289h0.058
			c0.686-1.316,2.285-2.602,4.572-2.602c1.915,0,4.889,1.143,4.889,5.889v8.262h-2.516v-7.977c0-2.229-0.829-4.086-3.201-4.086
			c-1.66,0-2.945,1.172-3.372,2.572c-0.116,0.314-0.173,0.742-0.173,1.172v8.318h-2.516L217.329,185.166L217.329,185.166z"/>
		<path fill="#828281" d="M243.056,194.744c-0.659,0.34-2.115,0.799-3.973,0.799c-4.175,0-6.891-2.83-6.891-7.059
			c0-4.264,2.917-7.35,7.431-7.35c1.488,0,2.804,0.371,3.489,0.715l-0.572,1.945c-0.599-0.344-1.543-0.658-2.917-0.658
			c-3.171,0-4.887,2.344-4.887,5.23c0,3.203,2.058,5.174,4.803,5.174c1.427,0,2.37-0.373,3.087-0.686L243.056,194.744z"/>
		<path fill="#828281" d="M248.804,177.533c0.028,0.859-0.6,1.545-1.602,1.545c-0.885,0-1.516-0.686-1.516-1.545
			c0-0.885,0.658-1.572,1.574-1.572C248.205,175.963,248.804,176.649,248.804,177.533z M246.004,195.258v-13.836h2.515v13.836
			H246.004z"/>
		<path fill="#828281" d="M260.354,195.258l-0.2-1.744h-0.086c-0.771,1.086-2.258,2.057-4.231,2.057c-2.801,0-4.23-1.971-4.23-3.973
			c0-3.346,2.974-5.174,8.32-5.143v-0.287c0-1.143-0.314-3.203-3.146-3.203c-1.285,0-2.63,0.398-3.602,1.029l-0.571-1.658
			c1.144-0.742,2.801-1.229,4.545-1.229c4.231,0,5.261,2.887,5.261,5.66v5.174c0,1.201,0.055,2.371,0.228,3.314h-2.287V195.258z
			 M259.982,188.198c-2.743-0.059-5.857,0.428-5.857,3.113c0,1.631,1.085,2.402,2.37,2.402c1.802,0,2.946-1.143,3.345-2.314
			c0.087-0.258,0.143-0.545,0.143-0.801V188.198L259.982,188.198z"/>
		<path fill="#828281" d="M266.475,174.961h2.516v20.297h-2.516V174.961z"/>
		<path fill="#828281" d="M291.229,174.961v16.723c0,1.23,0.028,2.629,0.114,3.574h-2.26l-0.114-2.402h-0.056
			c-0.771,1.545-2.459,2.715-4.717,2.715c-3.345,0-5.918-2.828-5.918-7.031c-0.027-4.604,2.831-7.432,6.205-7.432
			c2.114,0,3.546,1,4.173,2.115h0.059v-8.262H291.229z M288.715,187.055c0-0.314-0.031-0.746-0.116-1.059
			c-0.37-1.602-1.744-2.914-3.63-2.914c-2.601,0-4.144,2.283-4.144,5.344c0,2.799,1.371,5.115,4.086,5.115
			c1.688,0,3.231-1.113,3.688-3.002c0.085-0.344,0.116-0.686,0.116-1.084V187.055z"/>
		<path fill="#828281" d="M296.807,188.797c0.058,3.4,2.229,4.803,4.746,4.803c1.799,0,2.886-0.314,3.83-0.717l0.43,1.803
			c-0.887,0.398-2.401,0.857-4.604,0.857c-4.259,0-6.804-2.801-6.804-6.975s2.459-7.461,6.49-7.461c4.517,0,5.716,3.973,5.716,6.518
			c0,0.516-0.058,0.914-0.086,1.174h-9.719V188.797z M304.183,186.996c0.027-1.6-0.658-4.088-3.486-4.088
			c-2.546,0-3.659,2.344-3.859,4.088H304.183z"/>
	</g>
	<g>
		<path fill="#828281" d="M50.837,207.651h12.521v3.25h-8.563v5.986h7.983v3.248h-7.983v9.207h-3.958V207.651z"/>
		<path fill="#828281" d="M81.052,221.362c0,5.76-4.054,8.334-8.045,8.334c-4.443,0-7.854-3.057-7.854-8.078
			c0-5.15,3.381-8.303,8.11-8.303C77.932,213.315,81.052,216.596,81.052,221.362z M69.24,221.52c0,3.027,1.48,5.311,3.894,5.311
			c2.255,0,3.832-2.221,3.832-5.373c0-2.447-1.093-5.246-3.798-5.246C70.368,216.211,69.24,218.914,69.24,221.52z"/>
		<path fill="#828281" d="M84.298,218.721c0-2.125-0.031-3.635-0.126-5.053h3.442l0.129,2.994h0.129
			c0.771-2.223,2.606-3.348,4.282-3.348c0.384,0,0.609,0.033,0.934,0.096v3.734c-0.325-0.064-0.676-0.129-1.159-0.129
			c-1.901,0-3.186,1.223-3.541,2.994c-0.066,0.352-0.129,0.771-0.129,1.223v8.109h-3.96v-10.621H84.298z"/>
		<path fill="#828281" d="M95.751,218.334c0-1.801-0.031-3.314-0.126-4.666h3.411l0.159,2.318h0.098
			c0.772-1.225,2.187-2.674,4.825-2.674c2.06,0,3.669,1.16,4.345,2.898h0.066c0.547-0.871,1.189-1.514,1.93-1.963
			c0.868-0.613,1.868-0.936,3.153-0.936c2.609,0,5.246,1.771,5.246,6.793v9.236h-3.861v-8.656c0-2.609-0.9-4.152-2.798-4.152
			c-1.351,0-2.351,0.967-2.768,2.092c-0.096,0.385-0.192,0.867-0.192,1.318v9.398h-3.864v-9.076c0-2.189-0.868-3.734-2.703-3.734
			c-1.48,0-2.478,1.16-2.832,2.252c-0.163,0.389-0.226,0.838-0.226,1.289v9.27h-3.863v-11.008H95.751z"/>
		<path fill="#828281" d="M131.855,229.342l-0.256-1.738h-0.098c-0.964,1.223-2.606,2.092-4.633,2.092
			c-3.153,0-4.924-2.285-4.924-4.666c0-3.959,3.507-5.953,9.301-5.924v-0.256c0-1.029-0.42-2.736-3.186-2.736
			c-1.546,0-3.156,0.482-4.219,1.156l-0.771-2.572c1.158-0.709,3.186-1.385,5.666-1.385c5.02,0,6.468,3.186,6.468,6.598v5.664
			c0,1.418,0.066,2.799,0.225,3.768H131.855L131.855,229.342z M131.341,221.682c-2.801-0.064-5.471,0.547-5.471,2.928
			c0,1.547,0.997,2.254,2.251,2.254c1.577,0,2.736-1.029,3.09-2.158c0.096-0.287,0.129-0.609,0.129-0.867L131.341,221.682
			L131.341,221.682z"/>
		<path fill="#828281" d="M150.906,228.858c-0.837,0.389-2.479,0.805-4.44,0.805c-4.894,0-8.079-3.121-8.079-7.98
			c0-4.699,3.219-8.367,8.722-8.367c1.447,0,2.928,0.32,3.829,0.74l-0.706,2.961c-0.645-0.291-1.579-0.611-2.993-0.611
			c-3.027,0-4.829,2.221-4.796,5.084c0,3.217,2.091,5.051,4.796,5.051c1.384,0,2.348-0.287,3.123-0.609L150.906,228.858z"/>
		<path fill="#828281" d="M158.047,209.291c0,1.191-0.87,2.125-2.255,2.125c-1.318,0-2.188-0.934-2.188-2.125
			c0-1.223,0.903-2.156,2.222-2.156C157.177,207.135,158.013,208.069,158.047,209.291z M153.828,229.342v-15.674h3.994v15.674
			H153.828z"/>
		<path fill="#828281" d="M176.967,221.362c0,5.76-4.054,8.334-8.044,8.334c-4.443,0-7.854-3.057-7.854-8.078
			c0-5.15,3.38-8.303,8.11-8.303C173.844,213.315,176.967,216.596,176.967,221.362z M165.155,221.52
			c0,3.027,1.482,5.311,3.894,5.311c2.254,0,3.832-2.221,3.832-5.373c0-2.447-1.096-5.246-3.799-5.246
			C166.283,216.211,165.155,218.914,165.155,221.52z M173.748,206.877l-3.958,4.766h-2.735l2.798-4.766H173.748z"/>
		<path fill="#828281" d="M180.212,218.334c0-1.801-0.029-3.314-0.126-4.666h3.475l0.193,2.348h0.098
			c0.675-1.223,2.382-2.703,4.987-2.703c2.736,0,5.566,1.771,5.566,6.727v9.303h-3.957v-8.854c0-2.252-0.837-3.957-2.993-3.957
			c-1.576,0-2.669,1.127-3.09,2.318c-0.129,0.355-0.159,0.836-0.159,1.285v9.207h-3.993L180.212,218.334L180.212,218.334z"/>
		<path fill="#828281" d="M205.439,207.651h3.957v18.375h8.917v3.316h-12.874V207.651z"/>
		<path fill="#828281" d="M229.959,229.342l-0.257-1.738h-0.099c-0.964,1.223-2.606,2.092-4.634,2.092
			c-3.152,0-4.924-2.285-4.924-4.666c0-3.959,3.507-5.953,9.301-5.924v-0.256c0-1.029-0.42-2.736-3.186-2.736
			c-1.546,0-3.155,0.482-4.218,1.156l-0.771-2.572c1.158-0.709,3.184-1.385,5.665-1.385c5.02,0,6.468,3.186,6.468,6.598v5.664
			c0,1.418,0.065,2.799,0.225,3.768H229.959L229.959,229.342z M229.446,221.682c-2.801-0.064-5.471,0.547-5.471,2.928
			c0,1.547,0.996,2.254,2.251,2.254c1.577,0,2.736-1.029,3.091-2.158c0.096-0.287,0.129-0.609,0.129-0.867V221.682z"/>
		<path fill="#828281" d="M237.357,229.342c0.063-1.063,0.127-2.801,0.127-4.408v-18.441h3.96v9.332h0.063
			c0.967-1.514,2.673-2.51,5.02-2.51c3.831,0,6.567,3.186,6.534,7.951c0,5.629-3.571,8.43-7.113,8.43
			c-2.027,0-3.828-0.771-4.954-2.703h-0.066l-0.193,2.35H237.357z M241.445,222.873c0,0.322,0.032,0.643,0.096,0.932
			c0.417,1.578,1.802,2.768,3.507,2.768c2.48,0,3.991-1.994,3.991-5.148c0-2.768-1.318-5.02-3.958-5.02
			c-1.609,0-3.056,1.158-3.507,2.896c-0.065,0.289-0.129,0.643-0.129,1.029V222.873z"/>
		<path fill="#828281" d="M271.209,221.362c0,5.76-4.054,8.334-8.044,8.334c-4.443,0-7.854-3.057-7.854-8.078
			c0-5.15,3.381-8.303,8.11-8.303C268.087,213.315,271.209,216.596,271.209,221.362z M259.398,221.52
			c0,3.027,1.483,5.311,3.895,5.311c2.254,0,3.83-2.221,3.83-5.373c0-2.447-1.096-5.246-3.798-5.246
			C260.525,216.211,259.398,218.914,259.398,221.52z"/>
		<path fill="#828281" d="M274.456,218.721c0-2.125-0.031-3.635-0.127-5.053h3.441l0.129,2.994h0.129
			c0.771-2.223,2.606-3.348,4.281-3.348c0.385,0,0.61,0.033,0.934,0.096v3.734c-0.324-0.064-0.676-0.129-1.158-0.129
			c-1.9,0-3.186,1.223-3.541,2.994c-0.065,0.352-0.129,0.771-0.129,1.223v8.109h-3.959V218.721L274.456,218.721z"/>
		<path fill="#828281" d="M294.439,229.342l-0.256-1.738h-0.099c-0.964,1.223-2.606,2.092-4.634,2.092
			c-3.152,0-4.925-2.285-4.925-4.666c0-3.959,3.508-5.953,9.302-5.924v-0.256c0-1.029-0.42-2.736-3.186-2.736
			c-1.547,0-3.155,0.482-4.219,1.156l-0.771-2.572c1.159-0.709,3.186-1.385,5.665-1.385c5.021,0,6.468,3.186,6.468,6.598v5.664
			c0,1.418,0.066,2.799,0.226,3.768H294.439L294.439,229.342z M293.924,221.682c-2.801-0.064-5.471,0.547-5.471,2.928
			c0,1.547,0.997,2.254,2.252,2.254c1.577,0,2.736-1.029,3.09-2.158c0.096-0.287,0.129-0.609,0.129-0.867V221.682L293.924,221.682z"
			/>
		<path fill="#828281" d="M301.964,206.492h3.992v22.85h-3.992V206.492z"/>
	</g>
	<g>
		<path fill="#249EB0" d="M71.474,38.068v95.222H49.86V38.068H71.474z"/>
		<path fill="#249EB0" d="M90.126,39.339c6.643-1.131,15.967-1.976,29.105-1.976c13.277,0,22.746,2.541,29.105,7.627
			c6.073,4.806,10.17,12.715,10.17,22.04c0,9.324-3.107,17.239-8.758,22.606c-7.348,6.921-18.227,10.031-30.942,10.031
			c-2.826,0-5.369-0.142-7.346-0.425v34.049H90.126V39.339z M111.46,82.573c1.837,0.422,4.097,0.562,7.204,0.562
			c11.445,0,18.508-5.792,18.508-15.539c0-8.758-6.076-13.989-16.812-13.989c-4.38,0-7.346,0.423-8.9,0.851V82.573z"/>
		<path fill="#249EB0" d="M172.216,38.068h58.208v17.657H193.83v21.76h34.191v17.521H193.83v38.284h-21.614L172.216,38.068
			L172.216,38.068z"/>
		<path fill="#249EB0" d="M246.676,38.068h21.615v77.14h37.863v18.082h-59.479V38.068z"/>
	</g>
	<g>
		<line fill="none" x1="50.927" y1="153.819" x2="306.155" y2="153.819"/>
		<rect x="50.927" y="152.524" fill="#249EB0" width="255.227" height="2.59"/>
	</g>
</g>
</svg>
