<?xml version="1.0" encoding="utf-8"?>
<!-- Generator: Adobe Illustrator 16.0.0, SVG Export Plug-In . SVG Version: 6.00 Build 0)  -->
<!DOCTYPE svg PUBLIC "-//W3C//DTD SVG 1.1//EN" "http://www.w3.org/Graphics/SVG/1.1/DTD/svg11.dtd">
<svg version="1.1" id="Capa_1" xmlns="http://www.w3.org/2000/svg" xmlns:xlink="http://www.w3.org/1999/xlink" x="0px" y="0px"
	 width="800px" height="800px" viewBox="0 0 800 800" enable-background="new 0 0 800 800" xml:space="preserve">
<path d="M666.666,640.5H133.333c-22.368,0-40.5-18.133-40.5-40.5s18.132-40.5,40.5-40.5h533.333c22.367,0,40.5,18.133,40.5,40.5
	S689.033,640.5,666.666,640.5z M666.666,440.5H133.333c-22.368,0-40.5-18.133-40.5-40.5c0-22.368,18.132-40.5,40.5-40.5h533.333
	c22.367,0,40.5,18.132,40.5,40.5C707.166,422.367,689.033,440.5,666.666,440.5z M666.666,240.5H133.333
	c-22.368,0-40.5-18.132-40.5-40.5s18.132-40.5,40.5-40.5h533.333c22.367,0,40.5,18.132,40.5,40.5S689.033,240.5,666.666,240.5z"/>
</svg>
