<?xml version="1.0" encoding="utf-8"?>
<!-- Generator: Adobe Illustrator 16.0.0, SVG Export Plug-In . SVG Version: 6.00 Build 0)  -->
<!DOCTYPE svg PUBLIC "-//W3C//DTD SVG 1.1//EN" "http://www.w3.org/Graphics/SVG/1.1/DTD/svg11.dtd">
<svg version="1.1" xmlns="http://www.w3.org/2000/svg" xmlns:xlink="http://www.w3.org/1999/xlink" x="0px" y="0px"
	 width="2950.983px" height="1837.858px" viewBox="0 0 2950.983 1837.858" enable-background="new 0 0 2950.983 1837.858"
	 xml:space="preserve">
<g id="Background">
	<g opacity="0.4">
		<path fill="#C2D8F2" d="M631.625,1801.077c0,0-8.368-326.121,57.411-519.88c65.779-193.757-260.638-485.916-28.533-680.135
			c101.22-84.698,553.812-582.77,1046.534-410.986c374.087,130.421,202.479,310.295,276.551,503.749
			c74.071,193.453,182.038,407.133,221.079,449.694c39.043,42.562-36.36-164.205-36.53-256.241
			c-0.172-92.034,278.631-6.345,371.596,133.918c92.966,140.264-28.583,583.354-77.302,670.789
			c-48.72,87.435-167.368,109.093-167.368,109.093L631.625,1801.077z"/>
	</g>
	<g>
		<path fill="#99BBDD" d="M218.757,1160.176c-24.77,0-44.922-20.152-44.922-44.922s20.152-44.922,44.922-44.922
			s44.922,20.152,44.922,44.922S243.527,1160.176,218.757,1160.176z M218.757,1081.226c-18.764,0-34.03,15.265-34.03,34.028
			s15.266,34.029,34.03,34.029s34.029-15.266,34.029-34.029S237.521,1081.226,218.757,1081.226z"/>
	</g>
	<g>
		<path fill="#99BBDD" d="M2725.121,1297.293c-24.77,0-44.922-20.151-44.922-44.921c0-24.771,20.152-44.922,44.922-44.922
			c24.771,0,44.922,20.151,44.922,44.922C2770.043,1277.142,2749.892,1297.293,2725.121,1297.293z M2725.121,1218.342
			c-18.764,0-34.03,15.267-34.03,34.03s15.267,34.028,34.03,34.028c18.765,0,34.03-15.265,34.03-34.028
			S2743.886,1218.342,2725.121,1218.342z"/>
	</g>
	<g>
		<path fill="#99BBDD" d="M1018.597,344.384c-24.771,0-44.922-20.152-44.922-44.922c0-24.77,20.151-44.921,44.922-44.921
			c24.77,0,44.922,20.152,44.922,44.921C1063.519,324.232,1043.367,344.384,1018.597,344.384z M1018.597,265.433
			c-18.764,0-34.03,15.266-34.03,34.03s15.266,34.029,34.03,34.029s34.03-15.265,34.03-34.029S1037.361,265.433,1018.597,265.433z"
			/>
	</g>
	<g>
		<path fill="#99BBDD" d="M1539.02,589.823c-43.206,0-78.356-35.15-78.356-78.355s35.15-78.356,78.356-78.356
			c43.205,0,78.356,35.15,78.356,78.356S1582.225,589.823,1539.02,589.823z M1539.02,452.11c-32.729,0-59.356,26.628-59.356,59.357
			c0,32.73,26.627,59.357,59.356,59.357s59.357-26.627,59.357-59.357C1598.377,478.738,1571.749,452.11,1539.02,452.11z"/>
	</g>
	<g>
		<g>
			<path fill="#99BBDD" d="M496.796,1813.346c-0.38-1.098-38.676-111.076-103.639-225.344
				c-59.595-104.826-154.422-234.832-267.743-258.896l2.262-10.655c52.023,11.047,104.396,43.95,155.663,97.791
				c40.703,42.747,80.863,98.772,119.368,166.521c65.432,115.126,104.001,225.922,104.383,227.027L496.796,1813.346z"/>
		</g>
		<g>
			<path fill="#99BBDD" d="M563.857,1813.098c-0.393-1.341-39.598-136.228-68.378-319.988
				c-16.906-107.947-26.97-211.426-29.911-307.562c-3.68-120.293,3.844-229.392,22.365-324.262l10.69,2.086
				c-41.607,213.13-18.836,459.089,7.593,627.895c28.666,183.1,67.703,317.436,68.094,318.771L563.857,1813.098z"/>
		</g>
		<g>
			<path fill="#99BBDD" d="M635.866,1813.064l-10.472-2.993c0.21-0.736,21.47-74.54,58.309-153.006
				c21.694-46.208,44.487-85.021,67.746-115.358c29.426-38.381,59.802-63.358,90.286-74.236
				c35.089-12.522,70.526-6.622,105.326,17.537l-6.212,8.946c-31.745-22.04-63.859-27.5-95.448-16.227
				c-51.424,18.349-103.908,81.917-151.776,183.834C657.135,1739.251,636.074,1812.335,635.866,1813.064z"/>
		</g>
		<g>
			<path fill="#99BBDD" d="M688.432,1814.403l-9.298-5.671c0.365-0.599,36.842-60.303,67.399-101.971
				c14.301-19.502,34.23-23.341,51.813-26.729c22.927-4.416,38.073-7.332,36.659-40.76l-0.239-5.607
				c-1.847-43.032-3.068-71.461,11.773-85.799c7.89-7.623,19.425-10.564,36.291-9.257c18.361,1.424,35.017-1.553,51.123-4.431
				c24.653-4.405,47.94-8.566,71.45,4.848c2.055,1.174,3.259,1.483,3.824,1.562c0.797-2.279,0.242-10.587-6.414-24.684
				c-13.076-27.693-50.319-76.09-106.964-81.822c-94.755-9.59-106.296-4.847-135.184,29.052
				c-13.878,16.284-20.99,26.104-26.184,33.272c-11.192,15.449-12.912,17.824-47.857,39.18
				c-51.73,31.611-54.259,53.694-50.684,69.401c8.302,36.459-26.474,200.736-27.958,207.713l-10.653-2.268
				c12.402-58.277,34.212-175.709,27.992-203.027c-6.514-28.608,10.641-53.624,55.624-81.113
				c33.084-20.219,34.409-22.046,44.716-36.276c5.3-7.315,12.558-17.335,26.714-33.946c16.3-19.126,28.312-29.698,48.734-34.396
				c20.627-4.743,49.596-3.108,95.836,1.572c37.626,3.808,65.631,24.702,82.499,41.562c21.934,21.922,34.455,45.882,38.858,60.995
				c3.412,11.713,2.62,19.641-2.355,23.564c-2.757,2.174-7.762,3.788-15.942-0.881c-20.081-11.457-40.497-7.808-64.136-3.586
				c-15.998,2.859-34.131,6.097-53.88,4.569c-13.536-1.055-22.396,0.93-27.882,6.231c-11.316,10.933-10.119,38.853-8.46,77.495
				l0.24,5.614c1.811,42.809-22.23,47.439-45.481,51.917c-16.378,3.156-33.315,6.419-45.089,22.474
				C725.036,1754.493,688.794,1813.81,688.432,1814.403z"/>
		</g>
		<g>
			<path fill="#99BBDD" d="M616.144,1714.451c-0.21-0.617-21.048-62.649-29.407-146.237c-4.085-40.846,7.833-65.119,18.348-86.534
				c12.093-24.63,22.537-45.899,10.959-88.554c-10.839-39.938-23.909-46.153-35.438-51.635c-6.362-3.025-12.941-6.153-18.192-13.831
				c-5.45-7.97-8.694-19.902-10.207-37.556c-3.074-35.867,8.879-50.203,19.426-62.85c11.749-14.088,21.027-25.214,7.654-66.718
				c-10.393-32.253-21.516-45.613-30.454-56.348c-14.106-16.943-23.425-28.136-16.941-86.492
				c5.217-46.957,21.125-66.536,32.74-80.831c12.344-15.192,19.795-24.363,9.636-57.564c-11.734-38.352-22.23-60.05-35.095-72.552
				c-14.254-13.853-32.058-16.637-57.725-9.024c-25.235,7.484-42.324,24.595-50.791,50.855c-7.948,24.651-7.697,56.048,0.727,90.795
				c7.775,32.076-5.814,69.901-20.201,109.95c-18.012,50.135-36.637,101.979-17.452,149.38
				c11.034,27.259,19.046,41.975,24.896,52.72c13.483,24.766,13.573,26.38,4.822,86.308c-3.225,22.086-6.074,37.915-8.154,49.474
				c-6.077,33.766-6.574,36.523,4.072,77.954l-10.549,2.712c-11.237-43.733-10.575-47.412-4.242-82.595
				c2.067-11.484,4.897-27.212,8.096-49.118c8.393-57.478,8.393-57.478-3.611-79.525c-5.639-10.357-14.159-26.007-25.425-53.843
				c-20.746-51.256-0.536-107.514,17.297-157.149c13.82-38.466,26.874-74.8,19.866-103.7c-8.897-36.701-9.073-70.141-0.508-96.704
				c9.501-29.469,29.579-49.508,58.061-57.956c29.495-8.746,51.231-5.042,68.414,11.655c14.27,13.87,25.611,36.952,37.918,77.177
				c11.858,38.752,1.507,51.491-11.597,67.62c-11.363,13.985-25.504,31.39-30.368,75.166c-5.972,53.747,1.729,62.998,14.486,78.319
				c9.539,11.457,21.41,25.716,32.45,59.979c15.212,47.212,2.57,62.371-9.656,77.032c-10.095,12.106-19.631,23.54-16.939,54.941
				c2.852,33.271,10.977,37.134,22.224,42.482c12.974,6.171,29.122,13.849,41.273,58.619c12.653,46.618,0.275,71.828-11.694,96.207
				c-10.355,21.09-21.063,42.898-17.287,80.65c8.228,82.275,28.677,143.212,28.882,143.818L616.144,1714.451z"/>
		</g>
		<g>
			<path fill="#99BBDD" d="M454.705,1812.72c-20.895-96.518-51.269-125.061-78.067-150.244
				c-15.842-14.888-30.804-28.947-41.262-54.692c-4.63-11.396-8.526-21.197-11.962-29.846
				c-16.859-42.421-21.947-55.224-45.049-84.223c-11.907-14.944-20.517-15.805-33.55-17.107
				c-15.506-1.549-36.745-3.671-71.38-30.225c-37.561-28.797-36.476-50.651-35.758-65.112c0.227-4.558,0.406-8.161-0.827-10.305
				c-1.318-2.295-5.058-4.065-11.432-5.414c-11.024-2.33-25.959-2.645-40.402-2.95c-28.671-0.605-55.754-1.178-65.608-15.716
				c-4.405-6.499-4.722-14.916-0.94-25.018c5.787-15.457,18.132-26.8,35.7-32.8c30.525-10.424,74.345-3.78,106.563,16.165
				c17.76,10.994,30.145,6.816,44.483,1.979c18.4-6.207,39.256-13.244,71.445,12.298c24.77,19.655,33.953,42.883,41.331,61.547
				c9.698,24.533,15.556,39.359,47.344,37.774c40.809-1.983,49.592,29.613,58.891,63.097c6.606,23.785,14.093,50.744,33.516,71.855
				c48.72,52.955,89.828,248.381,91.553,256.674l-10.663,2.219c-0.417-2.001-42.209-200.764-88.905-251.519
				c-21.2-23.042-29.06-51.345-35.995-76.315c-10.06-36.222-17.259-56.634-47.86-55.133c-39.597,1.929-48.125-19.644-58.009-44.648
				c-7.26-18.364-15.489-39.178-37.972-57.018c-27.55-21.862-43.892-16.348-61.193-10.511c-14.802,4.993-31.578,10.655-53.698-3.039
				c-29.167-18.056-70.091-24.414-97.309-15.118c-14.584,4.981-24.348,13.834-29.02,26.312c-2.507,6.696-2.587,11.631-0.245,15.087
				c6.697,9.879,33.327,10.442,56.823,10.938c14.945,0.315,30.4,0.642,42.424,3.184c21.991,4.647,21.429,15.968,20.885,26.916
				c-0.642,12.917-1.521,30.605,31.506,55.926c32.176,24.668,50.84,26.532,65.837,28.03c14.067,1.407,26.216,2.622,40.985,21.16
				c24.107,30.261,29.788,44.555,46.651,86.985c3.431,8.63,7.318,18.413,11.932,29.771c9.563,23.536,23.033,36.195,38.631,50.854
				c27.956,26.271,59.641,56.047,81.253,155.877L454.705,1812.72z"/>
		</g>
	</g>
	<g>
		<g>
			<path fill="#99BBDD" d="M2462.456,1816.533c-0.22-0.911-22.548-92.253-65.976-189.076
				c-39.781-88.693-105.868-200.288-194.79-228.244l3.268-10.39c41.199,12.952,80.966,43.564,118.192,90.984
				c29.503,37.582,57.542,85.81,83.336,143.343c43.813,97.723,66.335,189.902,66.557,190.823L2462.456,1816.533z"/>
		</g>
		<g>
			<path fill="#99BBDD" d="M2516.406,1821.445c-0.213-1.11-21.384-112.689-30.399-262.777c-5.296-88.173-5.43-172.226-0.397-249.822
				c6.3-97.118,20.759-184.37,42.976-259.33l10.444,3.097c-49.817,168.074-50.424,367.522-42.16,505.242
				c8.966,149.42,30.022,260.436,30.234,261.539L2516.406,1821.445z"/>
		</g>
		<g>
			<path fill="#99BBDD" d="M2576.33,1827.142l-10.142-3.976c0.226-0.577,23.036-58.385,58.747-118.736
				c21.042-35.563,42.406-65.088,63.501-87.755c26.761-28.76,53.286-46.615,78.842-53.07c29.53-7.46,57.897,0.084,84.3,22.424
				l-7.033,8.314c-23.569-19.938-48.662-26.729-74.601-20.179C2666.355,1600.333,2577.217,1824.878,2576.33,1827.142z"/>
		</g>
		<g>
			<path fill="#99BBDD" d="M2618.371,1832.509l-8.717-6.531c0.341-0.453,34.301-45.706,62.113-76.904
				c13.277-14.892,30.541-16.536,44.413-17.856c18.89-1.8,30.291-2.885,31.679-28.982l0.238-4.526
				c1.84-35.037,3.056-58.186,16.464-68.869c7.183-5.726,16.948-7.27,30.734-4.868c14.528,2.535,28.086,1.429,41.194,0.358
				c20.363-1.66,39.601-3.232,57.787,9.585c0.68,0.478,1.222,0.796,1.638,1.004c0.487-3.142-0.226-11.841-6.394-25.693
				c-12.078-27.127-38.412-58.782-76.098-66.272c-74.978-14.902-84.534-12.021-110.037,12.693
				c-12.387,12.002-18.847,19.334-23.563,24.688c-10.548,11.971-13.005,14.04-41.837,28.082
				c-43.442,21.155-47.149,38.287-45.526,50.849c3.901,30.191-36.776,159.867-38.509,165.372l-10.389-3.271
				c11.607-36.868,41.079-137.609,38.096-160.706c-3.105-24.026,12.795-43.157,51.56-62.037
				c27.979-13.626,28.969-14.748,38.433-25.489c4.838-5.491,11.461-13.01,24.155-25.311c29.606-28.69,44.155-30.579,119.743-15.554
				c30.273,6.018,51.384,25.147,63.762,40.136c16.082,19.473,24.381,39.9,26.784,52.521c1.932,10.144,0.53,16.82-4.167,19.85
				c-2.654,1.711-7.227,2.761-13.924-1.96c-14.962-10.544-31.488-9.194-50.627-7.632c-13.15,1.072-28.054,2.288-43.953-0.483
				c-10.49-1.829-17.506-0.986-22.075,2.656c-9.576,7.63-10.749,29.983-12.374,60.922l-0.24,4.534
				c-1.884,35.472-22.941,37.476-41.521,39.246c-13.216,1.259-26.882,2.56-37.315,14.262
				C2652.397,1787.17,2618.708,1832.06,2618.371,1832.509z"/>
		</g>
		<g>
			<path fill="#99BBDD" d="M2566.062,1746.165c-0.122-0.514-12.139-52.131-12.431-120.125c-0.146-33.466,11.392-52.209,21.57-68.745
				c11.511-18.7,21.451-34.851,15.486-69.662c-5.563-32.483-15.379-38.356-24.037-43.537c-11.912-7.128-19.697-14.071-19.399-44.427
				c0.292-29.516,11.171-40.287,20.771-49.79c10.305-10.201,18.444-18.259,11.005-52.108c-5.835-26.545-13.69-38.054-20.002-47.303
				c-11.125-16.296-16.494-26.886-7.134-71.675c7.872-37.671,22.298-52.32,32.832-63.019c10.854-11.023,17.404-17.677,11.899-44.617
				c-12.81-62.688-28.51-79.494-67.159-71.941c-20.515,4.008-35.321,16.251-44.007,36.387c-8.213,19.039-10.4,44.119-6.325,72.523
				c3.831,26.709-10.073,56.227-24.797,87.479c-18.262,38.765-37.145,78.848-25.473,118.068c6.76,22.719,12.06,35.139,15.927,44.208
				c8.988,21.07,8.913,23.046-2.706,70.454c-4.297,17.533-7.811,30.057-10.373,39.2c-7.582,27.033-8.037,28.652-2.697,62.57
				l-10.759,1.693c-5.55-35.257-4.974-38.887,2.969-67.204c2.544-9.071,6.026-21.493,10.282-38.852
				c11.089-45.25,11.089-45.25,3.267-63.588c-3.747-8.786-9.412-22.063-16.349-45.376c-12.858-43.206,7.818-87.094,26.059-125.816
				c14.007-29.731,27.235-57.814,23.869-81.29c-4.36-30.395-1.903-57.499,7.106-78.385c10.052-23.302,28.004-38.089,51.919-42.762
				c24.803-4.846,42.322-0.084,55.128,14.987c10.534,12.397,17.947,31.976,24.791,65.463c6.667,32.628-3.285,42.735-14.811,54.439
				c-10.119,10.276-22.714,23.068-29.931,57.604c-8.848,42.337-3.46,50.229,5.467,63.308c6.842,10.024,15.355,22.5,21.645,51.104
				c8.728,39.708-2.815,51.137-13.979,62.188c-8.895,8.805-17.295,17.121-17.541,42.155c-0.262,26.382,5.763,29.985,14.098,34.973
				c10.146,6.071,22.771,13.625,29.182,51.048c6.658,38.859-5.343,58.354-16.948,77.209c-9.874,16.041-20.084,32.63-19.954,62.989
				c0.289,66.677,12.021,117.163,12.14,117.666L2566.062,1746.165z"/>
		</g>
		<g>
			<path fill="#99BBDD" d="M2496.136,1819.083c-0.182-1.64-18.476-164.444-51.956-208.633c-15.432-20.365-19.6-43.867-23.277-64.602
				c-5.363-30.232-9.278-46.061-33.274-47.168c-32.74-1.511-38.298-20.755-44.181-41.129c-4.392-15.203-9.367-32.436-25.877-48.321
				c-20.068-19.31-32.758-16.339-47.45-12.897c-12.515,2.93-26.699,6.252-43.829-6.762c-21.845-16.594-53.904-24.778-76.232-19.461
				c-11.796,2.81-20.096,8.99-24.668,18.371c-3.525,7.232-1.911,10.188-1.381,11.157c4.367,7.987,25.461,10.455,44.07,12.634
				c12.046,1.408,24.499,2.866,34.068,5.865c18.182,5.696,16.73,15.636,15.449,24.405c-1.475,10.11-3.496,23.958,20.718,46.491
				c23.766,22.115,38.474,25.02,50.29,27.353c11.438,2.26,21.317,4.21,32.012,20.629c17.148,26.323,20.629,38.296,30.961,73.833
				c2.094,7.204,4.468,15.369,7.304,24.854c5.815,19.45,15.608,30.589,26.945,43.488c20.565,23.396,43.874,49.915,53.615,132.197
				l-10.815,1.279c-9.343-78.916-31.465-104.083-50.981-126.288c-11.675-13.28-22.701-25.824-29.198-47.556
				c-2.848-9.526-5.229-17.711-7.328-24.936c-10.264-35.304-13.361-45.958-29.629-70.93c-8.186-12.567-14.513-13.817-24.994-15.887
				c-12.478-2.464-29.566-5.838-55.6-30.063c-28.399-26.426-25.797-44.247-24.075-56.04c0.487-3.343,0.909-6.229,0.212-7.771
				c-0.928-2.04-4.939-3.664-8.141-4.668c-8.594-2.692-20.533-4.089-32.077-5.44c-23.294-2.726-45.294-5.3-52.361-18.226
				c-3.217-5.882-2.83-12.999,1.146-21.155c5.985-12.278,17.029-20.645,31.937-24.194c25.64-6.104,60.732,2.688,85.344,21.385
				c13.048,9.912,22.628,7.668,34.757,4.828c15.537-3.638,33.148-7.763,57.485,15.654c18.612,17.908,24.255,37.448,28.79,53.147
				c5.782,20.029,9.273,32.12,34.217,33.272c33.816,1.56,38.518,28.074,43.498,56.143c3.463,19.525,7.388,41.653,21.233,59.928
				c35.286,46.57,53.35,207.201,54.102,214.017L2496.136,1819.083z"/>
		</g>
	</g>
	<path fill="#576C89" d="M2803.767,1840.757H201.24l0,0c0-24.314,19.711-44.025,44.026-44.025h2514.475
		C2784.055,1796.731,2803.767,1816.442,2803.767,1840.757L2803.767,1840.757z"/>
	<g>
		<path fill="#466EB6" d="M2366.563,766.657h-45.144c64.871,0,117.479,52.608,117.479,117.539v793.024
			c0,64.872-52.607,117.538-117.479,117.538h45.144c64.871,0,117.479-52.666,117.479-117.538V884.196
			C2484.041,819.266,2431.434,766.657,2366.563,766.657z"/>
		<path fill="#86B1F2" d="M1048.47,766.657h1272.949c64.871,0,117.479,52.608,117.479,117.539v793.024
			c0,64.872-52.607,117.538-117.479,117.538h-410.729h-38.271h-300.361H1048.47c-64.871,0-117.479-52.666-117.479-117.538V884.196
			C930.991,819.266,983.599,766.657,1048.47,766.657z M1048.529,1660.454h1272.89c45.202,0,81.934-36.791,81.934-81.991V884.196
			c0-45.203-36.731-81.992-81.934-81.992h-1272.89c-45.203,0-81.992,36.79-81.992,81.992v694.267
			C966.537,1623.663,1003.326,1660.454,1048.529,1660.454z"/>
		<path fill="#EFEFEF" d="M2403.338,884.185v694.258c0,32.77-19.252,61.089-47.094,74.172c-10.605,5.037-22.396,7.828-34.842,7.828
			H1048.521c-45.201,0-82.001-36.787-82.001-82V884.185c0-40.694,29.83-74.581,68.767-80.926c4.317-0.708,8.728-1.075,13.234-1.075
			h1272.882c4.508,0,8.932,0.367,13.234,1.075C2373.561,809.604,2403.338,843.49,2403.338,884.185z"/>
		<g>
			<defs>
				<path id="SVGID_1_" d="M2403.342,884.181v694.266c0,32.763-19.254,61.08-47.099,74.174c-10.604,5.034-22.392,7.819-34.834,7.819
					h-1272.89c-45.204,0-81.994-36.79-81.994-81.993V884.181c0-45.202,36.79-81.991,81.994-81.991h1272.89
					C2366.611,802.189,2403.342,838.979,2403.342,884.181z"/>
			</defs>
			<clipPath id="SVGID_2_">
				<use xlink:href="#SVGID_1_"  overflow="visible"/>
			</clipPath>
			<g clip-path="url(#SVGID_2_)">
				<g id="XMLID_141_">
					<g>
						<path fill="#86B1F2" d="M2242.854,986.939v598.976c0,9.197-7.524,16.723-16.722,16.723H1143.728
							c-9.197,0-16.722-7.525-16.722-16.723V986.939H2242.854z"/>
						<path fill="#466EB6" d="M2242.854,911.276v75.663H1127.006v-75.663c0-28.191,23.065-51.256,51.256-51.256h1013.336
							C2219.789,860.021,2242.854,883.085,2242.854,911.276z"/>
					</g>
				</g>
				<circle fill="#FE875E" cx="1223.46" cy="920.785" r="14.852"/>
				<g>
					<g>
						<path fill="#13375B" d="M1744.567,1463.691h-477.442c-2.31,0-4.181-1.871-4.181-4.179c0-2.31,1.871-4.182,4.181-4.182h477.442
							c2.308,0,4.18,1.872,4.18,4.182C1748.747,1461.82,1746.875,1463.691,1744.567,1463.691z"/>
					</g>
					<g>
						<path fill="#13375B" d="M1744.567,1503.688h-535.959c-2.31,0-4.181-1.872-4.181-4.182c0-2.308,1.871-4.18,4.181-4.18h535.959
							c2.308,0,4.18,1.872,4.18,4.18C1748.747,1501.816,1746.875,1503.688,1744.567,1503.688z"/>
					</g>
					<g>
						<path fill="#13375B" d="M1744.567,1541.236h-535.959c-2.31,0-4.181-1.872-4.181-4.18c0-2.31,1.871-4.182,4.181-4.182h535.959
							c2.308,0,4.18,1.872,4.18,4.182C1748.747,1539.364,1746.875,1541.236,1744.567,1541.236z"/>
					</g>
				</g>
				<g>
					<g>
						<path fill="#13375B" d="M2157.484,1094.048H1976.14c-2.308,0-4.179-1.871-4.179-4.179c0-2.311,1.871-4.183,4.179-4.183
							h181.345c2.309,0,4.181,1.872,4.181,4.183C2161.665,1092.177,2159.793,1094.048,2157.484,1094.048z"/>
					</g>
					<g>
						<path fill="#13375B" d="M2157.484,1134.043h-203.568c-2.312,0-4.182-1.871-4.182-4.179c0-2.311,1.87-4.181,4.182-4.181
							h203.568c2.309,0,4.181,1.87,4.181,4.181C2161.665,1132.172,2159.793,1134.043,2157.484,1134.043z"/>
					</g>
					<g>
						<path fill="#13375B" d="M2157.484,1171.592h-203.568c-2.312,0-4.182-1.872-4.182-4.182c0-2.308,1.87-4.18,4.182-4.18h203.568
							c2.309,0,4.181,1.872,4.181,4.18C2161.665,1169.72,2159.793,1171.592,2157.484,1171.592z"/>
					</g>
				</g>
				<g>
					<g>
						<path fill="#13375B" d="M2157.484,1279.481H1976.14c-2.308,0-4.179-1.872-4.179-4.179c0-2.311,1.871-4.182,4.179-4.182
							h181.345c2.309,0,4.181,1.871,4.181,4.182C2161.665,1277.609,2159.793,1279.481,2157.484,1279.481z"/>
					</g>
					<g>
						<path fill="#13375B" d="M2157.484,1319.478h-203.568c-2.312,0-4.182-1.872-4.182-4.179c0-2.311,1.87-4.182,4.182-4.182
							h203.568c2.309,0,4.181,1.871,4.181,4.182C2161.665,1317.605,2159.793,1319.478,2157.484,1319.478z"/>
					</g>
					<g>
						<path fill="#13375B" d="M2157.484,1357.026h-203.568c-2.312,0-4.182-1.872-4.182-4.182c0-2.308,1.87-4.18,4.182-4.18h203.568
							c2.309,0,4.181,1.872,4.181,4.18C2161.665,1355.154,2159.793,1357.026,2157.484,1357.026z"/>
					</g>
				</g>
				<g>
					<g>
						<path fill="#13375B" d="M2157.484,1464.917H1976.14c-2.308,0-4.179-1.873-4.179-4.182s1.871-4.181,4.179-4.181h181.345
							c2.309,0,4.181,1.872,4.181,4.181S2159.793,1464.917,2157.484,1464.917z"/>
					</g>
					<g>
						<path fill="#13375B" d="M2157.484,1504.912h-203.568c-2.312,0-4.182-1.872-4.182-4.179c0-2.311,1.87-4.183,4.182-4.183
							h203.568c2.309,0,4.181,1.872,4.181,4.183C2161.665,1503.04,2159.793,1504.912,2157.484,1504.912z"/>
					</g>
					<g>
						<path fill="#13375B" d="M2157.484,1542.461h-203.568c-2.312,0-4.182-1.872-4.182-4.182c0-2.309,1.87-4.181,4.182-4.181
							h203.568c2.309,0,4.181,1.872,4.181,4.181C2161.665,1540.589,2159.793,1542.461,2157.484,1542.461z"/>
					</g>
				</g>
				<circle fill="#FEC65E" cx="1300.188" cy="920.785" r="14.852"/>
				<circle fill="#96D9C9" cx="1373.004" cy="920.785" r="14.852"/>
				<path fill="#B6D7FF" d="M1731.977,1421.706h-510.779c-6.954,0-12.589-5.637-12.589-12.59v-323.319
					c0-6.954,5.636-12.59,12.589-12.59h510.779c6.953,0,12.59,5.636,12.59,12.59v323.319
					C1744.566,1416.069,1738.93,1421.706,1731.977,1421.706z"/>
				<path fill="#FAFCFF" d="M1551.403,1241.97l-149.633-86.39c-4.224-2.438-9.503,0.609-9.503,5.486v172.781
					c0,4.876,5.279,7.924,9.503,5.486l149.633-86.39C1555.627,1250.505,1555.627,1244.407,1551.403,1241.97z"/>
				<rect x="1810.793" y="1073.207" fill="#B6D7FF" width="110.866" height="110.865"/>
				<rect x="1810.793" y="1258.641" fill="#B6D7FF" width="110.866" height="110.866"/>
				<rect x="1810.793" y="1444.075" fill="#B6D7FF" width="110.866" height="110.865"/>
			</g>
			<g clip-path="url(#SVGID_2_)">
				<polygon fill="#FFFFFF" points="2560.45,1593.547 2430.427,1710.386 1382.29,662.249 1512.314,545.411 				"/>
				
					<rect x="2063.868" y="271.084" transform="matrix(0.7071 -0.7071 0.7071 0.7071 -102.5339 1776.9224)" fill="#FFFFFF" width="59.53" height="1482.29"/>
				<polygon fill="#FFFFFF" points="1905.458,1707.031 1755.206,1853.266 825.256,923.316 975.51,777.082 				"/>
				
					<rect x="1493.695" y="573.74" transform="matrix(0.7071 -0.7071 0.7071 0.7071 -424.4561 1437.9154)" fill="#FFFFFF" width="59.532" height="1315.147"/>
			</g>
		</g>
		<g>
			<g>
				<path fill="#355389" d="M2565.141,876.719l-83.501,157.352c0,0-137.849-115.19-234.776-166.626
					c-109.382-58.045-269.589-101.021-269.589-101.021l83.499-157.352l83.502-157.351c0,0,161.653-7.7,290.89,60.881
					c119.864,63.607,213.476,206.766,213.476,206.766L2565.141,876.719z"/>
				<path fill="#13375B" d="M2887.385,898.767l-318.052-19.822l-4.192-2.225l83.5-157.352c0,0-93.611-143.159-213.476-206.766
					c-129.236-68.581-290.89-60.881-290.89-60.881l-83.502,157.351l-4.13-2.192l-194.698-252.274l630.479,50.095L2887.385,898.767z"
					/>
				<path fill="#355389" d="M2491.494,358.614l-607.724-45.135l-21.825,41.126l606.406,48.181
					c15.359,1.221,29.531,8.74,39.152,20.776l379.881,475.205l21.825-41.127l-378.099-478.003
					C2521.428,367.396,2507.059,359.771,2491.494,358.614z"/>
			</g>
			<path fill="#FEC65E" d="M1865.032,650.77c0,0-35.54,29.222-44.771,61.719s-8.252,66.406-8.252,66.406l7.08,3.757l10.063-36.062
				l-8.3,50.354l13.54,1.843l19.492-69.123l-9.658,60.986c0,0,14.781-0.17,16.993-4.339c2.212-4.168,11.331-59.43,11.331-59.43
				l-8.199,66.434c0,0,5.992,8.522,36.408-48.794c30.414-57.317-12.418-97.409-12.418-97.409L1865.032,650.77z"/>
			<g>
				<path fill="#FEC65E" d="M2255.811,341.11l-43.703-3.219c-5.958-4.11-13.464-8.726-22.097-13.306
					c-39.091-20.745-102.221-40.417-164.078-0.542c-4.346,2.83-8.667,5.911-12.995,9.303c-12.319,9.663-22.903,19.929-32.095,30.698
					c-45.282,53.017-55.906,117.709-67.011,185.542c-6.078,36.918-12.344,75.08-24.622,111.472
					c-2.456,7.31-10.389,11.24-17.666,8.721c-0.743-0.236-1.454-0.535-2.132-0.894c-5.92-3.142-8.902-10.177-6.684-16.744
					c11.541-34.256,17.652-71.235,23.547-107.064c10.367-63.167,20.994-128.015,61.22-183.715
					c10.179-14.118,22.28-27.688,36.765-40.39c3.638-3.284,7.43-6.408,11.378-9.528c119.788-94.397,250.12,16.646,251.465,17.833
					C2250.557,332.296,2253.301,336.595,2255.811,341.11z"/>
			</g>
			<circle fill="#F7F07F" cx="1880.206" cy="650.382" r="29.097"/>
		</g>
		<g>
			<path fill="#3C8F7C" d="M1115.418,1858.894H652.369c-34.713,0-62.853-28.14-62.853-62.853V911.053
				c0-34.712,28.14-62.853,62.853-62.853h463.049c34.712,0,62.852,28.141,62.852,62.853v884.988
				C1178.271,1830.754,1150.131,1858.894,1115.418,1858.894z"/>
			<path fill="#50BFA5" d="M1156.493,911.047v885c0,34.703-28.142,62.845-62.859,62.845H630.583
				c-34.704,0-62.845-28.142-62.845-62.845v-885c0-19.003,8.45-36.025,21.783-47.551v-0.005h0.007
				c11.015-9.519,25.358-15.29,41.055-15.29h463.051c15.704,0,30.049,5.771,41.067,15.29h0.008v0.007
				C1148.043,875.023,1156.493,892.045,1156.493,911.047z"/>
			<path fill="#EFEFEF" d="M1134.709,920.414v875.633c0,22.642-18.434,41.063-41.075,41.063H630.583
				c-22.641,0-41.062-18.421-41.062-41.063V920.414H1134.709z"/>
			<path fill="#184655" d="M903.51,891.957H791.252c-4.439,0-8.072-3.632-8.072-8.072l0,0c0-4.44,3.632-8.072,8.072-8.072H903.51
				c4.439,0,8.071,3.632,8.071,8.072l0,0C911.581,888.324,907.949,891.957,903.51,891.957z"/>
			<circle fill="#184655" cx="732.096" cy="883.885" r="11.715"/>
			<g>
				<g id="XMLID_142_">
					<g>
						<path fill="#86B1F2" d="M1121.495,1028.65v682.625c0,10.481-3.498,19.057-7.774,19.057H610.508
							c-4.275,0-7.774-8.575-7.774-19.057V1028.65H1121.495z"/>
						<path fill="#466EB6" d="M1121.495,993.476v35.175h-518.76v-35.175c0-13.106,10.724-23.83,23.829-23.83h471.103
							C1110.772,969.646,1121.495,980.369,1121.495,993.476z"/>
					</g>
				</g>
				<circle fill="#FE875E" cx="647.577" cy="997.896" r="6.905"/>
				<g>
					<g>
						<path fill="#13375B" d="M1058.833,1352.728H699.342c-1.739,0-3.147-1.41-3.147-3.149c0-1.737,1.409-3.146,3.147-3.146h359.491
							c1.739,0,3.147,1.409,3.147,3.146C1061.98,1351.317,1060.572,1352.728,1058.833,1352.728z"/>
					</g>
					<g>
						<path fill="#13375B" d="M1058.833,1382.842H655.281c-1.739,0-3.147-1.409-3.147-3.147s1.408-3.147,3.147-3.147h403.552
							c1.739,0,3.147,1.409,3.147,3.147S1060.572,1382.842,1058.833,1382.842z"/>
					</g>
					<g>
						<path fill="#13375B" d="M1058.833,1411.114H655.281c-1.739,0-3.147-1.409-3.147-3.148c0-1.738,1.408-3.147,3.147-3.147
							h403.552c1.739,0,3.147,1.409,3.147,3.147C1061.98,1409.705,1060.572,1411.114,1058.833,1411.114z"/>
					</g>
				</g>
				<g>
					<g>
						<path fill="#13375B" d="M803.621,1455.997h-84.307c-1.074,0-1.944-0.871-1.944-1.944s0.87-1.943,1.944-1.943h84.307
							c1.074,0,1.944,0.87,1.944,1.943S804.695,1455.997,803.621,1455.997z"/>
					</g>
					<g>
						<path fill="#13375B" d="M803.621,1474.591h-94.64c-1.073,0-1.944-0.869-1.944-1.944c0-1.072,0.871-1.943,1.944-1.943h94.64
							c1.074,0,1.944,0.871,1.944,1.943C805.565,1473.722,804.695,1474.591,803.621,1474.591z"/>
					</g>
					<g>
						<path fill="#13375B" d="M803.621,1492.047h-94.64c-1.073,0-1.944-0.871-1.944-1.943c0-1.074,0.871-1.942,1.944-1.942h94.64
							c1.074,0,1.944,0.868,1.944,1.942C805.565,1491.176,804.695,1492.047,803.621,1492.047z"/>
					</g>
				</g>
				<g>
					<g>
						<path fill="#13375B" d="M803.621,1542.204h-84.307c-1.074,0-1.944-0.868-1.944-1.942c0-1.072,0.87-1.943,1.944-1.943h84.307
							c1.074,0,1.944,0.871,1.944,1.943C805.565,1541.336,804.695,1542.204,803.621,1542.204z"/>
					</g>
					<g>
						<path fill="#13375B" d="M803.621,1560.799h-94.64c-1.073,0-1.944-0.869-1.944-1.943c0-1.072,0.871-1.943,1.944-1.943h94.64
							c1.074,0,1.944,0.871,1.944,1.943C805.565,1559.93,804.695,1560.799,803.621,1560.799z"/>
					</g>
					<g>
						<path fill="#13375B" d="M803.621,1578.256h-94.64c-1.073,0-1.944-0.871-1.944-1.944s0.871-1.942,1.944-1.942h94.64
							c1.074,0,1.944,0.869,1.944,1.942S804.695,1578.256,803.621,1578.256z"/>
					</g>
				</g>
				<g>
					<g>
						<path fill="#13375B" d="M803.621,1628.413h-84.307c-1.074,0-1.944-0.869-1.944-1.942s0.87-1.944,1.944-1.944h84.307
							c1.074,0,1.944,0.871,1.944,1.944S804.695,1628.413,803.621,1628.413z"/>
					</g>
					<g>
						<path fill="#13375B" d="M803.621,1647.009h-94.64c-1.073,0-1.944-0.871-1.944-1.944c0-1.072,0.871-1.942,1.944-1.942h94.64
							c1.074,0,1.944,0.87,1.944,1.942C805.565,1646.138,804.695,1647.009,803.621,1647.009z"/>
					</g>
					<g>
						<path fill="#13375B" d="M803.621,1664.465h-94.64c-1.073,0-1.944-0.87-1.944-1.944c0-1.073,0.871-1.943,1.944-1.943h94.64
							c1.074,0,1.944,0.87,1.944,1.943C805.565,1663.595,804.695,1664.465,803.621,1664.465z"/>
					</g>
				</g>
				<circle fill="#FEC65E" cx="683.247" cy="997.896" r="6.905"/>
				<circle fill="#96D9C9" cx="717.1" cy="997.896" r="6.905"/>
				<path fill="#B6D7FF" d="M1029.421,1321.114H684.693c-16.244,0-29.412-13.169-29.412-29.413v-203.58
					c0-16.243,13.168-29.411,29.412-29.411h344.728c16.244,0,29.412,13.168,29.412,29.411v203.58
					C1058.833,1307.945,1045.665,1321.114,1029.421,1321.114z"/>
				<path fill="#FAFCFF" d="M911.042,1184.424l-107.97-62.336c-4.225-2.439-9.504,0.608-9.504,5.487v124.673
					c0,4.876,5.279,7.926,9.504,5.487l107.97-62.338C915.266,1192.96,915.266,1186.862,911.042,1184.424z"/>
				<rect x="642.444" y="1446.308" fill="#B6D7FF" width="51.542" height="51.541"/>
				<rect x="642.444" y="1532.517" fill="#B6D7FF" width="51.542" height="51.541"/>
				<rect x="642.444" y="1618.726" fill="#B6D7FF" width="51.542" height="51.541"/>
				<g>
					<g>
						<path fill="#13375B" d="M1051.018,1455.997H966.71c-1.074,0-1.944-0.871-1.944-1.944s0.87-1.943,1.944-1.943h84.307
							c1.074,0,1.943,0.87,1.943,1.943S1052.091,1455.997,1051.018,1455.997z"/>
					</g>
					<g>
						<path fill="#13375B" d="M1051.018,1474.591h-94.641c-1.073,0-1.943-0.869-1.943-1.944c0-1.072,0.87-1.943,1.943-1.943h94.641
							c1.074,0,1.943,0.871,1.943,1.943C1052.961,1473.722,1052.091,1474.591,1051.018,1474.591z"/>
					</g>
					<g>
						<path fill="#13375B" d="M1051.018,1492.047h-94.641c-1.073,0-1.943-0.871-1.943-1.943c0-1.074,0.87-1.942,1.943-1.942h94.641
							c1.074,0,1.943,0.868,1.943,1.942C1052.961,1491.176,1052.091,1492.047,1051.018,1492.047z"/>
					</g>
				</g>
				<g>
					<g>
						<path fill="#13375B" d="M1051.018,1542.204H966.71c-1.074,0-1.944-0.868-1.944-1.942c0-1.072,0.87-1.943,1.944-1.943h84.307
							c1.074,0,1.943,0.871,1.943,1.943C1052.961,1541.336,1052.091,1542.204,1051.018,1542.204z"/>
					</g>
					<g>
						<path fill="#13375B" d="M1051.018,1560.799h-94.641c-1.073,0-1.943-0.869-1.943-1.943c0-1.072,0.87-1.943,1.943-1.943h94.641
							c1.074,0,1.943,0.871,1.943,1.943C1052.961,1559.93,1052.091,1560.799,1051.018,1560.799z"/>
					</g>
					<g>
						<path fill="#13375B" d="M1051.018,1578.256h-94.641c-1.073,0-1.943-0.871-1.943-1.944s0.87-1.942,1.943-1.942h94.641
							c1.074,0,1.943,0.869,1.943,1.942S1052.091,1578.256,1051.018,1578.256z"/>
					</g>
				</g>
				<g>
					<g>
						<path fill="#13375B" d="M1051.018,1628.413H966.71c-1.074,0-1.944-0.869-1.944-1.942s0.87-1.944,1.944-1.944h84.307
							c1.074,0,1.943,0.871,1.943,1.944S1052.091,1628.413,1051.018,1628.413z"/>
					</g>
					<g>
						<path fill="#13375B" d="M1051.018,1647.009h-94.641c-1.073,0-1.943-0.871-1.943-1.944c0-1.072,0.87-1.942,1.943-1.942h94.641
							c1.074,0,1.943,0.87,1.943,1.942C1052.961,1646.138,1052.091,1647.009,1051.018,1647.009z"/>
					</g>
					<g>
						<path fill="#13375B" d="M1051.018,1664.465h-94.641c-1.073,0-1.943-0.87-1.943-1.944c0-1.073,0.87-1.943,1.943-1.943h94.641
							c1.074,0,1.943,0.87,1.943,1.943C1052.961,1663.595,1052.091,1664.465,1051.018,1664.465z"/>
					</g>
				</g>
				<rect x="889.84" y="1446.308" fill="#B6D7FF" width="51.542" height="51.541"/>
				<rect x="889.84" y="1532.517" fill="#B6D7FF" width="51.542" height="51.541"/>
				<rect x="889.84" y="1618.726" fill="#B6D7FF" width="51.542" height="51.541"/>
			</g>
			<g>
				<defs>
					<path id="SVGID_3_" d="M1134.709,920.414v875.633c0,22.642-18.434,41.063-41.075,41.063H630.583
						c-22.641,0-41.062-18.421-41.062-41.063V920.414H1134.709z"/>
				</defs>
				<clipPath id="SVGID_4_">
					<use xlink:href="#SVGID_3_"  overflow="visible"/>
				</clipPath>
				<g clip-path="url(#SVGID_4_)">
					
						<rect x="866.923" y="658.881" transform="matrix(0.7071 -0.7071 0.7071 0.7071 -564.0032 1001.1262)" fill="#FFFFFF" width="119.063" height="1044.977"/>
					
						<rect x="977.69" y="577.881" transform="matrix(0.7071 -0.7071 0.7071 0.7071 -483.0017 1034.6692)" fill="#FFFFFF" width="59.531" height="1044.976"/>
					
						<rect x="741.941" y="1111.874" transform="matrix(0.7071 -0.7071 0.7071 0.7071 -920.9213 1045.4148)" fill="#FFFFFF" width="119.062" height="1044.977"/>
					
						<rect x="852.707" y="1030.874" transform="matrix(0.7071 -0.7071 0.7071 0.7071 -839.92 1078.9614)" fill="#FFFFFF" width="59.531" height="1044.976"/>
				</g>
			</g>
		</g>
		<g>
			<g>
				<path fill="#355389" d="M924.499,735.282l28.44,120.275c0,0-124.602,2.988-198.69,20.507
					c-83.609,19.77-186.833,70.652-186.833,70.652L538.977,826.44l-28.44-120.274c0,0,80.793-77.977,179.577-101.334
					c91.621-21.664,205.944,10.175,205.944,10.175L924.499,735.282z"/>
				<path fill="#13375B" d="M1102.662,599.347L927.704,734.524l-3.205,0.758l-28.44-120.275c0,0-114.324-31.839-205.944-10.175
					c-98.784,23.358-179.577,101.334-179.577,101.334l28.44,120.274l-3.158,0.748l-216.973-42.502l351.765-262.331L1102.662,599.347
					z"/>
				<path fill="#355389" d="M649.041,498.743L311.413,753.249l7.433,31.437L657.18,532.371c8.57-6.391,19.402-8.953,29.927-7.077
					l415.556,74.052l-7.433-31.436l-415.906-76.329C668.671,489.627,657.688,492.225,649.041,498.743z"/>
			</g>
			<path fill="#FEC65E" d="M455.958,937.747c0,0-5.167,31.501,4.886,52.675c10.054,21.173,26.079,38.411,26.079,38.411l5.412-1.279
				l-11.25-23.413l18.709,30.061l7.906-5.234l-21.459-44.971l22.865,36.228c0,0,7.631-6.85,6.878-10.037
				c-0.753-3.187-21.281-36.182-21.281-36.182l26.118,38.402c0,0,7.025,1.704-3.334-42.107
				c-10.359-43.811-51.042-45.125-51.042-45.125L455.958,937.747z"/>
			<g>
				<path fill="#FEC65E" d="M518.104,597.444l-24.266,18.315c-4.988,0.582-11.016,1.609-17.614,3.169
					c-29.881,7.066-71.809,25.688-85.828,74.788c-0.972,3.465-1.816,7.048-2.523,10.798c-2.003,10.676-2.827,20.873-2.694,30.695
					c0.638,48.37,24.696,86.972,49.939,127.434c13.72,22.037,27.912,44.808,38.159,69.407c2.063,4.937-0.277,10.616-5.225,12.632
					c-0.496,0.216-1.004,0.387-1.521,0.509c-4.525,1.07-9.3-1.235-11.146-5.676c-9.653-23.147-23.385-45.23-36.703-66.615
					c-23.494-37.69-47.62-76.376-52.123-123.833c-1.151-12.021-1.048-24.635,0.695-37.886c0.396-3.378,0.944-6.743,1.575-10.175
					c19.292-104.042,138.074-105.754,139.319-105.75C511.332,595.25,514.729,596.237,518.104,597.444z"/>
			</g>
			<circle fill="#F7F07F" cx="463.694" cy="930.603" r="20.188"/>
		</g>
		<g>
			<g>
				<path fill="#FAE0B2" d="M1220.243,1532.633c8.021,3.871,19.699,6.31,32.719,6.31c13.574,0,25.715-2.654,33.736-6.819
					l-1.095-16.243l-0.093-1.357c-0.015-0.015-0.046-0.015-0.062-0.015h0.062c0,0-0.802-0.294-1.79-0.957
					c-1.62-1.109-3.718-3.255-3.532-6.833c0.077-1.713,1.696-6.648,1.696-6.648l1.805-6.911l0.031-0.077l6.51-25.098l-65.298-5.724
					c0,0,5.584,30.02,4.706,41.141c-0.587,7.374-7.929,10.938-8.099,11.029h-0.015L1220.243,1532.633z"/>
				<path fill="#FE875E" d="M1234.327,1481.682c0,0,4.937,26.347,41.464,32.811c2.314,0.416,6.818,1.064,9.812,1.388l-0.093-1.357
					c-0.015-0.015-0.046-0.015-0.062-0.015h0.062c0,0-0.802-0.294-1.79-0.957c-1.62-1.109-3.718-3.255-3.532-6.833
					c0.077-1.713,1.832-7.168,1.832-7.168S1246.884,1502.938,1234.327,1481.682z"/>
				<path fill="#FAE0B2" d="M1212.398,1441.826c1.091,30.359,20.161,58.427,50.521,57.336c30.359-1.093,57.084-0.015,59.42-61.287
					c1.621-42.527-26.587-54.086-56.947-52.994C1235.033,1385.972,1211.307,1411.467,1212.398,1441.826z"/>
				<path fill="#13375B" d="M1312.249,1409.513c-2.398,1.77-6.104,3.224-11.766,3.83c-19.756,2.086-53.348-5.316-53.348-5.316
					s3.52,10.685,2.33,29.998c0,0-6.359-12.251-15.421-0.519c-8.108,10.534,3.441,23.002,10.374,20.283
					c0,0-0.876,27.071,20.118,27.854c12.133,0.452,20.042-12.872,27.128-15.331c23.19-8.052,26.673-3.227,26.673-3.227
					c-12.347,44.629-69.957,31.07-69.957,31.07s-6.427,6.46-20.215,5.047c-13.788-1.414-16.53-31.146-16.53-31.146
					c-9.327,3.324-19.89-15-21.5-42.941c-1.626-27.946,24.268-28.789,24.268-28.789s-3.096-19.573,27.224-30.513
					c29.526-10.653,40.025,0.826,40.553,1.432c-0.267-0.9-5.982-20.004,9.5-20.291c15.86-0.291,11.824,9.123,11.824,9.123
					c17.695-16.024,42.978,5.811,38.426,24.146c-4.54,18.354-25.58,16.424-25.58,16.424S1318.216,1405.116,1312.249,1409.513
					L1312.249,1409.513z"/>
				<path fill="#13375B" d="M1249.25,1420.459c0,0,0.806,19.052-0.182,31.076c-0.988,12.022-1.798,24.269,5.936,30.188
					c0,0-14.796-4.355-10.766-25.691c4.03-21.335,2.839-22.802,0.31-29.661C1242.019,1419.511,1249.25,1420.459,1249.25,1420.459z"
					/>
			</g>
			<path fill="#466EB6" d="M1262.073,1505.89L1262.073,1505.89c-61.637-2.486-101.452,24.288-101.452,159.603
				c0,20.603,8.075,69.368,13.036,94.38c1.69,8.521,14.953,14.028,23.639,14.028h69.678c11.371,0,22.149-2.539,31.799-7.081
				c32.667-15.377,40.921-51.187,28.709-85.163c-4.902-13.642-6.884-33.251-6.778-41.761
				C1320.8,1632.138,1337.581,1497.593,1262.073,1505.89z"/>
			<g>
				<path fill="#E8FDE6" d="M1701.311,1711.694c0,0,6.883,12.467,19.942,7.503l-1.448-28.192c-5.206,0.885-9.735,4.146-12.226,8.892
					C1705.16,1704.516,1703.146,1708.325,1701.311,1711.694z"/>
				<path fill="#E8FDE6" d="M1689.493,1838.621l19.89-1.022c-1.649-25.817-24.428-21.807-24.428-21.807
					c-0.133,10.372-0.693,16.595-0.807,17.696c-0.01,0.124-0.021,0.187-0.021,0.187l0.005,0.108
					C1684.277,1836.604,1686.675,1838.765,1689.493,1838.621z"/>
				<path fill="#A1CD96" d="M1683.798,1743.022c-1.217,2.164-2.534,4.503-3.962,7.063c0,0,0.465,2.446,1.137,6.813
					c1.098,7.25,2.699,19.788,3.481,34.994c0.065,1.278,0.13,2.541,0.161,3.761c0.34,7.813,0.408,14.575,0.34,20.139
					c0,0,22.778-4.011,24.428,21.807l17.901-0.918l-6.031-117.483c-13.06,4.964-19.942-7.503-19.942-7.503
					c-3.806,7.068-6.765,12.318-10.801,19.461C1688.584,1734.544,1686.416,1738.363,1683.798,1743.022z"/>
				<path fill="#17511A" d="M1727.284,1836.681l0.646-0.033c3.559-0.184,6.308-3.212,6.124-6.771l-6.895-134.291
					c-0.071-1.402-0.706-2.636-1.678-3.512c-0.972-0.862-2.264-1.367-3.666-1.295c-0.678,0.034-1.354,0.115-2.012,0.227
					l1.448,28.192L1727.284,1836.681z"/>
				<path fill="#FAE0B2" d="M1669.537,1834.425l14.591-0.75c0,0-0.004-0.061,0.021-0.187c0.113-1.997,1.131-20.06,0.467-37.835
					c-0.031-1.22-0.096-2.482-0.161-3.761c-0.782-15.206-2.384-27.744-3.481-34.994c-0.663-4.196-1.124-6.537-1.124-6.537
					l-14.588,0.75l3.952,76.981L1669.537,1834.425z"/>
				<g>
					<g>
						
							<rect x="1681.737" y="1747.719" transform="matrix(0.7507 0.6606 -0.6606 0.7507 1576.3328 -680.5898)" fill="#E8FDE6" width="16.546" height="1.541"/>
					</g>
					<g>
						
							<rect x="1685.362" y="1741.747" transform="matrix(0.7504 0.661 -0.661 0.7504 1574.6338 -684.5439)" fill="#E8FDE6" width="16.56" height="1.541"/>
					</g>
					<g>
						<polygon fill="#E8FDE6" points="1702.36,1742.623 1690.002,1731.734 1690.877,1730.474 1690.94,1730.517 1703.379,1741.466 
													"/>
					</g>
				</g>
				<g>
					<path fill="#B75742" d="M1669.805,1839.631l-4.865-94.774l-294.356-19.796l-106.676-7.182
						c-25.529-1.718-46.827,19.244-45.515,44.798l1.72,33.503c1.51,29.429,26.132,52.331,55.593,51.714L1669.805,1839.631z"/>
				</g>
			</g>
			<path fill="#F47458" d="M1624.618,1746.734l-50.429,73.915l-132.294-80.396c0,0-48.021,57.782-121.758,95.29
				c-57.223,29.122-104.221,3.281-130.075-38.244c-7.46-11.98-13.166-25.269-16.841-38.91c0,0,10.797-7.394,28.291-18.912
				c35.998-23.717,100.369-64.969,157.496-95.548c84.888-45.433,114.677-37.182,167.121,15.929
				C1578.56,1712.957,1624.618,1746.734,1624.618,1746.734z"/>
			<path fill="#B75742" d="M1190.063,1797.3c-7.46-11.98-13.166-25.269-16.841-38.91c0,0,10.797-7.394,28.291-18.912
				C1201.512,1739.478,1227.326,1764.911,1190.063,1797.3z"/>
			<g>
				<path fill="#B75742" d="M1566.778,1815.369l-1.131-0.76l1.517-2.262l1.131,0.759L1566.778,1815.369z M1569.811,1810.844
					l-1.13-0.757l1.516-2.262l1.13,0.758L1569.811,1810.844z M1572.843,1806.321l-1.131-0.759l1.517-2.262l1.131,0.759
					L1572.843,1806.321z M1575.875,1801.798l-1.131-0.76l1.516-2.262l1.131,0.759L1575.875,1801.798z M1578.907,1797.272
					l-1.13-0.758l1.515-2.263l1.131,0.759L1578.907,1797.272z M1581.939,1792.75l-1.132-0.758l1.517-2.263l1.131,0.759
					L1581.939,1792.75z M1584.972,1788.226l-1.132-0.759l1.517-2.263l1.131,0.76L1584.972,1788.226z M1588.003,1783.701
					l-1.131-0.757l1.516-2.263l1.132,0.759L1588.003,1783.701z M1591.035,1779.179l-1.131-0.759l1.516-2.263l1.131,0.76
					L1591.035,1779.179z M1594.067,1774.654l-1.131-0.759l1.516-2.262l1.131,0.76L1594.067,1774.654z M1597.1,1770.13l-1.132-0.758
					l1.517-2.262l1.131,0.758L1597.1,1770.13z M1600.131,1765.606l-1.131-0.759l1.516-2.262l1.132,0.76L1600.131,1765.606z
					 M1603.163,1761.084l-1.131-0.759l1.516-2.263l1.132,0.759L1603.163,1761.084z M1606.195,1756.559l-1.131-0.758l1.516-2.263
					l1.131,0.759L1606.195,1756.559z M1609.227,1752.036l-1.131-0.76l1.516-2.262l1.133,0.759L1609.227,1752.036z
					 M1612.259,1747.512l-1.13-0.759l1.516-2.262l1.13,0.758L1612.259,1747.512z M1615.291,1742.987l-1.131-0.759l1.516-2.261
					l1.133,0.759L1615.291,1742.987z"/>
			</g>
			<g>
				<path fill="#B75742" d="M1615.79,1757.76l-2.07-1.821l0.899-1.023l2.073,1.824L1615.79,1757.76z M1611.66,1754.128l-2.055-1.807
					l0.899-1.023l2.056,1.807L1611.66,1754.128z M1607.553,1750.519l-2.052-1.802l0.899-1.022l2.052,1.801L1607.553,1750.519z
					 M1207.345,1749.175c-0.135,0-0.27-0.05-0.413-0.176l0.452-0.51l-0.366-0.574l0.878-0.579l0.749,1.137l-0.563,0.372
					C1207.813,1749.021,1207.579,1749.175,1207.345,1749.175z M1210.94,1746.967l-0.746-1.139l2.29-1.498l0.745,1.14
					L1210.94,1746.967z M1603.449,1746.915l-2.053-1.801l0.899-1.023l2.053,1.802L1603.449,1746.915z M1215.518,1743.978
					l-0.743-1.141l2.291-1.488l0.741,1.143L1215.518,1743.978z M1599.348,1743.317l-2.053-1.801l0.898-1.023l2.051,1.799
					L1599.348,1743.317z M1220.095,1741.006l-0.738-1.143l2.292-1.48l0.738,1.145L1220.095,1741.006z M1595.246,1739.718
					l-2.053-1.796l0.897-1.025l2.052,1.799L1595.246,1739.718z M1224.68,1738.049l-0.737-1.146l2.294-1.475l0.736,1.146
					L1224.68,1738.049z M1591.143,1736.125l-2.051-1.796l0.896-1.025l2.052,1.796L1591.143,1736.125z M1229.268,1735.102
					l-0.734-1.146l2.297-1.471l0.734,1.146L1229.268,1735.102z M1587.041,1732.53l-2.053-1.795l0.896-1.024l2.052,1.796
					L1587.041,1732.53z M1233.862,1732.164l-0.733-1.146l2.301-1.466l0.73,1.148L1233.862,1732.164z M1238.46,1729.238l-0.73-1.149
					l2.303-1.462l0.728,1.15L1238.46,1729.238z M1582.938,1728.939l-2.053-1.796l0.896-1.023l2.053,1.795L1582.938,1728.939z
					 M1243.064,1726.319l-0.727-1.15l2.296-1.45l0.735,1.146l-0.009,0.005L1243.064,1726.319z M1578.833,1725.35l-2.054-1.795
					l0.895-1.024l2.054,1.795L1578.833,1725.35z M1247.674,1723.412l-0.726-1.151l2.308-1.452l0.724,1.153L1247.674,1723.412z
					 M1574.728,1721.762l-2.054-1.793l0.896-1.026l2.054,1.794L1574.728,1721.762z M1252.289,1720.515l-0.722-1.154l2.31-1.445
					l0.722,1.153L1252.289,1720.515z M1570.622,1718.177l-2.055-1.794l0.896-1.025l2.054,1.793L1570.622,1718.177z
					 M1256.91,1717.626l-0.721-1.156l2.314-1.44l0.719,1.155L1256.91,1717.626z M1261.535,1714.749l-0.717-1.158l2.317-1.436
					l0.717,1.157L1261.535,1714.749z M1566.513,1714.592l-2.054-1.792l0.895-1.025l2.056,1.791L1566.513,1714.592z
					 M1266.169,1711.88l-0.716-1.158l2.321-1.431l0.713,1.159L1266.169,1711.88z M1562.405,1711.009l-2.047-1.785l0.894-1.025
					l2.049,1.783L1562.405,1711.009z M1270.807,1709.023l-0.713-1.16l2.324-1.427l0.712,1.161L1270.807,1709.023z
					 M1558.306,1707.438l-2.058-1.79l0.894-1.028l2.058,1.792L1558.306,1707.438z M1275.453,1706.175l-0.711-1.161l2.327-1.42
					l0.708,1.162L1275.453,1706.175z M1554.188,1703.853l-2.057-1.788l0.893-1.027l2.058,1.788L1554.188,1703.853z
					 M1280.105,1703.339l-0.708-1.162l2.331-1.416l0.706,1.166L1280.105,1703.339z M1284.763,1700.514l-0.704-1.164l2.334-1.409
					l0.702,1.166L1284.763,1700.514z M1550.074,1700.276l-2.057-1.789l0.893-1.027l2.058,1.788L1550.074,1700.276z
					 M1289.429,1697.702l-0.701-1.167l2.337-1.403l0.701,1.169L1289.429,1697.702z M1545.959,1696.702l-2.059-1.788l0.891-1.027
					l2.06,1.786L1545.959,1696.702z M1294.102,1694.902l-0.698-1.17l2.34-1.395l0.697,1.17L1294.102,1694.902z M1541.84,1693.13
					l-2.061-1.786l0.892-1.027l2.061,1.784L1541.84,1693.13z M1298.782,1692.115l-0.696-1.17l2.345-1.39l0.693,1.171
					L1298.782,1692.115z M1537.72,1689.56l-2.061-1.783l0.891-1.03l2.063,1.786L1537.72,1689.56z M1303.471,1689.341l-0.691-1.173
					l2.35-1.381l0.689,1.173L1303.471,1689.341z M1308.167,1686.583l-0.689-1.175l2.354-1.376l0.686,1.178L1308.167,1686.583z
					 M1533.597,1685.994l-2.063-1.782l0.89-1.03l2.063,1.782L1533.597,1685.994z M1312.873,1683.838l-0.684-1.177l2.367-1.372
					l0.682,1.179L1312.873,1683.838z M1529.472,1682.433l-2.066-1.781l0.89-1.031l2.064,1.781L1529.472,1682.433z
					 M1317.601,1681.102l-0.68-1.179l2.366-1.36l0.678,1.181L1317.601,1681.102z M1525.34,1678.873l-2.066-1.778l0.888-1.032
					l2.067,1.778L1525.34,1678.873z M1322.327,1678.39l-0.675-1.183l2.365-1.349l0.672,1.185L1322.327,1678.39z M1327.053,1675.703
					l-0.671-1.185l2.366-1.337l0.667,1.187L1327.053,1675.703z M1521.205,1675.319l-2.069-1.775l0.886-1.033l2.07,1.775
					L1521.205,1675.319z M1331.791,1673.035l-0.667-1.187c0.794-0.447,1.588-0.89,2.38-1.332l0.663,1.189
					C1333.375,1672.146,1332.583,1672.589,1331.791,1673.035z M1517.064,1671.772l-2.072-1.77l0.883-1.038l2.074,1.771
					L1517.064,1671.772z M1336.546,1670.384l-0.661-1.192l2.386-1.318l0.658,1.191L1336.546,1670.384z M1512.917,1668.229
					l-2.076-1.766l0.881-1.037l2.078,1.768L1512.917,1668.229z M1341.316,1667.753l-0.656-1.193c0.799-0.44,1.598-0.875,2.393-1.309
					l0.652,1.195C1342.91,1666.879,1342.114,1667.313,1341.316,1667.753z M1346.097,1665.147l-0.647-1.198l2.4-1.294l0.645,1.197
					L1346.097,1665.147z M1508.761,1664.7l-2.082-1.762l0.878-1.041l2.085,1.763L1508.761,1664.7z M1350.894,1662.567l-0.642-1.2
					c0.806-0.43,1.607-0.857,2.408-1.281l0.638,1.204C1352.499,1661.712,1351.697,1662.14,1350.894,1662.567z M1504.595,1661.181
					l-2.091-1.754l0.874-1.044l2.093,1.754L1504.595,1661.181z M1355.705,1660.02l-0.634-1.206l2.416-1.265l0.631,1.207
					L1355.705,1660.02z M1500.409,1657.681c-0.735-0.609-1.436-1.19-2.103-1.739l0.865-1.051c0.668,0.55,1.371,1.131,2.108,1.742
					L1500.409,1657.681z M1360.534,1657.501l-0.625-1.209c0.812-0.42,1.62-0.836,2.426-1.249l0.62,1.213
					C1362.151,1656.667,1361.345,1657.083,1360.534,1657.501z M1365.38,1655.021l-0.615-1.214c0.816-0.415,1.628-0.823,2.436-1.229
					l0.61,1.217C1367.005,1654.2,1366.195,1654.607,1365.38,1655.021z M1496.198,1654.216c-0.5-0.407-0.973-0.787-1.418-1.143
					c-0.236-0.189-0.471-0.377-0.704-0.568l0.861-1.054l0.693,0.558c0.446,0.357,0.923,0.742,1.425,1.15L1496.198,1654.216z
					 M1370.247,1652.579l-0.604-1.219c0.82-0.406,1.636-0.808,2.447-1.207l0.599,1.223
					C1371.879,1651.773,1371.065,1652.175,1370.247,1652.579z M1491.966,1650.777c-0.705-0.585-1.401-1.169-2.091-1.752l0.877-1.04
					c0.688,0.58,1.381,1.162,2.082,1.745L1491.966,1650.777z M1375.135,1650.188l-0.592-1.228c0.825-0.397,1.645-0.793,2.46-1.18
					l0.585,1.229C1376.776,1649.396,1375.958,1649.789,1375.135,1650.188z M1380.049,1647.847l-0.58-1.232
					c0.832-0.392,1.658-0.775,2.476-1.15l0.57,1.233C1381.7,1647.074,1380.878,1647.456,1380.049,1647.847z M1487.795,1647.266
					l-2.077-1.761l0.88-1.039l2.078,1.76L1487.795,1647.266z M1384.992,1645.567l-0.563-1.239c0.837-0.38,1.668-0.753,2.492-1.118
					l0.552,1.244C1386.653,1644.817,1385.825,1645.188,1384.992,1645.567z M1483.636,1643.763c-0.699-0.578-1.398-1.149-2.101-1.712
					l0.85-1.063c0.708,0.567,1.414,1.145,2.119,1.729L1483.636,1643.763z M1389.964,1643.363l-0.541-1.251
					c0.845-0.367,1.683-0.724,2.511-1.074l0.53,1.252C1391.639,1642.639,1390.806,1642.997,1389.964,1643.363z M1394.973,1641.245
					l-0.518-1.258c0.599-0.247,1.193-0.488,1.781-0.724l0.752-0.3l0.504,1.265l-0.751,0.299
					C1396.157,1640.761,1395.568,1641.001,1394.973,1641.245z M1479.404,1640.378c-0.717-0.55-1.439-1.088-2.169-1.613l0.796-1.104
					c0.74,0.533,1.473,1.08,2.201,1.637L1479.404,1640.378z M1400.021,1639.233l-0.492-1.269c0.859-0.333,1.709-0.658,2.55-0.974
					l0.479,1.275C1401.721,1638.58,1400.875,1638.903,1400.021,1639.233z M1405.104,1637.325l-0.465-1.28
					c0.868-0.316,1.724-0.621,2.571-0.919l0.45,1.285C1406.819,1636.707,1405.967,1637.012,1405.104,1637.325z M1475.019,1637.224
					c-0.745-0.498-1.5-0.981-2.268-1.448l0.708-1.163c0.785,0.478,1.557,0.971,2.318,1.48L1475.019,1637.224z M1410.228,1635.528
					l-0.435-1.29c0.876-0.296,1.741-0.579,2.595-0.854l0.417,1.296C1411.957,1634.953,1411.098,1635.235,1410.228,1635.528z
					 M1470.425,1634.433c-0.793-0.43-1.597-0.843-2.391-1.224l0.589-1.226c0.815,0.391,1.641,0.812,2.453,1.255L1470.425,1634.433z
					 M1415.392,1633.867l-0.399-1.301c0.886-0.271,1.759-0.532,2.62-0.781l0.378,1.307
					C1417.138,1633.34,1416.271,1633.599,1415.392,1633.867z M1420.602,1632.36l-0.356-1.314c0.896-0.242,1.777-0.473,2.647-0.691
					l0.331,1.322C1422.362,1631.892,1421.488,1632.12,1420.602,1632.36z M1465.584,1632.118c-0.822-0.34-1.665-0.659-2.506-0.95
					l0.446-1.288c0.866,0.302,1.734,0.63,2.58,0.979L1465.584,1632.118z M1425.858,1631.04l-0.306-1.326
					c0.906-0.209,1.796-0.404,2.674-0.585l0.276,1.332C1427.636,1630.641,1426.754,1630.835,1425.858,1631.04z M1460.521,1630.363
					c-0.854-0.242-1.729-0.463-2.6-0.657l0.296-1.329c0.895,0.2,1.795,0.429,2.674,0.677L1460.521,1630.363z M1431.158,1629.942
					l-0.244-1.341c0.916-0.166,1.816-0.319,2.701-0.457l0.21,1.346C1432.952,1629.627,1432.063,1629.777,1431.158,1629.942z
					 M1455.288,1629.196c-0.869-0.144-1.763-0.269-2.659-0.37l0.152-1.352c0.919,0.104,1.837,0.23,2.729,0.378L1455.288,1629.196z
					 M1436.501,1629.111l-0.172-1.352c0.927-0.118,1.836-0.219,2.728-0.305l0.128,1.357
					C1438.308,1628.896,1437.413,1628.994,1436.501,1629.111z M1441.876,1628.602l-0.082-1.359c0.935-0.056,1.849-0.096,2.746-0.115
					l0.031,1.361C1443.69,1628.509,1442.793,1628.546,1441.876,1628.602z M1449.952,1628.592c-0.878-0.055-1.782-0.092-2.688-0.109
					l0.025-1.36c0.925,0.018,1.851,0.055,2.75,0.112L1449.952,1628.592z"/>
			</g>
			<g>
				<path fill="#E8FDE6" d="M1675.026,1740.347c0,0-2.1,14.084,11.293,18.065l15.962-23.282c-4.674-2.457-10.251-2.615-15.11-0.354
					C1682.443,1736.978,1678.529,1738.783,1675.026,1740.347z"/>
				<path fill="#E8FDE6" d="M1588.589,1834.04l16.426,11.261c14.36-21.52-6.176-32.157-6.176-32.157
					c-6.4,8.161-10.624,12.766-11.383,13.573c-0.083,0.094-0.13,0.135-0.13,0.135l-0.061,0.089
					C1585.669,1829.27,1586.261,1832.442,1588.589,1834.04z"/>
				<path fill="#A1CD96" d="M1642.093,1754.61c-2.281,0.981-4.746,2.04-7.437,3.207c0,0-1.115,2.228-3.232,6.106
					c-3.528,6.429-9.865,17.364-18.475,29.921c-0.725,1.057-1.438,2.1-2.154,3.088c-4.475,6.415-8.523,11.831-11.956,16.211
					c0,0,20.536,10.638,6.176,32.157l14.783,10.137l66.521-97.025c-13.393-3.981-11.293-18.065-11.293-18.065
					c-7.317,3.306-12.853,5.682-20.396,8.907C1651.041,1750.778,1647.002,1752.497,1642.093,1754.61z"/>
				<path fill="#17511A" d="M1619.798,1855.438l0.534,0.366c2.939,2.015,6.962,1.275,8.978-1.664l76.037-110.904
					c0.794-1.158,1.039-2.523,0.8-3.811c-0.249-1.273-0.971-2.459-2.128-3.254c-0.56-0.384-1.146-0.73-1.737-1.041l-15.962,23.282
					L1619.798,1855.438z"/>
				<path fill="#FAE0B2" d="M1575.278,1818.591l12.048,8.261c0,0,0.034-0.05,0.13-0.135c1.304-1.52,13.077-15.256,23.339-29.784
					c0.716-0.988,1.43-2.031,2.154-3.088c8.609-12.557,14.946-23.492,18.475-29.921c2.021-3.738,3.076-5.878,3.076-5.878
					l-12.049-8.26l-43.589,63.576L1575.278,1818.591z"/>
				<g>
					<g>
						
							<rect x="1635.437" y="1761.954" transform="matrix(0.1956 0.9807 -0.9807 0.1956 3050.8213 -194.0646)" fill="#E8FDE6" width="16.548" height="1.542"/>
					</g>
					<g>
						
							<rect x="1641.942" y="1759.414" transform="matrix(0.1951 0.9808 -0.9808 0.1951 3054.656 -201.7137)" fill="#E8FDE6" width="16.559" height="1.543"/>
					</g>
					<g>
						<polygon fill="#E8FDE6" points="1657.086,1765.562 1653.874,1749.404 1655.338,1748.938 1655.362,1749.01 1658.6,1765.261 
													"/>
					</g>
				</g>
			</g>
			<path fill="#86B1F2" d="M1446.719,1550.837l-1.3-0.67c-2.698-1.389-3.759-4.702-2.37-7.4l44.103-85.656
				c1.39-2.698,4.703-3.76,7.401-2.37l1.3,0.669c2.698,1.39,3.76,4.703,2.371,7.401l-44.104,85.656
				C1452.731,1551.164,1449.417,1552.225,1446.719,1550.837z"/>
			<path fill="#FAE0B2" d="M1442.929,1576.179c22.76-5.699,34.729-32.369,34.208-46.969c-0.522-14.6-6.186-14.896-6.186-14.896
				s-8.488,16.487-12.278,23.85c-3.791,7.36-3.501,10.537-9.628,8.775s-3.326-9.255-3.326-9.255l4.591-10.482
				c-4.795-5.397-9.806,3.702-17.236,7.613c-7.431,3.911-12.137,19.684-12.137,19.684S1425.141,1572.462,1442.929,1576.179z"/>
			<path fill="#355389" d="M1230.693,1513.834c-20.721,14.251-24.938,43.102-9.203,62.72c6.708,8.365,12.716,15.657,15.531,18.569
				c2.014,2.154,4.201,4.266,6.304,6.394c2.128,2.113,4.264,4.215,6.528,6.291c2.242,2.082,4.429,4.168,6.743,6.207l7.087,6.093
				c1.15,1.019,2.401,2.016,3.68,3.003l3.792,2.962l3.793,2.948l4.087,2.905l4.112,2.849c0.695,0.474,1.352,0.947,2.077,1.415
				l2.259,1.396l4.523,2.759l2.263,1.366l1.131,0.677l1.795,0.969c2.517,1.298,5.033,2.621,7.627,3.671
				c2.615,0.994,5.263,1.93,7.908,2.747c2.626,0.66,5.271,1.249,7.912,1.765c2.59,0.415,5.132,0.646,7.696,0.866
				c10.08,0.569,19.05-0.716,26.971-2.767c1.932-0.547,3.99-1.03,5.782-1.675l5.464-1.9c3.444-1.376,6.864-2.827,9.998-4.405
				c6.354-3.11,12.183-6.542,17.557-10.184c10.822-7.252,20.146-15.325,28.843-23.69c4.286-4.265,8.435-8.555,12.363-13.049
				c1.957-2.263,3.896-4.516,5.792-6.842l2.805-3.55l2.933-3.835l-29.434-30.693c-0.346,0.13-0.951,0.499-1.464,0.774l-1.614,0.925
				l-3.315,1.863c-2.203,1.264-4.439,2.508-6.676,3.725c-4.49,2.419-8.926,4.842-13.434,7.012
				c-8.888,4.487-17.853,8.368-26.317,11.27c-4.232,1.498-8.342,2.579-12.144,3.4c-0.938,0.162-1.916,0.438-2.797,0.523
				c-0.897,0.111-1.78,0.242-2.652,0.389l-2.438,0.184c-0.828,0.11-1.479-0.012-2.208,0.02c-2.777-0.085-6.742-3.963-6.742-3.963
				l-2.179-1.912l-1.092-0.941c-0.371-0.337-0.758-0.742-1.136-1.109l-2.279-2.237l-2.306-2.185l-2.337-2.454
				c-1.563-1.671-3.107-3.17-4.686-4.95c-3.187-3.415-17.34-21.029-30.571-37.632
				C1274.874,1504.759,1249.402,1500.965,1230.693,1513.834L1230.693,1513.834z"/>
		</g>
		<g>
			<g>
				<g>
					<path fill="#355389" d="M2333.17,1804.028l8.404,0.76c-20.912,1.491-36.644,19.622-35.151,40.533l0.823,11.588
						c1.246,17.448,14.125,31.297,30.522,34.5l-135.065-10.84c-22.514-2.184-38.914-22.299-36.596-44.783l0.645-6.227
						c2.286-22.186,21.935-38.403,44.152-36.414h0.027L2333.17,1804.028z"/>
					<polygon fill="#355389" points="2658.38,1797.581 2341.574,1804.788 2333.17,1804.028 2210.932,1793.146 2210.904,1793.146 
						2209.436,1793.013 					"/>
					<path fill="#466EB6" d="M2649.271,1810.346l-307.016,8.042c-6.927,0.57-13.191,4.011-17.447,9.634
						c-3.674,4.899-5.188,11.083-4.74,17.219l0.782,10.686c0.891,12.461,11.353,22.405,23.822,22.604
						c0.708,0.011,1.444-0.032,2.153-0.075l0.327-0.021l302.53-6.861l7.52-0.179c3.542-0.08,6.437,2.825,6.381,6.365l-0.018,1.115
						c-0.054,3.349-2.738,6.058-6.09,6.14l-309.668,7.02c-3.436,0.245-6.81,0.027-10.04-0.623
						c-16.397-3.203-29.276-17.052-30.522-34.5l-0.823-11.588c-1.492-20.911,14.239-39.042,35.151-40.533l316.806-7.207
						c3.542-0.079,6.438,2.801,6.38,6.367c-0.054,3.348-2.711,6.057-6.062,6.139L2649.271,1810.346z"/>
					<path fill="#FAE0B2" d="M2649.684,1871.571l-302.53,6.861l-0.327,0.021c-0.709,0.043-1.445,0.086-2.153,0.075
						c-12.47-0.198-22.932-10.143-23.822-22.604l-0.782-10.686c-0.447-6.136,1.066-12.319,4.74-17.219
						c4.256-5.623,10.521-9.063,17.447-9.634l307.016-8.042c-0.117,0.542-4.004,18.808-4.19,30.542
						C2644.896,1852.567,2649.684,1871.571,2649.684,1871.571z"/>
				</g>
				<path fill="#E5BD83" d="M2346.67,1836.126c8.86-1.479,17.741-2.418,26.629-3.17c8.887-0.787,17.787-1.255,26.689-1.662
					c8.905-0.304,17.814-0.54,26.735-0.459c8.921,0.047,17.848,0.285,26.797,1.065c-8.858,1.485-17.74,2.429-26.628,3.181
					c-8.887,0.784-17.786,1.252-26.69,1.652c-8.905,0.297-17.815,0.533-26.735,0.452
					C2364.547,1837.137,2355.619,1836.9,2346.67,1836.126z"/>
				<path fill="#E5BD83" d="M2419.906,1861.025c8.859-1.478,17.741-2.418,26.629-3.171c8.887-0.786,17.787-1.254,26.688-1.66
					c8.906-0.305,17.817-0.541,26.737-0.46c8.921,0.046,17.849,0.286,26.798,1.066c-8.86,1.485-17.74,2.429-26.629,3.181
					c-8.888,0.783-17.787,1.252-26.69,1.652c-8.906,0.297-17.814,0.533-26.736,0.451
					C2437.783,1862.036,2428.854,1861.8,2419.906,1861.025z"/>
				<path fill="#50BFA5" d="M2431.982,1907.245c12.301-16.47,13.092-57.232,1.323-74.088c-22.699-0.361-42.875,2.036-65.574,1.674
					c11.773,16.854,8.45,54.855-3.853,71.329c14.34-4.407,28.311-10.307,41.384-17.071
					C2414.887,1896.213,2423.618,1902.478,2431.982,1907.245z"/>
				<path fill="#E5BD83" d="M2498.359,1845.095c12.194-1.477,24.403-2.416,36.619-3.168c12.215-0.786,24.438-1.252,36.664-1.658
					c12.229-0.303,24.458-0.538,36.698-0.457c12.239,0.049,24.481,0.29,36.742,1.07c-12.194,1.485-24.406,2.428-36.62,3.178
					c-12.214,0.783-24.438,1.251-36.663,1.649c-12.23,0.298-24.461,0.533-36.699,0.449
					C2522.861,1846.11,2510.618,1845.87,2498.359,1845.095z"/>
			</g>
			<g>
				<g>
					<path fill="#FAE0B2" d="M2220.525,1537.587h397.66c0,0-6.944,28.781-6.944,60.068c0,30.388,6.944,60.069,6.944,60.069h-397.66
						c-14.105,0-25.54-11.438-25.54-25.543v-69.026C2194.985,1549.024,2206.42,1537.587,2220.525,1537.587z"/>
					<path fill="#184655" d="M2623.549,1521.249c4.521,0,8.169,3.677,8.169,8.17c0,2.26-0.899,4.302-2.397,5.772
						c-1.469,1.498-3.511,2.396-5.771,2.396h-5.363h-397.66c-14.105,0-25.54,11.438-25.54,25.568v69.026
						c0,14.105,11.435,25.543,25.54,25.543h397.66h5.363c4.521,0,8.169,3.647,8.169,8.169c0,2.26-0.899,4.274-2.397,5.771
						c-1.469,1.471-3.511,2.396-5.771,2.396h-403.023c-23.146,0-41.878-18.762-41.878-41.88v-69.054
						c0-23.117,18.732-41.879,41.878-41.879H2623.549z"/>
				</g>
				<path fill="#E5BD83" d="M2246.753,1560.84c23.548-1.052,47.096-1.758,70.645-2.116c23.546-0.435,47.094-0.552,70.641-0.604
					c23.549,0.047,47.097,0.163,70.646,0.595c23.547,0.357,47.094,1.067,70.643,2.126c-23.549,1.059-47.096,1.769-70.643,2.125
					c-23.549,0.432-47.097,0.549-70.646,0.597c-23.547-0.055-47.095-0.17-70.641-0.605
					C2293.849,1562.599,2270.301,1561.892,2246.753,1560.84z"/>
				<path fill="#E5BD83" d="M2232.026,1597.657c8.897-1.127,17.795-1.716,26.692-2.116c8.896-0.435,17.795-0.55,26.691-0.604
					c8.898,0.047,17.796,0.163,26.693,0.595c8.897,0.4,17.796,0.992,26.693,2.126c-8.897,1.134-17.796,1.727-26.693,2.125
					c-8.897,0.432-17.795,0.549-26.693,0.596c-8.896-0.053-17.795-0.169-26.691-0.604
					C2249.821,1599.373,2240.924,1598.784,2232.026,1597.657z"/>
				<path fill="#E5BD83" d="M2300.139,1635.396c8.896-1.127,17.795-1.717,26.692-2.117c8.897-0.435,17.795-0.55,26.693-0.604
					c8.897,0.048,17.794,0.164,26.691,0.597c8.897,0.398,17.795,0.99,26.692,2.125c-8.897,1.134-17.795,1.726-26.692,2.124
					c-8.897,0.434-17.794,0.55-26.691,0.597c-8.898-0.054-17.796-0.17-26.693-0.605
					C2317.934,1637.11,2309.035,1636.521,2300.139,1635.396z"/>
				<path fill="#E5BD83" d="M2356.316,1613.305c20.561-1.052,41.122-1.758,61.684-2.116c20.561-0.435,41.123-0.552,61.684-0.605
					c20.561,0.047,41.122,0.164,61.684,0.598c20.561,0.354,41.121,1.065,61.683,2.124c-20.562,1.059-41.122,1.769-61.683,2.125
					c-20.562,0.433-41.123,0.548-61.684,0.597c-20.561-0.055-41.123-0.17-61.684-0.605
					C2397.438,1615.063,2376.877,1614.356,2356.316,1613.305z"/>
				<path fill="#355389" d="M2314.865,1670.371c-12.042-22.743-12.042-49.972,0-72.714c-22.704,0-45.408,0-68.112,0
					c-12.041,22.742-12.041,49.971,0,72.714c8.075-6.188,17.042-12.71,26.9-19.384
					C2286.498,1657.661,2300.236,1664.183,2314.865,1670.371z"/>
			</g>
			<g>
				<g id="XMLID_144_">
					<g>
						<rect x="2529.034" y="1674.133" fill="#FE875E" width="25.313" height="120.161"/>
						<rect x="2554.347" y="1674.133" fill="#F7CC7F" width="42.151" height="120.161"/>
						<rect x="2236.531" y="1674.133" fill="#F7CC7F" width="292.503" height="120.161"/>
						<rect x="2211.219" y="1674.133" fill="#FE875E" width="25.313" height="120.161"/>
						<rect x="2169.067" y="1674.133" fill="#F7CC7F" width="42.151" height="120.161"/>
					</g>
				</g>
				<path fill="#355389" d="M2168.804,1708.606c0,0-32.346,15.598-37.545,57.764l13.864-11.553l4.909,11.553
					c0,0,3.177-35.813,18.771-49.675V1708.606z"/>
				<ellipse fill="#FE875E" cx="2383.553" cy="1734.216" rx="114.754" ry="27.148"/>
			</g>
		</g>
		<g>
			<path fill="#F8C558" d="M2195.083,1206.409c0,0,67.454-14.577,65.44,7.527c-0.858,9.423-29.817,51.851-30.469,55.365
				c-0.432,2.567-1.012,5.188-1.521,7.778c-0.535,2.592-1.084,5.179-1.737,7.81c-0.634,2.626-1.227,5.226-1.936,7.854l-2.244,7.938
				c-0.351,1.31-0.785,2.655-1.245,4.003l-1.346,4.029l-1.354,4.018l-1.591,4.13l-1.637,4.102c-0.279,0.687-0.532,1.354-0.838,2.053
				l-0.982,2.128l-1.982,4.236l-0.999,2.106l-0.503,1.05l-0.848,1.588c-1.219,2.182-2.427,4.382-3.822,6.419
				c-1.44,2.006-2.932,3.985-4.479,5.876c-1.61,1.766-3.27,3.489-4.961,5.155c-1.705,1.568-3.46,2.977-5.239,4.391
				c-7.141,5.332-14.365,8.759-21.193,11.11c-1.687,0.539-3.438,1.188-5.07,1.587l-4.946,1.265
				c-3.206,0.667-6.429,1.266-9.503,1.632c-6.191,0.809-12.153,1.126-17.883,1.067c-11.496-0.06-22.292-1.455-32.77-3.37
				c-5.232-1.049-10.376-2.183-15.458-3.574c-2.541-0.711-5.067-1.424-7.596-2.211l-3.794-1.244l-4.027-1.394l6.695-36.93
				c0.315-0.073,0.942-0.096,1.455-0.145l1.637-0.105l3.348-0.245c2.236-0.144,4.489-0.32,6.727-0.514
				c4.483-0.41,8.93-0.789,13.303-1.391c8.727-1.031,17.213-2.546,24.856-4.537c3.845-0.96,7.396-2.168,10.593-3.417
				c0.77-0.338,1.623-0.612,2.313-0.98c0.714-0.354,1.427-0.688,2.141-1.006l1.883-1.053c0.663-0.322,1.082-0.73,1.635-1.063
				c2.002-1.416,3.029-6.201,3.029-6.201l0.671-2.47l0.344-1.226c0.109-0.429,0.194-0.915,0.294-1.369l0.587-2.757l0.633-2.731
				l0.522-2.946c0.335-1.99,0.741-3.844,1.034-5.926c0.681-4.065,1.997-18.158,3.64-36.823
				C2157.644,1227.033,2172.072,1211.567,2195.083,1206.409L2195.083,1206.409z"/>
			<g>
				<polygon fill="#FAE0B2" points="2291.682,1158.655 2285.822,1205.636 2243.242,1199.106 2242.924,1197.894 2241.416,1192.03 
					2239.824,1185.925 2239.805,1185.854 2234.057,1163.709 				"/>
				<path fill="#FAE0B2" d="M2294.949,1141.422c-0.961,26.794-17.794,51.566-44.588,50.604
					c-26.795-0.964-47.522-0.833-52.444-54.092c-2.467-26.697,23.467-47.734,50.262-46.771S2295.913,1114.628,2294.949,1141.422z"/>
				<path fill="#13375B" d="M2246.369,1112.243c-10.523,1.839-38.19,16.338-48.086,15.897c-9.894-0.44-19.789-33.617-17.947-44.661
					c1.841-11.045,17.419-13.347,17.419-13.347c-2.37-6.442,7.58-16.204,34.124-13.577c23.241,2.302,31.122,16.934,31.122,16.934
					c25.024-9.109,43.895,12.981,38.941,56.892c-2.976,26.368-15.332,40.594-15.332,40.594l-5.729-24.274
					c0,0,8.727-1.42,6.748-10.746c-1.979-9.323-8.771-3.954-8.771-3.954s-0.657-12.44-4.365-16.76
					C2270.538,1110.632,2260.857,1109.711,2246.369,1112.243z"/>
				<path fill="#13375B" d="M2274.493,1115.24c0,0,5.473,15.871,2.714,33.359c-2.758,17.489-14.723,29.454-28.989,24.622
					s-22.418-7.877-31.065-2.247c-8.648,5.63-13.315-3.747-13.315-3.747s6.627,27.938,42.532,24.904
					c35.903-3.032,45.313-30.186,45.313-30.186l-6.188-11.274c0,0-5.063-5.523-5.063-22.552
					C2280.432,1111.093,2274.493,1115.24,2274.493,1115.24z"/>
				<path fill="#FBCAFE" d="M2241.948,1190.64"/>
				<path fill="#FE875E" d="M2244.357,1204.562l-2.941-12.531c0,0,30.896,2.524,41.977-16.23
					C2283.393,1175.8,2283.2,1201.313,2244.357,1204.562z"/>
			</g>
			<g id="XMLID_143_">
				<g>
					<path fill="#F47458" d="M2352.469,1359.252l3.377-60.367c2.723-48.429,0.152-99.103-77.645-99.048
						c-0.095-0.027-0.204-0.041-0.301-0.055c-5.159-0.845-8.958-1.198-10.754-1.348c-0.763-0.056-1.158-0.081-1.158-0.081
						c-100.291,0-97.589,37.275-100.53,89.856l-3.173,56.569l-4.738,84.398l190.403,10.674L2352.469,1359.252z"/>
					<path fill="#587CF8" d="M2267.146,1198.435c1.796,0.149,5.595,0.503,10.754,1.348
						C2274.389,1199.128,2270.794,1198.679,2267.146,1198.435z"/>
				</g>
			</g>
			<g>
				<g>
					<path fill="#FAE0B2" d="M2209.647,1416.353h17.9c7.749,0,14.032-6.281,14.032-14.03l0,0c0-7.75-6.283-14.031-14.032-14.031
						h-17.9c-7.748,0-14.03,6.281-14.03,14.031l0,0C2195.617,1410.071,2201.899,1416.353,2209.647,1416.353z"/>
					<path fill="#FAE0B2" d="M2211.887,1394.393L2211.887,1394.393c-0.866-3.505-4.442-5.665-7.947-4.799l-21.163,5.228
						c-3.506,0.865-5.665,4.441-4.798,7.947l0,0c0.865,3.503,4.441,5.662,7.945,4.798l21.163-5.228
						C2210.593,1401.474,2212.752,1397.897,2211.887,1394.393z"/>
					<path fill="#FAE0B2" d="M2205.743,1402.646L2205.743,1402.646c-0.866-3.504-4.441-5.664-7.945-4.798l-23.222,5.734
						c-3.506,0.865-5.665,4.441-4.8,7.945l0,0c0.866,3.506,4.441,5.666,7.946,4.8l23.222-5.735
						C2204.45,1409.728,2206.609,1406.151,2205.743,1402.646z"/>
				</g>
			</g>
			<g>
				<g>
					<g>
						<path fill="#F8A492" d="M1990.817,1671.167c0,0,8.372,9.372,0.421,18.799l-23.054-9.443c2.257-4.077,6.295-6.896,10.977-7.583
							C1983.714,1672.273,1987.477,1671.711,1990.817,1671.167z"/>
						<path fill="#F8A492" d="M2099.888,1698.403l-6.662,16.265c-21.02-8.917-11.024-26.716-11.024-26.716
							c8.677,2.921,14.022,4.271,14.974,4.5c0.105,0.029,0.162,0.036,0.162,0.036l0.088,0.037
							C2099.731,1693.469,2100.831,1696.097,2099.888,1698.403z"/>
						<path fill="#F47458" d="M2022.025,1665.735c2.158-0.382,4.488-0.796,7.04-1.238c0,0,1.9,1.104,5.343,2.94
							c5.716,3.032,15.69,8.029,28.125,13.123c1.046,0.427,2.079,0.851,3.085,1.232c6.407,2.567,12.019,4.6,16.674,6.167
							c0,0-9.997,17.799,11.022,26.717l-5.994,14.64l-96.082-39.351c7.951-9.427-0.421-18.799-0.421-18.799
							c6.999-1.105,12.236-2.037,19.363-3.311C2013.566,1667.242,2017.379,1666.554,2022.025,1665.735z"/>
						<path fill="#B75742" d="M2087.32,1729.316l-0.218,0.529c-1.192,2.91-4.519,4.314-7.43,3.122l-109.825-44.982
							c-1.146-0.468-1.988-1.358-2.434-2.424c-0.435-1.06-0.477-2.283-0.008-3.431c0.227-0.555,0.491-1.092,0.778-1.608
							l23.054,9.443L2087.32,1729.316z"/>
						<path fill="#FAE0B2" d="M2102.313,1680.565l-4.887,11.932c0,0-0.051-0.021-0.16-0.036c-1.699-0.49-16.6-4.493-31.208-10.241
							c-1.005-0.382-2.479-1.232-3.524-1.659c-12.435-5.094-22.409-10.091-28.125-13.123c-3.303-1.779-5.117-2.847-5.117-2.847
							l4.887-11.933l62.959,25.786L2102.313,1680.565z"/>
						<g>
							<g>
								<path fill="#F8A492" d="M2027.245,1679.907c-0.165-0.066-0.305-0.197-0.377-0.375l-5.474-13.542
									c-0.141-0.35,0.029-0.746,0.376-0.887c0.35-0.14,0.747,0.029,0.887,0.375l5.473,13.541c0.143,0.351-0.027,0.747-0.375,0.887
									C2027.584,1679.976,2027.402,1679.971,2027.245,1679.907z"/>
							</g>
							<g>
								<path fill="#F8A492" d="M2021.217,1681.188c-0.166-0.066-0.305-0.197-0.377-0.375l-5.485-13.545
									c-0.142-0.35,0.027-0.746,0.376-0.887c0.347-0.142,0.746,0.026,0.886,0.374l5.485,13.546
									c0.143,0.35-0.027,0.746-0.374,0.887C2021.558,1681.258,2021.375,1681.253,2021.217,1681.188z"/>
							</g>
							<g>
								<path fill="#F8A492" d="M2015.384,1681.964c-0.167-0.066-0.306-0.197-0.377-0.376l-5.456-13.475
									c-0.011-0.025-0.036-0.119-0.044-0.145c-0.099-0.363,0.117-0.737,0.479-0.835c0.364-0.098,0.737,0.116,0.835,0.48
									l0.018,0.064l5.431,13.398c0.142,0.348-0.027,0.746-0.375,0.887C2015.724,1682.033,2015.542,1682.027,2015.384,1681.964z"/>
							</g>
						</g>
					</g>
					<g>
						<path fill="#F8A492" d="M2192.984,1714.603c0,0,12.532,0.96,13.328,13.265l-23.169,9.162
							c-1.196-4.505-0.237-9.334,2.662-13.072C2188.629,1720.323,2190.951,1717.311,2192.984,1714.603z"/>
						<path fill="#F8A492" d="M2290.511,1658.686l6.463,16.345c-21.336,8.132-26.456-11.63-26.456-11.63
							c8.279-3.904,13.071-6.633,13.914-7.129c0.096-0.052,0.143-0.085,0.143-0.085l0.088-0.034
							C2286.98,1655.236,2289.595,1656.368,2290.511,1658.686z"/>
						<path fill="#F47458" d="M2211.728,1689.065c1.292-1.769,2.687-3.684,4.221-5.767c0,0,2.135-0.524,5.889-1.584
							c6.223-1.773,16.878-5.079,29.374-10.021c1.051-0.415,2.09-0.826,3.079-1.247c6.399-2.589,11.854-5.01,16.297-7.103
							c0,0,5.12,19.76,26.459,11.629l5.816,14.713l-96.55,38.181c-0.796-12.305-13.328-13.265-13.328-13.265
							c4.282-5.646,7.414-9.943,11.672-15.801C2206.673,1696.014,2208.945,1692.874,2211.728,1689.065z"/>
						<path fill="#B75742" d="M2302.862,1689.687l0.21,0.531c1.157,2.925-0.269,6.241-3.193,7.397l-110.363,43.645
							c-1.152,0.455-2.376,0.396-3.437-0.063c-1.047-0.464-1.925-1.317-2.382-2.469c-0.22-0.557-0.402-1.128-0.554-1.699
							l23.169-9.162L2302.862,1689.687z"/>
						<path fill="#FAE0B2" d="M2279.903,1644.141l4.742,11.99c0,0-0.052,0.02-0.143,0.085c-1.563,0.823-15.082,8.26-29.601,14.234
							c-0.989,0.421-2.641,0.829-3.691,1.244c-12.496,4.941-23.151,8.247-29.374,10.021c-3.614,1.005-5.66,1.492-5.66,1.492
							l-4.742-11.989l63.266-25.019L2279.903,1644.141z"/>
						<g>
							<g>
								<path fill="#F8A492" d="M2225.311,1695.671c-0.166,0.066-0.356,0.069-0.531-0.011l-13.329-5.973
									c-0.344-0.155-0.496-0.558-0.343-0.9c0.156-0.344,0.56-0.496,0.899-0.344l13.327,5.975c0.345,0.154,0.498,0.557,0.344,0.898
									C2225.602,1695.485,2225.468,1695.606,2225.311,1695.671z"/>
							</g>
							<g>
								<path fill="#F8A492" d="M2221.851,1700.772c-0.164,0.066-0.356,0.066-0.53-0.012l-13.342-5.968
									c-0.343-0.154-0.497-0.557-0.343-0.898c0.152-0.343,0.558-0.498,0.899-0.345l13.34,5.969c0.345,0.152,0.497,0.557,0.345,0.9
									C2222.144,1700.586,2222.008,1700.707,2221.851,1700.772z"/>
							</g>
							<g>
								<path fill="#F8A492" d="M2218.181,1705.371c-0.165,0.066-0.355,0.068-0.531-0.01l-13.271-5.939
									c-0.024-0.012-0.108-0.059-0.131-0.072c-0.323-0.195-0.426-0.613-0.231-0.935c0.194-0.323,0.611-0.426,0.933-0.232
									l0.06,0.035l13.197,5.9c0.344,0.153,0.497,0.557,0.344,0.899C2218.475,1705.185,2218.34,1705.309,2218.181,1705.371z"/>
							</g>
						</g>
					</g>
				</g>
				<path fill="#355389" d="M2273.719,1420.227c0,0-87.678-4.548-156.02-4.548c-68.341,0-91.026,22.245-82.166,86.67
					c8.989,65.349-4.535,149.339-4.535,149.339l78.054,31.506c0,0,33.479-136.033,26.242-167.473
					C2135.294,1515.721,2285.949,1532.046,2273.719,1420.227z"/>
				<g>
					<path fill="#466EB6" d="M2349.389,1459.594c-11.668,76.761-110.334,58.79-110.334,58.79
						c7.243,31.437,44.984,124.396,44.984,124.396l-77.963,30.354c0,0-52.265-104.731-66.776-168.121
						c-14.514-63.391,13.819-86.672,82.164-86.672c38.299,0,73.929,3.322,97.85,6.264c18.774,2.286,30.348,4.328,30.348,4.328
						C2350.927,1440.547,2350.75,1450.704,2349.389,1459.594z"/>
					<g>
						<path fill="#171C51" d="M2272.311,1646.883l-1.512-3.437l1.246-0.547l1.432,3.254c0.121,0.274,0.139,0.316,0.139,0.461h-1.361
							h0.682L2272.311,1646.883z M2269.151,1639.683l-1.638-3.761l1.247-0.544l1.64,3.76L2269.151,1639.683z M2265.88,1632.161
							l-1.628-3.758l1.25-0.541l1.627,3.758L2265.88,1632.161z M2262.628,1624.642l-1.618-3.761l1.252-0.538l1.616,3.76
							L2262.628,1624.642z M2259.396,1617.119l-1.608-3.765l1.252-0.535l1.608,3.762L2259.396,1617.119z M2256.182,1609.59
							l-1.599-3.768l1.254-0.531l1.6,3.767L2256.182,1609.59z M2252.99,1602.052l-1.59-3.77l1.255-0.528l1.587,3.769
							L2252.99,1602.052z M2249.815,1594.511l-1.581-3.774l1.257-0.525l1.578,3.774L2249.815,1594.511z M2246.662,1586.959
							l-1.569-3.779l1.259-0.521l1.566,3.778L2246.662,1586.959z M2243.532,1579.397l-1.557-3.784l1.26-0.517l1.555,3.781
							L2243.532,1579.397z M2240.428,1571.826c-0.516-1.264-1.029-2.53-1.543-3.795l1.262-0.511
							c0.514,1.264,1.026,2.527,1.543,3.792L2240.428,1571.826z M2237.354,1564.243c-0.513-1.269-1.02-2.535-1.524-3.797
							l1.265-0.506c0.504,1.261,1.012,2.525,1.522,3.793L2237.354,1564.243z M2234.314,1556.645
							c-0.506-1.274-1.008-2.544-1.505-3.807l1.268-0.497c0.496,1.26,0.997,2.527,1.503,3.804L2234.314,1556.645z
							 M2231.316,1549.028c-0.501-1.281-0.995-2.555-1.481-3.815l1.269-0.49c0.487,1.261,0.98,2.531,1.48,3.811L2231.316,1549.028z
							 M2228.364,1541.392c-0.49-1.291-0.975-2.567-1.451-3.828l1.274-0.481c0.476,1.26,0.959,2.535,1.45,3.823L2228.364,1541.392z
							 M2225.48,1533.726c-0.483-1.301-0.955-2.583-1.414-3.843l1.279-0.466c0.457,1.258,0.93,2.535,1.411,3.835L2225.48,1533.726z
							 M2222.676,1526.029c-0.469-1.319-0.924-2.609-1.36-3.867l1.287-0.447c0.435,1.255,0.888,2.542,1.356,3.856L2222.676,1526.029
							z M2219.99,1518.281c-0.451-1.345-0.878-2.648-1.278-3.901l1.297-0.414c0.398,1.247,0.822,2.542,1.273,3.882L2219.99,1518.281
							z M2217.496,1510.455c-0.419-1.405-0.797-2.738-1.125-3.962l1.315-0.351c0.326,1.224,0.697,2.532,1.114,3.923
							L2217.496,1510.455z M2237.388,1505.351c-1.271,0-2.496-0.012-3.678-0.034l0.027-1.362c1.172,0.023,2.39,0.035,3.646,0.035
							l0.426-0.001v1.362H2237.388z M2241.914,1505.298l-0.034-1.361c1.326-0.032,2.685-0.079,4.072-0.144l0.064,1.358
							C2244.618,1505.218,2243.248,1505.266,2241.914,1505.298z M2229.612,1505.191c-1.466-0.058-2.835-0.131-4.097-0.213
							l0.087-1.358c1.253,0.081,2.611,0.154,4.064,0.212L2229.612,1505.191z M2250.112,1504.913l-0.095-1.357
							c1.334-0.093,2.688-0.203,4.059-0.334l0.127,1.356C2252.822,1504.709,2251.457,1504.82,2250.112,1504.913z M2221.425,1504.671
							c-1.842-0.162-3.238-0.318-4.086-0.42l0.162-1.352c0.839,0.101,2.219,0.256,4.044,0.416L2221.425,1504.671z M2258.287,1504.14
							l-0.163-1.35c1.334-0.162,2.679-0.341,4.034-0.541l0.197,1.349C2260.989,1503.798,2259.632,1503.979,2258.287,1504.14z
							 M2266.41,1502.939l-0.237-1.34c1.338-0.236,2.682-0.495,3.994-0.768l0.277,1.333
							C2269.118,1502.44,2267.762,1502.702,2266.41,1502.939z M2274.454,1501.265l-0.321-1.323c1.344-0.327,2.667-0.671,3.934-1.023
							l0.365,1.311C2277.151,1500.585,2275.813,1500.935,2274.454,1501.265z M2282.38,1499.05l-0.415-1.298
							c1.31-0.418,2.603-0.86,3.848-1.313l0.467,1.28C2285.017,1498.179,2283.705,1498.626,2282.38,1499.05z M2290.118,1496.23
							l-0.521-1.258c1.268-0.524,2.516-1.073,3.712-1.634l0.579,1.234C2292.672,1495.141,2291.404,1495.699,2290.118,1496.23z
							 M2297.574,1492.737l-0.638-1.205c1.203-0.636,2.39-1.306,3.528-1.987l0.7,1.168
							C2300.006,1491.407,2298.798,1492.088,2297.574,1492.737z M2304.642,1488.499l-0.765-1.129
							c1.122-0.759,2.226-1.557,3.279-2.368l0.83,1.079C2306.91,1486.908,2305.785,1487.722,2304.642,1488.499z M2311.181,1483.461
							l-0.897-1.025c1.014-0.888,2.005-1.814,2.948-2.755l0.962,0.964C2313.229,1481.605,2312.216,1482.554,2311.181,1483.461z
							 M2317.014,1477.632l-1.024-0.897c0.883-1.009,1.739-2.06,2.547-3.124l1.085,0.823
							C2318.795,1475.523,2317.918,1476.599,2317.014,1477.632z M2322.001,1471.064l-1.14-0.747c0.732-1.118,1.436-2.278,2.09-3.447
							l1.188,0.665C2323.469,1468.731,2322.751,1469.918,2322.001,1471.064z M2326.029,1463.872l-1.229-0.583
							c0.567-1.195,1.108-2.44,1.607-3.699l1.265,0.501C2327.162,1461.378,2326.61,1462.65,2326.029,1463.872z M2329.066,1456.213
							l-1.293-0.421c0.408-1.257,0.789-2.562,1.131-3.875l1.316,0.344C2329.873,1453.601,2329.485,1454.93,2329.066,1456.213z"/>
					</g>
					<path fill="#355389" d="M2349.389,1459.594c-16.814-0.135-30.388-13.805-30.388-30.66c0-1.471,0.108-2.913,0.313-4.328
						c18.774,2.286,30.348,4.328,30.348,4.328C2350.927,1440.547,2350.75,1450.704,2349.389,1459.594z"/>
					<g>
						<path fill="#171C51" d="M2349.383,1460.275c-17.129-0.14-31.063-14.199-31.063-31.342c0-1.466,0.108-2.954,0.321-4.426
							l1.347,0.195c-0.203,1.407-0.307,2.83-0.307,4.23c0,16.397,13.329,29.848,29.714,29.98L2349.383,1460.275z"/>
					</g>
					<g>
						<path fill="#171C51" d="M2201.102,1663.035l-0.511-1.262l2.625-1.062l0.511,1.262L2201.102,1663.035z M2207.514,1660.444
							l-0.512-1.262l3.787-1.531l0.512,1.263L2207.514,1660.444z M2215.088,1657.383l-0.511-1.262l3.786-1.53l0.511,1.262
							L2215.088,1657.383z M2222.661,1654.322l-0.512-1.263l3.787-1.529l0.512,1.263L2222.661,1654.322z M2230.235,1651.262
							l-0.511-1.262l3.786-1.53l0.511,1.263L2230.235,1651.262z M2237.809,1648.201l-0.511-1.262l3.786-1.529l0.512,1.262
							L2237.809,1648.201z M2245.383,1645.141l-0.511-1.263l3.787-1.529l0.51,1.262L2245.383,1645.141z M2252.956,1642.081
							l-0.511-1.263l3.786-1.532l0.512,1.263L2252.956,1642.081z M2260.529,1639.019l-0.512-1.262l3.789-1.529l0.511,1.262
							L2260.529,1639.019z M2268.104,1635.96l-0.51-1.264l3.786-1.53l0.51,1.262L2268.104,1635.96z M2275.678,1632.898l-0.512-1.263
							l3.787-1.53l0.511,1.263L2275.678,1632.898z"/>
					</g>
				</g>
			</g>
			<g>
				<g>
					<path fill="#D1D1D1" d="M2103.805,1415.872h75.762c-1.584,0-3.036,0.543-4.094,1.43c-1.057,0.878-1.699,2.084-1.699,3.432
						c0,2.682,2.606,4.875,5.793,4.875h-155.798c-3.186,0-5.794-2.193-5.794-4.875c0-1.348,0.661-2.554,1.7-3.432
						c1.057-0.887,2.493-1.43,4.094-1.43H2103.805z"/>
					<path fill="#9E9E9E" d="M2264.498,1415.872c2.681,0,4.876,2.18,4.876,4.861c0,1.348-0.542,2.557-1.431,3.444
						c-0.889,0.876-2.111,1.431-3.445,1.431h-85.914c-2.681,0-4.876-2.193-4.876-4.875c0-1.348,0.542-2.554,1.431-3.432
						c0.891-0.887,2.112-1.43,3.445-1.43h84.109H2264.498z"/>
					<path fill="#D1D1D1" d="M2183.725,1413.324c-1.314,1.609-3.252,2.543-5.329,2.543h-6.142c2.076,0,4.014-0.934,5.33-2.543
						c1.314-1.627,1.815-3.703,1.383-5.744l-20.348-97.277c-0.676-3.167-3.512-5.468-6.748-5.468h6.143
						c3.236,0,6.073,2.301,6.748,5.468l20.349,97.277C2185.542,1409.621,2185.042,1411.697,2183.725,1413.324z"/>
					<path fill="#F4F4F4" d="M2177.584,1413.324c-1.316,1.609-3.254,2.543-5.33,2.543h-147.855c-3.235,0-6.072-2.3-6.748-5.467
						l-20.348-97.278c-0.416-2.041,0.087-4.117,1.401-5.744c1.298-1.608,3.254-2.543,5.33-2.543h147.837
						c3.236,0,6.072,2.301,6.748,5.468l20.348,97.277C2179.399,1409.621,2178.898,1411.697,2177.584,1413.324z"/>
					<circle fill="#FFFFFF" cx="2088.14" cy="1360.351" r="8.019"/>
				</g>
			</g>
			<path fill="#F8C558" d="M2352.166,1236.923c3.462,12.984,6.631,25.604,7.275,30.546c13.084,53.846-1.035,95.28-11.854,113.566
				c-28.587,39.706-126.047,34.837-126.047,34.837l2.663-32.119c0,0,37.878-3.541,67.915-18.474
				c24.447-11.577,7.648-73.763-5.229-107.06c-6.892-17.819,2.034-37.837,19.907-44.589l0,0
				C2325.833,1206.439,2346.924,1217.262,2352.166,1236.923z"/>
		</g>
	</g>
</g>
<g id="Object">
</g>
</svg>
